<svg width="548" height="407" fill="none" xmlns="http://www.w3.org/2000/svg"><path opacity=".6" d="M318.251 72.226c-35.068-1.256-68.493-12.924-100.363-25.688-31.869-12.763-63.457-26.907-97.703-33.67-22.019-4.355-47.2-4.967-64.938 7.2-17.072 11.704-22.587 31.91-25.553 50.658-2.232 14.108-3.526 28.952 2.573 42.162 4.246 9.166 11.78 16.874 16.992 25.657 18.13 30.556 5.314 68.238-14.338 98.099-9.216 14.014-19.908 27.349-27.02 42.25-7.11 14.902-10.404 31.974-4.18 47.171 6.17 15.053 20.866 26.378 36.79 34.335 32.343 16.148 70.453 20.767 107.615 23.414 82.262 5.798 164.968 3.286 247.446.774 30.525-.935 61.186-1.874 91.212-6.748 16.675-2.704 33.894-6.992 46.001-17.341 15.366-13.143 19.178-35.389 8.879-51.869-17.274-27.633-65.033-34.5-77.11-64.159-6.643-16.324.181-34.511 9.841-49.652 20.714-32.476 55.444-60.972 57.272-98.1 1.259-25.5-15.436-51.032-41.252-63.1-27.055-12.659-64.575-11.06-84.533 9.862-20.553 21.556-56.673 29.85-87.631 28.745z" fill="#587EEC"/><path d="M122.436 376.911s-27.7-21.582-32.932-49.034c-2.122-11.53-7.814-22.04-16.222-29.954a88.878 88.878 0 00-12.978-9.966" stroke="#9AB1F3" stroke-width="2" stroke-miterlimit="10"/><path d="M56.915 270.662c2.427 3.385 3.525 17.726 3.525 17.726s-12.978-5.268-15.411-8.647a7.802 7.802 0 01-1.374-5.661 7.665 7.665 0 012.913-5.003 7.232 7.232 0 015.492-1.416 7.362 7.362 0 014.855 3.001zm23.277 11.253c.252 4.199-6.38 16.854-6.38 16.854s-8.124-11.7-8.381-15.899a7.765 7.765 0 011.87-5.458 7.313 7.313 0 015.05-2.529 7.255 7.255 0 015.32 1.858 7.706 7.706 0 012.516 5.174h.005zm22.563 32.347c-1.834 3.758-13.764 11.232-13.764 11.232s-1.275-14.325.558-18.083a7.454 7.454 0 014.288-3.708 7.195 7.195 0 015.58.451 7.554 7.554 0 013.674 4.35 7.84 7.84 0 01-.336 5.758zm11.729 28.423c-1.194 4.023-11.725 13.464-11.725 13.464s-3.61-13.895-2.417-17.922c.574-1.933 1.869-3.552 3.601-4.5a7.196 7.196 0 015.633-.559 7.455 7.455 0 014.366 3.711 7.826 7.826 0 01.542 5.806zm-52.679-33.743c4.029.561 16.765-5.367 16.765-5.367s-10.747-9.177-14.796-9.737a7.233 7.233 0 00-5.47 1.494 7.671 7.671 0 00-2.842 5.043 7.794 7.794 0 001.45 5.638 7.353 7.353 0 004.893 2.929zm14.126 33.068c4.03-.711 14.44-10.287 14.44-10.287s-12.924-5.44-16.948-4.729a7.267 7.267 0 00-2.714 1.053 7.482 7.482 0 00-2.113 2.048 7.737 7.737 0 00-1.186 2.728 7.847 7.847 0 00-.076 2.988 7.764 7.764 0 001.045 2.789 7.524 7.524 0 002.005 2.159 7.28 7.28 0 002.657 1.199 7.19 7.19 0 002.9.052h-.01zm18.005 30.204c4.084 0 15.92-7.625 15.92-7.625s-11.84-7.615-15.925-7.615c-1.96 0-3.841.803-5.228 2.232a7.74 7.74 0 00-2.165 5.388 7.74 7.74 0 002.165 5.388 7.284 7.284 0 005.228 2.232h.005z" fill="#587EEC"/><path d="M391.523 190.247s17.073-31.169 42.808-40.148c10.807-3.699 20.158-10.909 26.652-20.549a91.901 91.901 0 007.852-14.601" stroke="#9AB1F3" stroke-width="2" stroke-miterlimit="10"/><path d="M484.991 109.239c-2.931 2.928-16.574 5.959-16.574 5.959s3.349-13.962 6.28-16.895a7.271 7.271 0 015.231-2.055 7.291 7.291 0 015.128 2.312 7.744 7.744 0 012.087 5.353 7.737 7.737 0 01-2.152 5.326zm-7.716 25.241c-4.029.821-17.057-4.276-17.057-4.276s10.173-9.862 14.177-10.667a7.184 7.184 0 012.924-.058 7.288 7.288 0 012.718 1.115 7.527 7.527 0 012.085 2.115 7.754 7.754 0 011.126 2.782c.192.995.189 2.02-.009 3.014a7.758 7.758 0 01-1.142 2.776 7.522 7.522 0 01-2.098 2.101 7.264 7.264 0 01-2.724 1.098zm-28.082 27.344c-3.857-1.376-12.626-12.566-12.626-12.566s13.598-3.208 17.466-1.832a7.332 7.332 0 012.527 1.485 7.587 7.587 0 011.775 2.374 7.83 7.83 0 01.356 5.867 7.66 7.66 0 01-1.474 2.584 7.425 7.425 0 01-2.327 1.798 7.188 7.188 0 01-5.697.29zm-25.805 15.758c-4.029-.685-14.485-10.21-14.485-10.21s12.888-5.533 16.912-4.848a7.38 7.38 0 014.812 3.08 7.81 7.81 0 011.289 5.685 7.66 7.66 0 01-2.988 4.959 7.231 7.231 0 01-5.515 1.329l-.025.005zm25.453-58.294c-.005 4.209 7.403 16.423 7.403 16.423s7.398-12.198 7.398-16.402a7.825 7.825 0 00-.506-2.977c-.36-.947-.9-1.81-1.589-2.539a7.38 7.38 0 00-2.421-1.703 7.195 7.195 0 00-5.748 0 7.374 7.374 0 00-2.422 1.703 7.654 7.654 0 00-1.589 2.539 7.825 7.825 0 00-.506 2.977l-.02-.021zm-29.931 18.821c1.219 4.017 11.815 13.386 11.815 13.386s3.526-13.921 2.297-17.938a7.55 7.55 0 00-3.663-4.279 7.196 7.196 0 00-5.519-.457 7.444 7.444 0 00-4.279 3.62 7.83 7.83 0 00-.641 5.668h-.01zm-26.626 22.407c.544 4.152 9.448 15.244 9.448 15.244s5.746-13.106 5.202-17.274a7.795 7.795 0 00-.89-2.874 7.542 7.542 0 00-1.904-2.293 7.307 7.307 0 00-2.618-1.352 7.173 7.173 0 00-2.922-.198 7.238 7.238 0 00-2.767.986 7.491 7.491 0 00-2.179 2.016 7.725 7.725 0 00-1.248 2.73 7.847 7.847 0 00-.122 3.015z" fill="#587EEC"/><path opacity=".25" d="M484.991 109.239c-2.931 2.928-16.574 5.959-16.574 5.959s3.349-13.962 6.28-16.895a7.271 7.271 0 015.231-2.055 7.291 7.291 0 015.128 2.312 7.744 7.744 0 012.087 5.353 7.737 7.737 0 01-2.152 5.326zm-7.716 25.241c-4.029.821-17.057-4.276-17.057-4.276s10.173-9.862 14.177-10.667a7.184 7.184 0 012.924-.058 7.288 7.288 0 012.718 1.115 7.527 7.527 0 012.085 2.115 7.754 7.754 0 011.126 2.782c.192.995.189 2.02-.009 3.014a7.758 7.758 0 01-1.142 2.776 7.522 7.522 0 01-2.098 2.101 7.264 7.264 0 01-2.724 1.098zm-28.082 27.344c-3.857-1.376-12.626-12.566-12.626-12.566s13.598-3.208 17.466-1.832a7.332 7.332 0 012.527 1.485 7.587 7.587 0 011.775 2.374 7.83 7.83 0 01.356 5.867 7.66 7.66 0 01-1.474 2.584 7.425 7.425 0 01-2.327 1.798 7.188 7.188 0 01-5.697.29zm-25.805 15.758c-4.029-.685-14.485-10.21-14.485-10.21s12.888-5.533 16.912-4.848a7.38 7.38 0 014.812 3.08 7.81 7.81 0 011.289 5.685 7.66 7.66 0 01-2.988 4.959 7.231 7.231 0 01-5.515 1.329l-.025.005zm25.453-58.294c-.005 4.209 7.403 16.423 7.403 16.423s7.398-12.198 7.398-16.402a7.825 7.825 0 00-.506-2.977c-.36-.947-.9-1.81-1.589-2.539a7.38 7.38 0 00-2.421-1.703 7.195 7.195 0 00-5.748 0 7.374 7.374 0 00-2.422 1.703 7.654 7.654 0 00-1.589 2.539 7.825 7.825 0 00-.506 2.977l-.02-.021zm-29.931 18.821c1.219 4.017 11.815 13.386 11.815 13.386s3.526-13.921 2.297-17.938a7.55 7.55 0 00-3.663-4.279 7.196 7.196 0 00-5.519-.457 7.444 7.444 0 00-4.279 3.62 7.83 7.83 0 00-.641 5.668h-.01zm-26.626 22.407c.544 4.152 9.448 15.244 9.448 15.244s5.746-13.106 5.202-17.274a7.795 7.795 0 00-.89-2.874 7.542 7.542 0 00-1.904-2.293 7.307 7.307 0 00-2.618-1.352 7.173 7.173 0 00-2.922-.198 7.238 7.238 0 00-2.767.986 7.491 7.491 0 00-2.179 2.016 7.725 7.725 0 00-1.248 2.73 7.847 7.847 0 00-.122 3.015z" fill="#000"/><path d="M392.505 189.629s3.354-35.627 23.328-54.572c8.425-7.896 14.139-18.393 16.287-29.918a93.672 93.672 0 001.456-16.61" stroke="#9AB1F3" stroke-width="2" stroke-miterlimit="10"/><path d="M446.096 76.508c-1.511 3.904-12.812 12.374-12.812 12.374s-2.428-14.164-.902-18.068c.735-1.874 2.162-3.37 3.967-4.16a7.193 7.193 0 015.66-.052c1.819.757 3.271 2.228 4.037 4.089a7.833 7.833 0 01.05 5.833v-.016zm2.876 26.326c-3.339 2.419-17.275 3.213-17.275 3.213s5.429-13.256 8.768-15.675a7.303 7.303 0 012.655-1.296 7.178 7.178 0 012.935-.129c.977.16 1.913.52 2.752 1.06a7.495 7.495 0 012.135 2.08c.569.834.97 1.777 1.179 2.773a7.828 7.828 0 01-1.069 5.831 7.514 7.514 0 01-2.08 2.138v.005zm-14.938 36.738c-4.069.353-16.488-6.228-16.488-6.228s11.18-8.616 15.249-8.969a7.248 7.248 0 015.392 1.772 7.7 7.7 0 012.596 5.183 7.779 7.779 0 01-1.72 5.556 7.326 7.326 0 01-5.029 2.676v.01zm-17.38 25.169c-3.953 1.038-17.269-3.255-17.269-3.255s9.604-10.438 13.557-11.496a7.201 7.201 0 015.604.807 7.597 7.597 0 013.409 4.655 7.825 7.825 0 01-.784 5.776 7.425 7.425 0 01-4.517 3.513zm.353-63.921c1.652 3.846 13.205 11.938 13.205 11.938s1.964-14.242.312-18.088a7.481 7.481 0 00-4.105-3.891 7.192 7.192 0 00-5.575.172 7.52 7.52 0 00-3.871 4.137 7.837 7.837 0 00.034 5.748v-.016zm-19.964 29.7c2.694 3.161 16.061 7.303 16.061 7.303s-2.257-14.196-4.951-17.357a7.426 7.426 0 00-2.288-1.853 7.194 7.194 0 00-5.692-.422 7.332 7.332 0 00-2.521 1.496 7.59 7.59 0 00-1.766 2.384 7.787 7.787 0 00-.737 2.902 7.81 7.81 0 00.407 2.969c.325.953.83 1.829 1.487 2.578zm-15.557 31.62c2.135 3.582 14.63 9.992 14.63 9.992s.106-14.383-2.014-17.969c-1.056-1.656-2.695-2.824-4.572-3.254a7.206 7.206 0 00-5.48.946 7.609 7.609 0 00-3.292 4.612 7.825 7.825 0 00.753 5.673h-.025z" fill="#587EEC"/><path d="M366.82 50.105c.836-3.161 1.844-6.338 2.549-9.54-.846 3.202-1.859 6.389-2.549 9.54z" fill="url(#paint0_linear_4_6)"/><path d="M363.073 80.552c-.07-.125-.12-.25-.176-.364 0-.052-.05-.093-.07-.145-.11.053-.223.1-.338.14a7.445 7.445 0 01-.68.239c-.231.067-.327.104-.503.145a2.85 2.85 0 01-.449.12l.041.093c.186-.041.367-.078.554-.13l.05.644c.212 0 .408-.031.599-.031a2.42 2.42 0 01.272 0h1.008c-.106-.234-.217-.478-.308-.711zM465.309 248.27c-2.367-3.286-7.091-38.55-7.091-38.55s-9.292-25.075-6.758-35.082c2.533-10.007-6.92-35.612-6.92-35.612s-6.245-2.797-6.583-6.95c0 0-25.498-8.304-26.692-14.533-.967-5.107-16.78-8.772-22.461-9.929-1.733-7.205-3.475-13.926-4.76-17.596a42 42 0 00-.977-2.907c-2.17-5.71-8.879-6.228-13.744-5.771a7.825 7.825 0 00-1.153-2.715 1.494 1.494 0 00-.458-.722 2.713 2.713 0 00-.333-.249 1.64 1.64 0 00-.342-.446 2.413 2.413 0 00-.453-.332 3.002 3.002 0 00-.363-.171 4.745 4.745 0 00-.901-.255 7.233 7.233 0 00-1.088-.145 6.632 6.632 0 002.321-1.75c.436-.527.76-1.142.952-1.806.16-.552.231-1.126.212-1.702a4.496 4.496 0 01-.453.67c.211-2.3-.967-4.636-1.642-6.925a21.088 21.088 0 01-.443-9.16c.674-4.6 2.346-9.25 3.48-13.932a.506.506 0 000-.078 37.215 37.215 0 001.098-7.105c.196-4.843-1.008-9.675-2.942-14.087-1.717-3.909-4.25-7.755-8.128-9.343-2.881-1.2-6.109-1.007-9.211-1.204-6.961-.447-13.598-2.97-20.216-5.263-6.618-2.294-13.427-4.38-20.392-3.981-6.965.4-14.132 3.862-17.309 10.215-1.008 1.983-1.587 4.189-2.79 6.052-2.257 3.514-6.296 5.274-9.665 7.698-3.369 2.424-6.336 5.865-7.554 9.97a13.683 13.683 0 00-.272 6.826c.109.51.251 1.013.423 1.505a10.73 10.73 0 002.19 3.69 10.74 10.74 0 002.488 1.989 14.383 14.383 0 003.677 1.474c-.046.155-.091.322-.141.482-.081.265-.151.52-.227.805a35.205 35.205 0 00-.453 1.941.656.656 0 000 .14 43.65 43.65 0 00-.715 13.262c2.014 21.063 18.886 37.677 39.731 38.757a42.98 42.98 0 002.165.057h1.008c.327.447.649.903.956 1.35.308.446.59.903.857 1.349l-.731-.778-.73-.691c-.198.28-.419.543-.66.784a11.931 11.931 0 00-1.455-.426c-2.09-.477-5.273-.654-9.463.649-3.853 1.189-8.562 3.634-14.072 8.279l-26.848 16.609-14.524 9.105-5.233 13.183s-3.933 15.665-8.31 33.614a7.787 7.787 0 00-.503.166 9.082 9.082 0 00-1.068-.063 9.667 9.667 0 00-6.815 2.813c-1.833 1.811-2.914 4.284-3.016 6.899-8.703 10.9-9.196 21.8-7.151 26.803.185.469.418.916.695 1.334 1.339 1.993 3.842 7.132 6.381 12.608-.066.451-.106.83-.126 1.116a2.615 2.615 0 000 .28s1.51 23.518-3.526 30.26c-1.103 1.469-.937 3.4 0 5.539 3.375 7.692 16.716 17.964 16.716 17.964s16-.088 24.914-1.09c-.025.924-.045 1.842-.066 2.74-.201 9.073-.201 16.677-.201 16.677l-.332 9.514s-3.022 20.051-4.533 25.579c-.952 3.467.146 35.57 1.103 59.171h157.645c1.853-13.962-.761-56.384-.761-56.384s-2.483-10.967-2.573-20.528a.08.08 0 01-.008-.034c0-.011.003-.023.008-.034 0-.835 0-1.65.03-2.449l1.143-.042 2.055-.073h.186s.051-.197.166-.519c.272-.801.643-1.564 1.103-2.268.877-1.334 2.247-2.642 4.306-2.73 1.139-.047 2.901-.997 4.891-2.398a.09.09 0 00.04 0c5.353-3.732 12.429-10.62 14.147-11.751 2.362-1.557 13.673-11.938 13.673-11.938s1.687-2.201 3.485-4.853l.066-.094c2.236-3.322 4.613-7.292 4.029-8.543-1.007-2.243.675-7.604.675-7.604 5.252-9.909-.313-23.041-2.68-26.326zM367.923 88.623c.049.155.079.315.091.477-.126-.171-.252-.353-.378-.519l-.121-.166-.085-.124.191-.27v.036c.133.168.235.36.302.566zm-1.692-4.599a21.51 21.51 0 00-1.264.296c-.358-.654-.7-1.308-1.007-1.972a14.618 14.618 0 012.271 1.676zm-.947.82a.162.162 0 010-.031l.041.031c.206.14.408.275.594.415.166.125.317.244.468.369-.1.182-.211.368-.322.519-.176-.285-.343-.56-.504-.846a1.91 1.91 0 01-.277-.457zm-3.021-6.405a14.465 14.465 0 012.926 0c.136 0 .256.026.377.047.273.043.542.115.801.213a6.145 6.145 0 011.063 2.912l-.272.041-.267.052a41.24 41.24 0 00-1.4.26l-.504.108c-.67.151-1.057.265-1.073.27a8.86 8.86 0 00-.201-.404c-.111-.224-.227-.452-.327-.675-.101-.223-.232-.478-.338-.711-.07-.125-.121-.25-.176-.364 0-.052-.05-.093-.071-.145a1.312 1.312 0 01-.075-.171 53.26 53.26 0 01-.861-1.92c-.031-.063-.056-.13-.081-.193l.383-.026v.135l.096.571zm-120.16 321.985c-.041-7.729-.585-16.091-2.096-23.939a826.758 826.758 0 00-1.984-9.955c-.171-.82-.337-1.63-.503-2.44l-1.552.213h-.141a1223.3 1223.3 0 00-8.652-38.674s-8.783-34.563-7.766-37.319c.131-.358-.035-1.324-.408-2.741-2.125-7.858-10.999-29.513-14.101-36.914 0-.031-.025-.068-.036-.094a75.053 75.053 0 00-.977-2.32l.731-11.045.04-.664.096-1.412-.041-.037.041-.654s-7.665-6.477-20.649-11.154a51.89 51.89 0 00-1.566-.545c.649-4.469 1.511-9.514 2.634-14.429.106-.493.221-.971.342-1.454.106-.482.227-.949.348-1.422a74.57 74.57 0 01.609-2.273c.7-.229 1.39-.483 2.07-.753l.262-.104c8.376-3.359 15.287-9.732 19.454-17.939 4.166-8.207 5.307-17.692 3.209-26.699a38.6 38.6 0 00-6.487-14.092 28.64 28.64 0 00-1.546-1.951c1.456-3.41 3.173-6.654 3.314-9.971.025-.42.025-.841 0-1.261v-.052c-.186-2.134-1.103-4.293-3.238-6.561-3.118-3.327-7.555-5.014-11.992-5.824-4.437-.809-8.959-.83-13.421-1.375-7.398-.914-14.605-3.265-22.004-3.986a50.91 50.91 0 00-26.606 4.671c-5.505 2.595-11.08 7.132-11.412 13.355-.272 5.144 3.203 10.075 2.326 15.156-.871 4.993-5.806 8.923-5.373 13.973.166 1.972 1.148 3.737 2.377 5.31a45.05 45.05 0 001.335 1.557c1.792 1.957 3.767 3.836 4.769 6.301.04.104.08.208.116.311.851 2.435.468 5.513-1.637 6.909.012.009.02.022.025.036.03.042.061.073.086.114a.036.036 0 000-.025 5.484 5.484 0 002.875 1.847l.428.135c-.347.39-.674.794-1.007 1.22l-.216.296a21.68 21.68 0 00-1.511 2.413c-.257.468-.504.935-.71 1.402a17.973 17.973 0 00-1.486 4.5c-.539 3.436.222 7.017-.594 10.381-1.008 4.152-4.195 7.339-5.993 11.196-3.405 7.266-1.476 15.794-.791 23.819.932 10.9-.579 21.846-2.085 32.674a73947.48 73947.48 0 00-2.397 17.289l-6.044 43.434c-.735 5.304-1.606 10.9-5.036 14.995h.035s0 .031-.035.041c1.03.464 2.124.755 3.243.862 4.477.462 9.222-1.77 13.251-4.209a62.759 62.759 0 009.03-6.535 889.003 889.003 0 00-1.33 5.081.226.226 0 010 .052c-5.686 22.319-14.832 63.235-14.832 63.235s-.831 1.781-1.908 4.433h142.022a255.02 255.02 0 01-4.417-5.668l-.488-.721zM136.946 194.051c.035-.062.06-.119.095-.176v1.126c0 .073 0 0 0 0 0 .213-.045.426-.08.639v.046l.503.192.585.249a147.729 147.729 0 0010.485 3.815c.363.12.73.234 1.098.343l.075.644c.091.659.177 1.328.257 1.998v.052c.227 1.853.449 3.701.645 5.507 0 0-9.247-3.633-9.131 1.884a2.922 2.922 0 000 .296c-.01.131-.01.263 0 .394.086 4.298 1.39 6.847 1.652 8.155a.383.383 0 01-.08.145 2.91 2.91 0 00-.222 1.604c-.009.928.062 1.856.211 2.771-.272.172-.538.343-.805.52-.202.129-.393.275-.59.42a78.464 78.464 0 00-4.829-12.831c-1.385-2.938-2.942-6-2.926-9.223 0-.208 0-.421.025-.634a11.22 11.22 0 01.513-2.745c.116-.338.242-.67.383-.997.329-.777.697-1.536 1.103-2.273.262-.488.539-.971.806-1.459.086-.145.166-.296.247-.441l-.02-.021zm226.127-113.5c-.07-.124-.12-.249-.176-.363 0-.052-.05-.093-.07-.145-.11.053-.223.1-.338.14a7.445 7.445 0 01-.68.239c-.231.067-.327.104-.503.145l-.449.12.041.093c.186-.041.367-.078.554-.13l.05.644c.212 0 .408-.031.599-.031h1.28c-.106-.234-.217-.478-.308-.711z" fill="url(#paint1_linear_4_6)"/><path d="M253.031 156.789l-3.021 1.375s-19.697 78.864-19.697 85.238c0 6.374 41.765 41.84 41.765 41.84l6.517-45.333s-9.357-103.96-25.564-83.12z" fill="#E8F5FF"/><path d="M344.646 131.704l-17.451-9.385a36.588 36.588 0 00-5.117-12.016c-2.553-3.799-5.948-7.531-10.178-9.477-10.692-4.942 45.226-30.878 45.226-30.878a95.311 95.311 0 003.107 9.187c2.881 7.328 7.66 16.806 13.819 19.505 10.471 4.594-29.406 33.064-29.406 33.064z" fill="#FFB0B1"/><path opacity=".1" d="M360.233 79.135c-2.389 8.66-7.358 16.328-14.204 21.92-6.846 5.593-15.224 8.828-23.951 9.248-2.553-3.799-5.948-7.531-10.178-9.478-10.692-4.94 45.225-30.877 45.225-30.877a95.592 95.592 0 003.108 9.187z" fill="#000"/><path d="M361.804 66.04c.002 8.493-2.44 16.796-7.017 23.86-4.577 7.062-11.084 12.567-18.697 15.819a40.516 40.516 0 01-24.075 2.447c-8.083-1.656-15.508-5.746-21.335-11.751-5.828-6.006-9.797-13.657-11.405-21.988a44.162 44.162 0 012.371-24.811c3.154-7.847 8.495-14.554 15.348-19.272 6.853-4.718 14.909-7.236 23.15-7.235a40.401 40.401 0 0115.972 3.214 41.403 41.403 0 0113.541 9.301 42.844 42.844 0 019.026 13.955 43.874 43.874 0 013.121 16.46z" fill="#FFB0B1"/><path d="M367.818 126.191l-11.362 27.323-10.022 18.135h-32.081l-9.358-24.795 3.793-25.713h24.501l15.819-.919 5.343-1.837 3.445 2.014 9.922 5.792z" fill="#575A89"/><path opacity=".1" d="M363.904 89.77s7.086 1.557.741 6.919c-6.346 5.361-28.239 22.412-28.239 22.412s7.691 7.059 6.099 15.328l25.479-14.638 4.532-23.419s.509-7.038-8.612-6.602z" fill="#000"/><path opacity=".1" d="M341.417 119.101l-16.206 2.756s3.344 12.743 1.672 16.361a2.356 2.356 0 00-.126.347l-6.613 18.421 4.956 14.466 17.153-24.11-5.847-9.124s6.18-8.44 9.856-11.367c3.677-2.928-4.845-7.75-4.845-7.75z" fill="#000"/><path d="M341.417 118.39l-16.206 2.751s3.344 12.743 1.672 16.36a2.41 2.41 0 00-.126.348l-6.613 18.421 4.956 14.466 17.153-24.125-5.847-9.125s6.18-8.44 9.856-11.367c3.677-2.928-4.845-7.729-4.845-7.729z" fill="#DCE6F2"/><path d="M364.584 88.394s7.086 1.557.736 6.92c-6.351 5.361-28.914 23.787-28.914 23.787s8.356 5.684 6.769 13.947l25.479-14.632 4.532-23.42s.504-7.038-8.602-6.602z" fill="#575A89"/><path opacity=".1" d="M323.191 111.928s1.547 2.979 8.371 8.351c0 0-11.362 6.229-7.016 14.985l-17.38-4.671-2.674-8.611 18.699-10.054z" fill="#000"/><path d="M322.521 111.243s1.546 2.979 8.371 8.351c0 0-11.362 6.198-7.016 14.98l-17.375-4.671-2.674-8.606 18.694-10.054z" fill="#575A89"/><path opacity=".1" d="M367.818 126.191l-11.362 27.323-10.002 18.135h-32.101l-9.358-24.794 3.788-25.714h6.814c-.111 6 2.014 13.049 1.878 15.67-.232 4.308 6.235 27.551 6.235 27.551s13.532-22.558 18.876-24.566c3.359-1.262 10.475-11.757 15.305-19.397l9.927 5.792z" fill="#000"/><path d="M412.575 269.972l-1.154 1.495s8.356 43.221 6.044 53.036a28.717 28.717 0 00-.67 5.388v.078c-.408 9.986 2.518 22.946 2.518 22.946s2.337 38.202 1.007 53.914H263.884c-.916-23.233-1.903-53.332-1.007-56.67 1.511-5.507 4.533-25.485 4.533-25.485l.332-9.467s0-9.151.272-19.345c.116-4.583.287-9.395.534-13.661.317-5.367.76-9.888 1.37-12.11a27.46 27.46 0 00.644-5.128c0-.161 0-.327.031-.493 0-.519.05-1.079.07-1.656v-.519c.096-3.342.061-7.308-.045-11.419v-.68a484.71 484.71 0 00-.353-9.218 772.536 772.536 0 00-1.007-17.242l-19.213-65.608 5.177-13.142 14.368-9.073 26.567-16.532c12.958-10.977 21.489-9.659 24.743-8.455.316.111.625.241.926.39.101.051.182.093.257.14.104.05.203.109.297.176a6.196 6.196 0 00-2.256 1.915 8.599 8.599 0 00-1.395 3.115c-.17.697-.29 1.407-.357 2.123a26.632 26.632 0 00-.091 2.315c.036 1.718.179 3.433.428 5.133v.114c.166 1.215.373 2.403.574 3.519a.271.271 0 000 .057c.232 1.303.464 2.507.62 3.545.03.187.055.358.08.519.111.686.163 1.381.156 2.077.057 1.679.276 3.348.655 4.982.131.686.282 1.417.448 2.18.227 1.039.474 2.17.741 3.322.146.634.302 1.288.463 1.936.06.26.126.519.186.784l.101.41a502.985 502.985 0 002.951 11.419c.423 1.557.69 2.518.69 2.518s7.585-12.639 13.638-19.833c.091-.104.172-.203.257-.296.6-.711 1.189-1.36 1.753-1.931 1.234-1.266 2.342-2.17 3.233-2.502.19-.072.374-.16.549-.264 2.478-1.449 6.477-6.706 10.219-12.214.367-.519.725-1.084 1.087-1.619a194.647 194.647 0 002.398-3.664c.584-.909 1.143-1.791 1.672-2.632a360.626 360.626 0 004.291-7.049l3.495-.161.609-.031h.408l15.869-.757s.685.119 1.813.352c.061 0 .121 0 .187.042 5.63 1.152 21.273 4.801 22.23 9.862 1.168 6.197 26.4 14.466 26.4 14.466.332 4.152 6.512 6.887 6.512 6.887s9.357 25.485 6.854 35.472c-2.473 9.862 6.436 34.257 6.673 34.942l-1.707 2.222-42.239 55.065z" fill="#E8F5FF"/><path opacity=".1" d="M363.899 87.959s15.446-4.516 18.957 4.78c3.51 9.296 11.362 46.839 11.362 46.839s-20.387 3.96-25.731 0c-3.134-2.351-7.013-3.396-10.863-2.928l-11.528 8.092-3.404-1.038s18.442-28.257 22.451-37.859c4.009-9.603 5.364-13.895-1.244-17.886z" fill="#000"/><path d="M363.23 85.882s15.456-4.515 18.981 4.78c3.526 9.297 11.362 46.839 11.362 46.839s-20.382 3.961-25.73 0c-3.133-2.35-7.01-3.396-10.858-2.927l-11.538 8.092-3.405-1.038s18.443-28.257 22.452-37.859c4.009-9.603 5.343-13.885-1.264-17.887z" fill="#E8F5FF"/><path opacity=".1" d="M259.548 235.653s11.528 2.927 13.704 9.644c2.176 6.716-8.521 6.887-8.521 6.887s-6.517-11.881-5.183-16.531zm42.939 49.589s-28.233 59.582-21.716 65.265c6.517 5.684 21.716-65.265 21.716-65.265zm38.93-43.906s22.558 57.874 18.045 66.812c-4.512 8.938 9.69 0 9.69 0l-27.735-66.812z" fill="#000"/><path d="M372.829 298.504s-76.189 3.789-53.964 28.241c22.225 24.452 67.834 1.038 67.834 1.038l-13.87-29.279z" fill="#FFB0B1"/><path opacity=".1" d="M361.804 66.04a43.885 43.885 0 01-3.157 16.411c-.7.083-1.4.135-2.075.166-1.008-2.278-.469-4.91-.449-7.417.021-2.507-.876-5.455-3.218-6.13-4.668-1.354-7.892 7.64-12.495 6.016-3.525-1.235-2.603-6.748-4.633-9.93-1.607-2.517-4.825-3.228-7.328-4.806-5.323-3.368-5.162-8.756-7.635-13.853-2.588-5.341-8.058-3.763-12.807-.612-3.606 2.398-6.718 5.61-10.576 7.52-3.339 1.661-7.091 2.264-10.793 2.352a23.038 23.038 0 01-6.768-.737c2.599-10.073 8.665-18.827 17.065-24.63 8.401-5.804 18.563-8.26 28.591-6.912 10.028 1.349 19.238 6.41 25.912 14.242 6.674 7.83 10.357 17.896 10.361 28.32h.005z" fill="#000"/><path d="M308.022 44.51c-3.611 2.397-6.718 5.605-10.576 7.525-3.339 1.656-7.091 2.258-10.793 2.346-4.532.104-9.412-.716-12.51-4.09-2.845-3.114-3.525-7.905-2.321-11.99 1.203-4.084 4.089-7.474 7.478-9.929 3.39-2.455 7.323-4.152 9.569-7.666 1.189-1.858 1.763-4.049 2.75-6.026 3.158-6.328 10.259-9.753 17.123-10.179 6.865-.425 13.669 1.682 20.206 3.966 6.537 2.284 13.124 4.796 20.024 5.268 3.072.197 6.265 0 9.116 1.199 3.832 1.604 6.345 5.44 8.058 9.343 1.918 4.401 3.112 9.208 2.911 14.014-.423 10.262-7.001 20.331-4.11 30.162.766 2.62 2.201 5.31 1.435 7.93-1.118 3.826-5.907 4.698-9.78 4.88-1.007-2.279-.468-4.916-.448-7.417.02-2.502-.877-5.456-3.213-6.13-4.674-1.345-7.897 7.635-12.49 6.015-3.501-1.24-2.594-6.747-4.629-9.929-1.606-2.523-4.829-3.228-7.327-4.806-5.324-3.369-5.163-8.757-7.635-13.854-2.609-5.367-8.084-3.789-12.838-.633z" fill="#575A89"/><path d="M234.145 242.021l-3.842 1.381s1.51 23.419-3.526 30.136c-5.036 6.716 16.539 23.414 16.539 23.414s29.573-.171 30.409-2.595c.836-2.424-1.511-43.392-1.511-43.392s-15.874-6.374-14.539-16.532c0 0-4.845 23.933-12.027 22.9-7.182-1.033-15.335-7.214-11.503-15.312z" fill="#E8F5FF"/><path opacity=".1" d="M246.963 264.579c5.599 0 10.138-4.278 10.138-9.556 0-5.277-4.539-9.555-10.138-9.555s-10.138 4.278-10.138 9.555c0 5.278 4.539 9.556 10.138 9.556z" fill="#000"/><path d="M258.047 242.712s-2.014-63.365-19.55-49.247c-17.536 14.118-17.708 31.002-14.369 35.99 3.339 4.988 14.046 29.96 14.046 29.96a11.935 11.935 0 0011.121.614 12.303 12.303 0 004.545-3.592 12.8 12.8 0 002.465-5.327l1.742-8.398z" fill="#FFB0B1"/><path opacity=".1" d="M367.44 82.207a1.528 1.528 0 00-.454-.716c-.866-.815-2.729-1.1-5.539-.851l.115 1.37c3.747-.332 4.488.436 4.583.566v.13l.116.17a5.89 5.89 0 01.972 2.175c.173.787.185 1.602.036 2.394-.821 4.23-5.863 7.598-5.913 7.635l-.121.072-.075.12c-2.176 3.327-14.48 12.716-17.698 15.145l-.282-.332c-1.44 1.288-14.101 12.712-14.786 17.087-.443 2.746-3.445 3.81-4.533 4.106-1.148-.898-4.875-3.955-6.814-7.381-1.818-3.223 5.5-9.514 6.144-11.969l-1.007-1.064c-.106.394-9.503 9.446-6.89 14.071 2.095 3.711 5.923 6.888 7.263 7.936-.428 4.007-3.093 27.536-7.187 33.11-5.087 6.93-9.362 41.851-8.889 54.043.418 10.833-2.327 31.294-11.493 40.081a14.618 14.618 0 01-5.6 3.505c-2.099.719-4.328.94-6.522.647h-.222c-.131 0-13.426 1.402-24.597-8.304-9.14-7.926-14.318-20.861-15.395-38.456h-.222l-.091-5.123c2.479-.399 4.711-1.772 6.227-3.831a10.215 10.215 0 001.906-7.212c-.293-2.567-1.541-4.917-3.481-6.556a9.501 9.501 0 00-6.921-2.233c-2.501.206-4.826 1.404-6.488 3.34a10.183 10.183 0 00-2.424 7.044 10.133 10.133 0 002.996 6.807 9.543 9.543 0 006.74 2.76h.111l.09 5.092-.443.031c1.108 18.167 6.547 31.605 16.116 39.904 7.273 6.211 16.563 9.345 25.992 8.767.669.075 1.342.113 2.015.114 4.322.023 8.48-1.701 11.583-4.801 9.655-9.265 12.591-30.479 12.132-41.68-.503-12.919 3.984-46.584 8.486-52.714 4.412-6.016 7.086-29.456 7.555-33.997 1.596-.462 5.207-1.921 5.822-5.71.443-2.74 8.899-11.185 14.101-15.862l-.156-.187c2.8-2.107 11.508-8.751 15.824-13.017 1.34-1.324 2.669-2.647 4.059-3.909 1.672-1.526 3.798-3.95 4.357-6.815.19-.946.191-1.922.002-2.868a7.188 7.188 0 00-1.1-2.634z" fill="#000"/><path d="M322.386 132.544c-.212-.15-5.228-3.851-7.741-8.304-2.609-4.625 6.789-13.672 6.89-14.067l1.007 1.065c-.64 2.449-7.958 8.745-6.139 11.963 2.291 4.065 7.116 7.62 7.166 7.656l-1.183 1.687z" fill="#353146"/><path d="M342.808 111.425l-.786-1.116c.161-.12 15.98-11.912 18.473-15.727l.08-.115.116-.078c.051-.036 5.092-3.4 5.913-7.635.151-.79.14-1.605-.034-2.391a5.836 5.836 0 00-.973-2.171l-.116-.177v-.124c-.101-.135-.841-.898-4.588-.566l-.116-1.375c2.815-.25 4.674.036 5.54.85.215.192.374.442.458.722a7.18 7.18 0 011.122 2.632c.196.948.202 1.926.016 2.875-.559 2.87-2.679 5.295-4.356 6.816-1.385 1.26-2.72 2.595-4.054 3.908-5.062 4.998-16.141 13.261-16.695 13.672zm-101.119 99.141l-1.334.026.149 8.36 1.334-.025-.149-8.361z" fill="#E8F5FF"/><path d="M240.244 211.834c5.382 0 9.745-4.497 9.745-10.044 0-5.547-4.363-10.043-9.745-10.043-5.382 0-9.745 4.496-9.745 10.043 0 5.547 4.363 10.044 9.745 10.044z" fill="#587EEC"/><path d="M240.244 210.131c4.47 0 8.093-3.734 8.093-8.341 0-4.606-3.623-8.341-8.093-8.341s-8.093 3.735-8.093 8.341c0 4.607 3.623 8.341 8.093 8.341z" fill="#E8F5FF"/><path d="M284.14 265.731a18.069 18.069 0 01-2.014-.109c-9.429.573-18.717-2.56-25.992-8.766-9.569-8.305-14.998-21.728-16.116-39.91l2.014-.129c1.078 17.595 6.255 30.535 15.401 38.456 11.17 9.68 24.461 8.304 24.592 8.304h.222c2.194.292 4.424.07 6.523-.649a14.648 14.648 0 005.604-3.503c9.161-8.787 11.906-29.248 11.488-40.081-.504-12.202 3.772-47.124 8.863-54.048 4.457-6.067 7.222-33.416 7.253-33.691l.075-.779.745-.135c.046 0 4.397-.851 4.941-4.204.705-4.37 13.346-15.794 14.781-17.087l1.315 1.557c-5.223 4.672-13.679 13.122-14.102 15.868-.614 3.799-4.225 5.252-5.817 5.709-.503 4.547-3.157 27.982-7.554 33.997-4.502 6.13-8.99 39.796-8.486 52.715.433 11.201-2.473 32.419-12.127 41.679-3.109 3.108-7.278 4.834-11.609 4.806z" fill="#353146"/><path opacity=".1" d="M366.095 53.769c.826-3.146 1.823-6.312 2.518-9.499-.831 3.203-1.833 6.353-2.518 9.499zm-8.425 24.717c-1.008-2.279-.469-4.916-.449-7.417.02-2.502-.876-5.43-3.213-6.13-4.673-1.345-7.897 7.64-12.49 6.016-3.525-1.241-2.593-6.748-4.628-9.93-1.607-2.522-4.825-3.228-7.323-4.806-5.328-3.369-5.167-8.757-7.635-13.854-2.593-5.346-8.058-3.768-12.812-.612-3.611 2.398-6.718 5.61-10.576 7.526-3.339 1.656-7.091 2.258-10.793 2.346-4.507.11-9.413-.716-12.51-4.09-2.387-2.595-3.248-6.4-2.755-9.965-.085.243-.161.487-.236.731-1.209 4.085-.504 8.886 2.321 11.99 3.098 3.374 8.003 4.194 12.51 4.09 3.707-.088 7.454-.69 10.798-2.346 3.868-1.92 6.975-5.128 10.576-7.526 4.754-3.156 10.224-4.733 12.812.613 2.468 5.097 2.312 10.484 7.635 13.853 2.519 1.557 5.717 2.284 7.328 4.806 2.015 3.192 1.123 8.69 4.629 9.93 4.588 1.62 7.811-7.36 12.484-6.016 2.337.675 3.239 3.633 3.214 6.13-.026 2.496-.549 5.138.448 7.417 3.873-.182 8.662-1.038 9.785-4.879a5.753 5.753 0 00.212-1.697c-1.637 2.912-5.847 3.659-9.332 3.82zm91.02 127.893l5.847 6.374s4.679 35.123 7.015 38.409c2.337 3.285 7.857 16.355 2.675 26.17 0 0-1.672 5.341-.67 7.578 1.002 2.237-7.514 13.433-7.514 13.433s-11.196 10.329-13.538 11.881c-2.342 1.552-14.701 13.947-18.876 14.118-4.175.171-5.539 5.512-5.539 5.512l-23.56.862s-13.014-.701-15.844 1.194c0 0 1.511-20.492-13.029-33.925l18.544-6.888s7.02-3.114 9.191-6.368a11.377 11.377 0 015.54-4.303s5.177-3.789 5.343-5.855c.166-2.066 6.331-4.599 6.331-4.599l-3.49-30.701 1.838-50.971s5.847-42.707 18.211-40.293c12.364 2.413 21.525 58.372 21.525 58.372z" fill="#000"/><path d="M450.704 206.379l5.847 6.374s4.679 35.123 7.016 38.409c2.337 3.285 7.856 16.355 2.674 26.17 0 0-1.667 5.341-.665 7.578s-7.519 13.433-7.519 13.433-11.195 10.329-13.537 11.881c-2.342 1.552-14.701 13.947-18.876 14.118-4.175.171-5.54 5.512-5.54 5.512l-23.56.862s-13.023-.701-15.844 1.194c0 0 1.511-20.492-13.028-33.925l18.543-6.888s7.021-3.114 9.191-6.368a11.386 11.386 0 015.54-4.303s5.177-3.789 5.343-5.855c.167-2.066 6.331-4.599 6.331-4.599l-3.49-30.701 1.838-50.971s5.847-42.707 18.211-40.293c12.364 2.413 21.525 58.372 21.525 58.372z" fill="#E8F5FF"/><path opacity=".1" d="M428.968 257.868s17.209-4.671 21.721 1.038c4.513 5.71-21.721-1.038-21.721-1.038zm-4.009 7.832c5.847 4.22 23.892 4.391 23.892 4.391l-23.892-4.391zm8.854 21.094c.503.172 12.404 13.262 17.4 9.302 4.996-3.961-17.4-9.302-17.4-9.302zM273.539 176.933s3.495 24.8 1.773 34.901c-1.723 10.1 4.563 22.615 4.563 22.615l-6.336-57.516z" fill="#000"/><path d="M196.162 187.018c-4.029 3.255-6.97 10.957-9.101 19.423-3.716 14.767-4.93 31.89-4.93 31.89s-32.081-7.578-29.744-11.019c1.47-2.165-.504-18.473-2.151-30.297a682.593 682.593 0 00-1.858-12.41s58.813-6.545 47.784 2.413z" fill="#FFB0B1"/><path opacity=".1" d="M196.162 186.328c-4.029 3.26-6.97 10.957-9.101 19.423a35.964 35.964 0 01-19.672.522c-6.484-1.659-12.41-5.094-17.153-9.943-.982-6.992-1.858-12.416-1.858-12.416s58.813-6.54 47.784 2.414z" fill="#000"/><path d="M213.406 167.777c.003 9.028-3.092 17.766-8.739 24.668-5.647 6.901-13.481 11.522-22.115 13.043-8.635 1.521-17.513-.154-25.064-4.731-7.55-4.576-13.287-11.758-16.194-20.274a39.355 39.355 0 01.311-26.259c3.108-8.441 9.013-15.476 16.67-19.861 7.657-4.385 16.572-5.837 25.168-4.099 8.595 1.738 16.317 6.554 21.799 13.596 5.283 6.783 8.162 15.22 8.164 23.917z" fill="#FFB0B1"/><path opacity=".1" d="M242.656 406.829H232.08l-.891-19.252-.932-19.926s2.402-.368 6.23-.919l1.546-.212h.126a883.811 883.811 0 012.458 12.343 130.642 130.642 0 012.06 22.318v1.526c.03 1.386 0 2.772-.021 4.122z" fill="#000"/><path d="M240.627 406.829H107.992c.574-1.345.957-2.16.957-2.16s10.611-47.845 16.005-68.088a.226.226 0 000-.052 82.83 82.83 0 012.438-8.123c.061-.181.141-.355.237-.519 2.669-4.474 6.013-9.296 1.334-16.184-4.679-6.887-3.022-37.194-3.022-37.194s5.681-25.833 11.695-39.609a18.527 18.527 0 013.817-5.709 15.687 15.687 0 011.672-1.464c.449-.347.916-.668 1.4-.96l.096-.063a19.778 19.778 0 018.224-2.631 22.807 22.807 0 016.169.176c9.751 1.474 17.557 3.94 23.762 6.748 16.816 7.614 21.907 17.819 22.008 18.032l.04.088c.675 1.624 10.546 25.376 14.102 36.458.921 2.885 1.425 4.915 1.224 5.47-1.008 2.751 7.685 37.19 7.685 37.19s4.029 16.609 8.058 36.079c.176.809.342 1.619.504 2.439.72 3.535 1.435 7.137 2.125 10.734a129.94 129.94 0 012.06 22.475c.074 2.349.089 4.638.045 6.867z" fill="#EB5569"/><path opacity=".1" d="M152.054 212.228s-9.15-3.633-9.04 1.879c.111 5.512 2.231 8.149 1.562 8.954-.67.804.332 5.626.332 5.626s12.364 0 18.045 2.637c5.681 2.637 26.621 7.921 29.296 9.53 2.674 1.609 12.59 8.823 12.59 8.823l.892-13.661s-10.249-8.725-27.065-13.199c-16.816-4.474-26.612-10.589-26.612-10.589z" fill="#000"/><path d="M152.054 211.538s-9.15-3.633-9.04 1.879c.111 5.512 2.231 8.149 1.562 8.953-.67.805.332 5.627.332 5.627s12.364 0 18.045 2.642c5.681 2.642 26.621 7.92 29.296 9.524 2.674 1.604 12.59 8.824 12.59 8.824l.902-13.62s-10.249-8.725-27.065-13.199c-16.816-4.474-26.622-10.63-26.622-10.63z" fill="#EB5569"/><path opacity=".1" d="M179.678 244.414s17.486 19.511 16.595 24.914c-.892 5.404-16.595-24.914-16.595-24.914zm-28.404 70.481s-12.817 12.172-16.595 12.862c-3.777.691 2.896 2.985 7.237 1.153 4.342-1.833 13.598-6.654 13.598-6.654l-4.24-7.361z" fill="#000"/><path d="M245.834 406.829h-29.89c-4.18-3.737-8.133-7.199-10.652-9.281-4.029-3.332-6.934-8.237-8.788-12.182a52.645 52.645 0 01-1.088-2.502 42.43 42.43 0 01-1.45-4.022l22.134-13.547a34.968 34.968 0 013.44 3.467l.267.317c1.229 1.494 2.312 3.192 2.407 4.583.111 1.619 4.483 7.884 8.95 13.9 4.532 6.119 9.176 11.969 9.483 12.364 0 0 .765 1.074 2.014 2.725.882 1.193 1.97 2.626 3.173 4.178z" fill="#FFB0B1"/><path opacity=".1" d="M205.242 143.86c-1.062 2.47-2.014 5.034-2.155 7.785-.398 7.942.247 25.698-8.285 29.685-4.225 1.962-8.748-2.347-13.381-2.45-3.334-.073-6.391 2.107-8.426 4.832-2.034 2.725-3.299 5.959-4.774 9.042a62.278 62.278 0 01-4.628 8.045 20.163 20.163 0 01-1.713 2.227 37.174 37.174 0 01-13.544-10.106 38.629 38.629 0 01-7.863-15.209 39.374 39.374 0 01-.583-17.222 38.818 38.818 0 016.814-15.737 37.4 37.4 0 0112.828-11.055 36.22 36.22 0 0116.235-4.126 36.177 36.177 0 0116.343 3.641 37.3 37.3 0 0113.132 10.668v-.02z" fill="#000"/><path d="M202.417 150.244c-.403 7.941.247 25.698-8.29 29.679-4.225 1.962-8.748-2.341-13.381-2.445-3.334-.078-6.386 2.107-8.426 4.827-2.039 2.72-3.293 5.959-4.774 9.047a62.395 62.395 0 01-4.628 8.045c-1.038 1.516-2.186 3.037-3.783 3.888-2.78 1.495-6.149.654-9.13-.306a146.84 146.84 0 01-11.433-4.246c.086-.584.13-1.174.131-1.765-.111.218-.231.421-.352.639l-.237.425a47.485 47.485 0 00-1.229 2.357 15.71 15.71 0 00-.413.939 12.278 12.278 0 00-.942 3.717c-.256 3.462 1.401 6.747 2.871 9.861 5.656 12.047 9.151 26.134 4.895 38.773-1.843 5.497-5.036 10.381-7.368 15.691a52.109 52.109 0 00-3.439 29.99c1.163 6.291 3.495 12.52 2.921 18.899-1.008 10.978-10.194 19.147-19.395 24.763-4.971 3.021-11.055 5.71-16.333 3.322 3.365-4.048 4.231-9.649 4.956-14.933a79521.308 79521.308 0 018.35-60.479c1.481-10.786 2.982-21.691 2.055-32.544-.675-7.998-2.579-16.49.786-23.731 1.777-3.835 4.945-7.012 5.932-11.144.811-3.358.056-6.929.59-10.349a17.963 17.963 0 011.47-4.485 22.134 22.134 0 013.374-5.305c-1.349-.404-2.608-.96-3.374-2.122 2.166-1.454 2.493-4.729 1.511-7.189s-2.946-4.334-4.714-6.275c-1.768-1.942-3.47-4.205-3.691-6.852-.429-5.04 4.457-8.943 5.318-13.915.871-5.061-2.574-9.982-2.297-15.105.323-6.192 5.842-10.692 11.292-13.303a50.021 50.021 0 0126.329-4.671c7.343.716 14.449 3.057 21.772 3.965 4.417.519 8.894.571 13.28 1.371 4.387.799 8.784 2.486 11.871 5.802 8.138 8.746-1.612 15.946-2.075 25.164z" fill="#575A89"/><path opacity=".1" d="M195.608 385.371c-2.569-1.147-7.242-.462-15.265-2.979s-9.569-13.895-9.569-13.895v-.036c-.096-.26-.841-1.952-5.887-7.879-5.576-6.545-17.627-39.603-17.627-39.603s-10.687-11.829-10.35-16.189c.338-4.36-1.898-15.961-1.677-28.937.222-12.976 24.058-21.582 24.058-21.582 45.896-8.383 35.088 46.148 33.864 50.28-1.224 4.131 5.127 15.291 5.127 15.291-.896 4.858 3.676 12.379 3.676 12.379s1.108 6.654 1.335 9.182c.013.117.038.232.076.343.735 2.382 6.728 4.541 9.166 5.854 2.563 1.381 10.807 13.433 10.807 13.433 1.778 8.85-25.176 25.501-27.734 24.338z" fill="#000"/><path d="M196.943 383.295c-2.564-1.152-7.243-.462-15.26-2.984-8.018-2.523-9.569-13.89-9.569-13.89v-.036c-.091-.265-.841-1.952-5.888-7.88-5.575-6.545-17.626-39.608-17.626-39.608s-10.687-11.824-10.355-16.184c.332-4.36-1.894-15.96-1.672-28.926.222-12.966 24.043-21.566 24.043-21.566 45.895-8.383 35.088 46.148 33.864 50.28-1.224 4.131 5.127 15.291 5.127 15.291-.897 4.858 3.676 12.379 3.676 12.379s1.108 6.654 1.34 9.182c.008.117.032.232.07.342.736 2.383 6.729 4.542 9.171 5.855 2.559 1.376 10.808 13.433 10.808 13.433 1.788 8.834-25.166 25.485-27.729 24.312z" fill="#EB5569"/><path opacity=".1" d="M161.523 280.69s20.049 21.8 25.282 21.8c5.232 0-25.282-21.8-25.282-21.8z" fill="#000"/><path d="M196.942 383.295c-2.563-1.152-7.242-.462-15.259-2.984-8.018-2.523-9.569-13.89-9.569-13.89v-.036c5.313-3.634 18.77-13.895 24.073-17.648 3.732-2.631 6.779-6.498 8.562-9.062.735 2.382 6.728 4.541 9.171 5.855 2.558 1.375 10.807 13.432 10.807 13.432 1.733 8.855-25.221 25.506-27.785 24.333z" fill="#FF748E"/><g opacity=".1" fill="#000"><path opacity=".1" d="M123.851 181.309c.026.041.061.078.091.119.151-.197.307-.394.468-.581a3.69 3.69 0 01-.559.462zm11.684 23.793c.212-2.881 1.708-5.419 3.108-7.952-.917-.363-1.833-.732-2.74-1.116.086-.582.13-1.17.131-1.759-1.415 2.595-2.956 5.148-3.173 8.071-.257 3.467 1.4 6.747 2.871 9.862 5.661 12.041 9.151 26.128 4.895 38.772-1.848 5.492-5.036 10.381-7.368 15.691a52.093 52.093 0 00-3.435 29.985c1.154 6.296 3.491 12.52 2.916 18.899-1.007 10.977-10.188 19.147-19.394 24.758-3.762 2.294-8.159 4.396-12.364 4.246a15.671 15.671 0 01-1.3 1.842c5.283 2.404 11.362-.301 16.333-3.332 9.211-5.605 18.413-13.754 19.42-24.753.574-6.379-1.763-12.602-2.921-18.898a52.144 52.144 0 013.424-29.986c2.317-5.304 5.54-10.199 7.368-15.69 4.256-12.644.761-26.731-4.895-38.773-1.465-3.135-3.132-6.4-2.876-9.867z"/><path opacity=".1" d="M204.482 125.143a14.787 14.787 0 00-1.592-1.454c6.104 8.16-2.709 15.094-3.147 23.877-.393 7.941.251 25.703-8.285 29.679-4.22 1.967-8.748-2.341-13.376-2.445-3.339-.073-6.391 2.112-8.431 4.832-2.04 2.72-3.294 5.959-4.769 9.042a62.619 62.619 0 01-4.634 8.045c-1.007 1.521-2.185 3.037-3.787 3.893-2.77 1.49-6.139.654-9.126-.311a140.725 140.725 0 01-8.632-3.115c-.006.541-.049 1.08-.131 1.614a144.2 144.2 0 0011.438 4.246c2.981.966 6.35 1.801 9.125.312 1.597-.857 2.755-2.378 3.788-3.898a61.806 61.806 0 004.628-8.04c1.481-3.083 2.73-6.327 4.774-9.047 2.045-2.72 5.092-4.9 8.426-4.827 4.633.103 9.161 4.411 13.381 2.444 8.537-3.976 7.887-21.737 8.285-29.679.463-9.234 10.213-16.427 2.065-25.168z"/></g><path opacity=".1" d="M138.119 198.038a47.454 47.454 0 00-1.229 2.356 15.71 15.71 0 00-.413.939c-2.639-2.74-9.065-9.254-12.651-11.273a22.215 22.215 0 013.374-5.305s8.547 4.656 10.919 13.283z" fill="#000"/><path d="M138.356 197.612c-1.98-9.234-11.156-14.232-11.156-14.232a22.128 22.128 0 00-3.374 5.304c3.782 2.134 10.753 9.286 13.064 11.71l1.466-2.782z" fill="#EB5569"/><defs><linearGradient id="paint0_linear_4_6" x1="368.094" y1="50.105" x2="368.094" y2="40.564" gradientUnits="userSpaceOnUse"><stop stop-color="gray" stop-opacity=".25"/><stop offset=".54" stop-color="gray" stop-opacity=".12"/><stop offset="1" stop-color="gray" stop-opacity=".1"/></linearGradient><linearGradient id="paint1_linear_4_6" x1="231050" y1="341794" x2="231050" y2="23831.2" gradientUnits="userSpaceOnUse"><stop stop-color="gray" stop-opacity=".25"/><stop offset=".54" stop-color="gray" stop-opacity=".12"/><stop offset="1" stop-color="gray" stop-opacity=".1"/></linearGradient></defs></svg>