<svg width="334" height="244" fill="none" xmlns="http://www.w3.org/2000/svg"><g opacity=".5"><path opacity=".1" d="M111.674 242.961c16.197 0 29.327-2.168 29.327-4.843 0-2.674-13.13-4.842-29.327-4.842-16.198 0-29.328 2.168-29.328 4.842 0 2.675 13.13 4.843 29.328 4.843zm159.419.136c20.211 0 36.596-2.168 36.596-4.842 0-2.675-16.385-4.843-36.596-4.843-20.212 0-36.596 2.168-36.596 4.843 0 2.674 16.384 4.842 36.596 4.842zM5.266 105.545h30.546v42.803H7.502c-.075.439-.148.882-.226 1.324h28.536v34.52c-.051-.016-.096-.034-.145-.053a53.747 53.747 0 01-2.407-1.046l-.512-.238a59.732 59.732 0 01-2.408-1.238 50.293 50.293 0 01-12.84-10.112c-.102-.102-.198-.21-.3-.309a52.152 52.152 0 01-1.43-1.659l-.512-.618a54.807 54.807 0 01-1.592-2.117c-.075-.105-.148-.21-.226-.309a46.471 46.471 0 01-5.177-9.624c-.042-.102-.078-.213-.117-.309a42.223 42.223 0 01-1.099-3.311c-.138-.467-.27-.928-.385-1.414a7.693 7.693 0 01-.111-.421c-1.71-6.86-1.911-13.986-1.911-21.062v-2.476c0-2.862.033-5.743.08-8.62 0-.746.031-1.489.046-2.238a300.45 300.45 0 01.25-7.28c0-.304.015-.607.045-.91.072-1.102.132-2.194.205-3.283zm30.546-47.658H19.057c2.723-4.383 5.7-8.594 8.912-12.612a158.782 158.782 0 017.843-9.159v21.771zm0 1.325v45.009H5.362c0-.13.021-.263.03-.393a117.16 117.16 0 01.193-2.302c.039-.406.081-.901.126-1.349.045-.45.087-.904.139-1.353.05-.448.096-.897.15-1.343.054-.445.102-.897.16-1.343.045-.37.093-.739.141-1.11.07-.523.142-1.05.22-1.57 0-.076.02-.157.033-.231a109.9 109.9 0 012.242-11.3 85.209 85.209 0 013.777-11.45 86.838 86.838 0 015.683-11.25l17.556-.015zm7.293 46.33v42.806h65.243v-42.806H43.105zm0 44.127v36.76c.373.08.743.158 1.11.223.5.099.997.189 1.505.266.097.015.196.031.301.04.199.034.404.062.602.09.503.071 1.002.13 1.505.176.238.025.479.047.72.065l.58.047c.316.024.63.043.94.052.192 0 .385.019.583.025h2.146c.26 0 .518 0 .774-.025h.018c.177 0 .358 0 .538-.025.05.004.1.004.151 0 .15 0 .301 0 .445-.021h.106l1.008-.081c.331-.031.665-.071 1.002-.108l.687-.083a58.594 58.594 0 008.261-1.808c6.086-1.745 12.04-4.186 18.122-5.975 7.865-2.305 16.554-3.437 24.154-.618v-29H43.105zm65.243-91.782V.9A81.699 81.699 0 0087.15 3.456C70.63 7.723 55.806 16.978 43.105 28.798v29.086h3.274v1.322h-3.274v45.015h65.243V59.208H59.824v-1.32h48.524zm83.801-19.25c-4.087-.148-8.15-1.478-11.825-3.533-7.028-3.93-12.641-9.997-18.914-15.118C148.378 9.32 132.215 2.884 115.634 1.287v56.6h93.138l.232-.25-16.855-19zm8.485-1.546l8.996 10.149V34.43c-3.013.383-5.652 1.296-8.984 2.648l-.012.013zm8.996 158.466v-45.888h-19.169a15.903 15.903 0 00-.163-.591c.057.198.106.396.16.591h-74.811v33.186c.71.542 1.411 1.111 2.106 1.69.75.618 1.49 1.271 2.234 1.912l.749.637c.358.31.719.619 1.084.91.722.602 1.451 1.196 2.188 1.782.364.31.737.588 1.107.879a150.432 150.432 0 0018.55 12.473c1.45.825 2.914 1.631 4.391 2.417.984.516 1.974 1.03 2.968 1.528 1.492.749 2.997 1.471 4.514 2.166a162.395 162.395 0 0043.943 13.16c3.369.512 6.751.914 10.146 1.207v-28.062h.301l-.298.003zM115.647 59.208v45.013h93.995V59.208h-93.995zm0 46.334v42.806h93.995v-42.806h-93.995zm101.291-71.168v14.29L228.42 35.71a122.504 122.504 0 00-11.482-1.352v.015zm0 71.183v42.791h91.422v-42.806l-91.422.015zm91.088 93.398l.322-49.286h-91.41v74.439c5.888.254 11.786.182 17.667-.217h.103a141.12 141.12 0 008.388-.792h.063a151.135 151.135 0 0043.1-11.823l21.767-12.321zm17.962-86.364a115.597 115.597 0 00-3.205-7.03h-7.133v42.787h18.034c-.009-12.117-2.991-24.494-7.687-35.773l-.009.016zm-10.338 37.094v42.391c5.08-5.006 9.372-10.734 12.463-17.281 3.717-7.885 5.418-16.422 5.556-25.117l-18.019.007zm0-56.6v11.139h6.465a121.475 121.475 0 00-6.456-11.155l-.009.016zm-62.002-50.313c-.475-.186-.951-.375-1.43-.557a127.815 127.815 0 00-15.443-4.772l-17.571 19.825-.337.369.226.253h62.537a132.528 132.528 0 00-27.973-15.134l-.009.016zm29.815 16.452H218.22l-1.282 1.207v43.79h91.434V83.01a131.755 131.755 0 00-24.9-23.802l-.009.016z" fill="#587EEC"/><path opacity=".1" d="M35.812 81.914v22.307H5.362c0-.13.021-.263.03-.393a117.16 117.16 0 01.193-2.302c.039-.406.081-.901.126-1.349.045-.45.087-.904.139-1.353.05-.448.096-.897.15-1.343.054-.445.102-.897.16-1.343.045-.37.093-.739.141-1.11.07-.523.142-1.05.22-1.57 0-.076.02-.157.033-.231a109.9 109.9 0 012.242-11.3l27.016-.013zM5.266 105.545h30.546v42.803H7.502c-.075.439-.148.882-.226 1.324h28.536v34.52c-.051-.016-.096-.034-.145-.053a53.747 53.747 0 01-2.407-1.046l-.512-.238a59.732 59.732 0 01-2.408-1.238 50.293 50.293 0 01-12.84-10.112c-.102-.102-.198-.21-.3-.309a52.152 52.152 0 01-1.43-1.659l-.512-.618a54.807 54.807 0 01-1.592-2.117c-.075-.105-.148-.21-.226-.309a46.471 46.471 0 01-5.177-9.624c-.042-.102-.078-.213-.117-.309a42.223 42.223 0 01-1.099-3.311c-.138-.467-.27-.928-.385-1.414a7.693 7.693 0 01-.111-.421c-1.71-6.86-1.911-13.986-1.911-21.062v-2.476c0-2.862.033-5.743.08-8.62 0-.746.031-1.489.046-2.238a300.45 300.45 0 01.25-7.28c0-.304.015-.607.045-.91.072-1.102.132-2.194.205-3.283zm60.806-39.891v38.567H43.105V65.654h3.274V52.596h13.442v13.058h6.251zm0 39.888H43.108v42.803h22.964v-42.803zm-22.967 44.13h22.967v35.584c-2.709.8-5.47 1.403-8.262 1.804l-.686.087c-.337.04-.67.074-1.002.108-.331.034-.674.059-1.008.08h-.106c-.144 0-.3.019-.442.022h-.154c-.18 0-.36.019-.541.025-.256.015-.512.018-.774.021h-2.131l-.58-.021c-.302 0-.627-.034-.94-.056l-.578-.043-.719-.068a30.772 30.772 0 01-1.505-.177l-.602-.086-.3-.044c-.503-.08-1-.167-1.506-.266-.37-.065-.737-.145-1.11-.223l-.021-36.747zM209.642 61.1h-18.938v43.118h18.938V61.099zm.003 44.442v42.806h-93.998v-18.464h50.067v10.892h24.991v-35.234h18.94zm.298 90.024h-.301v28.081a162.4 162.4 0 01-54.104-14.392 156.69 156.69 0 01-11.87-6.12 151.067 151.067 0 01-18.553-12.473 164.859 164.859 0 01-4.373-3.571c-.996-.845-1.986-1.711-2.989-2.553a67.77 67.77 0 00-2.106-1.692v-33.174h74.808a33.966 33.966 0 00-.157-.591c.057.195.112.393.163.591h19.181v45.876c.102.003.202.012.301.018zm49.09-137.679h-12.34v-3.942h5.531V42.202c.48.18.958.364 1.433.554v11.189h5.376v3.942zm29.73 46.334h-60.581l.021.015-.027-.015h-11.238V61.102h3.184v31.871h14.552V74.098h12.021V59.212h12.341V74.11h12.021v18.875h17.706v11.236zm-71.825 1.321v42.806h71.825v-42.806h-71.825zm91.323 93.193l.099-33.882h-19.597v-15.162h-71.825v74.417c5.888.254 11.786.182 17.667-.217h.103c2.809-.182 5.605-.446 8.388-.792h.063a151.176 151.176 0 0043.1-11.823m30.667-61.604h16.755c-.147 8.692-1.845 17.229-5.559 25.113-3.091 6.551-7.386 12.278-12.46 17.282v-27.23h1.264v-15.165zm16.764-1.324h-16.764v-35.773h9.071c4.696 11.279 7.678 23.656 7.693 35.773z" fill="#587EEC"/><path opacity=".1" d="M209.645 73.086h-10.146v13.519h10.146V73.086zm0 28.022h-10.146v3.113h10.146v-3.113zm0 4.434h-10.146v9.082h10.146v-9.082zm0 23.587h-10.146v13.519h10.146v-13.519zm0 28.022h-10.146v13.519h10.146v-13.519zm-.003 38.397c.102 0 .202 0 .301.018h-.301v3.141h-10.143v-13.535h10.143v10.376zm0 17.64v10.443a162.645 162.645 0 01-10.143-1.204v-9.239h10.143zm-50.513-65.833h-43.482v.993h43.482v-.993zm0 2.314h-43.482v3.806h43.482v-3.806zm0 16.282h-43.482v6.121h43.482v-6.121zm-.003 18.597v6.12h-34.011a151.569 151.569 0 01-4.376-3.571c-.996-.844-1.983-1.711-2.989-2.549h41.376zm0 18.593v6.114h-3.591a158.55 158.55 0 01-11.867-6.123l15.458.009zm84.042-93.45h-8.56v8.8h8.56v-8.8zM57.832 68.69h-8.56v8.8h8.56v-8.8zm0 20.44h-8.56v8.8h8.56v-8.8zm0 20.441h-8.56v8.8h8.56v-8.8zm0 20.437h-8.56v8.8h8.56v-8.8zm0 20.441h-8.56v8.8h8.56v-8.8zm0 20.441h-8.56v8.8h8.56v-8.8zm218.013-61.199h-8.56v8.8h8.56v-8.8zm-32.677 21.706h-8.56v8.801h8.56v-8.801zm32.677 0h-8.56v8.801h8.56v-8.801zm-32.677 21.704h-8.56v8.8h8.56v-8.8zm32.677 0h-8.56v8.8h8.56v-8.8zm-32.677 21.706h-8.56v8.8h8.56v-8.8zm32.677 0h-8.56v8.8h8.56v-8.8zm-32.677 21.706h-8.56v8.8h8.56v-8.8zm32.677 0h-8.56v8.8h8.56v-8.8zm-41.237 27.378v-5.675h8.557v4.867l-8.557.808zM6.518 93.22v5.035h29.294V93.22H6.518zm2.92 4.72h-2.39v-4.41h2.407l-.018 4.41zm2.916 0H9.946v-4.41h2.408v4.41zm2.91 0h-2.408v-4.41h2.408v4.41zm2.917 0h-2.405v-4.41h2.408l-.003 4.41zm2.913 0h-2.408v-4.41h2.408v4.41zm2.917 0h-2.408v-4.41h2.408v4.41zm2.916 0H24.52v-4.41h2.408v4.41zm2.913 0h-2.407v-4.41h2.407v4.41zm2.914 0h-2.408v-4.41h2.408v4.41zm2.913 0H33.26v-4.41h2.407v4.41zm-29.149 9.929v5.034h29.294v-5.034H6.518zm2.92 4.715h-2.39v-4.397h2.407l-.018 4.397zm2.916 0H9.946v-4.397h2.408v4.397zm2.91 0h-2.408v-4.397h2.408v4.397zm2.917 0h-2.405v-4.397h2.408l-.003 4.397zm2.913 0h-2.408v-4.397h2.408v4.397zm2.917 0h-2.408v-4.397h2.408v4.397zm2.916 0H24.52v-4.397h2.408v4.397zm2.913 0h-2.407v-4.397h2.407v4.397zm2.914 0h-2.408v-4.397h2.408v4.397zm2.913 0H33.26v-4.397h2.407v4.397zm-29.149 9.939v5.044h29.294v-5.044H6.518zm2.92 4.716h-2.39v-4.4h2.407l-.018 4.4zm2.916 0H9.946v-4.4h2.408v4.4zm2.91 0h-2.408v-4.4h2.408v4.4zm2.917 0h-2.405v-4.4h2.408l-.003 4.4zm2.913 0h-2.408v-4.4h2.408v4.4zm2.917 0h-2.408v-4.4h2.408v4.4zm2.916 0H24.52v-4.4h2.408v4.4zm2.913 0h-2.407v-4.4h2.407v4.4zm2.914 0h-2.408v-4.4h2.408v4.4zm2.913 0H33.26v-4.4h2.407v4.4zm-29.149 9.939v5.028h29.294v-5.028H6.518zm2.92 4.715h-2.39v-4.403h2.407l-.018 4.403zm2.916 0H9.946v-4.403h2.408v4.403zm2.91 0h-2.408v-4.403h2.408v4.403zm2.917 0h-2.405v-4.403h2.408l-.003 4.403zm2.913 0h-2.408v-4.403h2.408v4.403zm2.917 0h-2.408v-4.403h2.408v4.403zm2.916 0H24.52v-4.403h2.408v4.403zm2.913 0h-2.407v-4.403h2.407v4.403zm2.914 0h-2.408v-4.403h2.408v4.403zm2.913 0H33.26v-4.403h2.407v4.403zm-29.023 9.936c.118.473.25.947.388 1.414v-1.099H9.44v4.4H8.152c.04.103.078.214.117.31h27.543v-5.025H6.644zm5.719 4.715H9.955v-4.4h2.408v4.4zm2.91 0h-2.408v-4.4h2.408v4.4zm2.917 0h-2.414v-4.4h2.408l.006 4.4zm2.913 0h-2.408v-4.4h2.408v4.4zm2.917 0h-2.408v-4.4h2.408v4.4zm2.916 0h-2.408v-4.4h2.408v4.4zm2.914 0h-2.408v-4.4h2.408v4.4zm2.913 0h-2.408v-4.4h2.408v4.4zm2.914 0h-2.408v-4.4h2.408v4.4zm-22.231 9.939c.076.099.148.211.226.31h1.592v2.113c.172.21.34.421.515.619v-2.745h2.408v4.416h-.975c.096.102.19.21.3.309h18.309v-5.022H13.446zm7.648 4.713h-2.408v-4.397h2.408v4.397zm2.917 0h-2.408v-4.397h2.408v4.397zm2.916 0H24.52v-4.397h2.408v4.397zm2.914 0h-2.408v-4.397h2.408v4.397zm2.913 0h-2.408v-4.397h2.408v4.397zm2.913 0H33.26v-4.397h2.407v4.397zm-6.152 9.939c.274.161.554.309.837.47v-.155h2.408v1.393l.512.244v-1.637h2.407v2.677a.75.75 0 00.145.055v-3.047h-6.308zm198.667-76.914h.019-.019zm-18.54 91.323h.301-.301zm-19.344-46.466c.057.198.106.396.16.591-.048-.195-.1-.393-.16-.591zm37.884-44.867h.019-.019zM46.392 57.878v1.321h13.444v-1.321H46.391zm163.25 137.666h.301-.301zm-19.344-46.466c.057.198.106.396.16.591-.048-.195-.1-.393-.16-.591zm37.884-44.867h.019-.019zm-18.54 91.324h.301-.301zm-19.344-46.457c.057.198.106.396.16.591-.048-.195-.1-.393-.16-.591z" fill="#587EEC"/><path d="M140.032 118.377s-1.186-.17-1.186-1.946c0-1.777-.849-5.094-.849-5.094 0-.015-.734-5.777-1.749-6.692-1.014-.916-2.317-6.294-2.317-6.294s-.223-2.918-.677-3.546c-.455-.628-1.069-2.166-1.975-4.36-.906-2.194-4.683-3.713-4.683-3.713s-6.829-4.072-8.764-5.4a2.965 2.965 0 01-.491-.38c-.337-.455-1.806-.464-1.806-.464-.153-.997-.301-2.142-.349-3.178 0-.112 0-.223-.015-.334a10.66 10.66 0 004.578-5.824c.036-.117.066-.241.099-.359a1 1 0 00.587-.545c.175-.398.178-.866.394-1.237.253-.44.735-.674 1.114-1.006.957-.835 1.204-2.243 1.159-3.524-.03-1.036-.193-2.082-.13-3.113l.018-.26c.018-.154.039-.31.067-.458.147-.767.469-1.491.65-2.252.18-.761.198-1.619-.223-2.275-.617-.962-1.902-1.154-3.031-1.253-1.279-.111-2.423.034-3.241-1.058a11.887 11.887 0 00-1.289-1.6c-.168-.16-1.805-1.188-1.805-1.256a7.135 7.135 0 00-5.102-.402c-.849.253-1.649.668-2.51.875-1.857.452-3.994-.037-5.571 1.056-.879.618-1.406 1.602-1.9 2.562-.4.79-.808 1.579-1.221 2.367-.666 1.296-1.343 2.614-1.623 4.05a6.614 6.614 0 00-.108.947v.504c0 .109 0 .214.018.31s.015.127.024.192c.009.065.024.21.042.31.018.098.054.271.09.408.015.058.037.114.055.17.03.105.066.207.105.31.021.052.042.107.066.16.045.108.1.213.154.31.024.043.042.083.066.123.084.144.176.283.277.415.644.826 1.592 1.352 2.293 2.126v.346a10.825 10.825 0 001.301 4.922 10.493 10.493 0 003.388 3.727c0 .117.016.238.022.356.058.918.047 1.84-.034 2.757a1.238 1.238 0 00-.999-.458 1.404 1.404 0 00-.385.034l-.027-.022v.028c-.662.167-1.478.875-2.257 2.89 0 0-2.372 2.748-4.178 2.633-1.806-.115-6.378 2.86-6.378 2.86s-4.46 2.976-5.417 6.008a43.088 43.088 0 01-1.92 5.038l-5.515 11.68-1.017 9.268s.563 4.121.452 4.749c-.112.629 2.314 6.294 2.314 6.294s8.015 14.478 11.29 15.221l.235-.17c.14.075.288.132.442.17l.674-.489c.04.545.023 1.093-.051 1.634-.451 1.429.169 10.758.957 12.587.789 1.829.509 25.806.509 25.806l-.112 2.117s0 .068.028.185l-.028.502.082.043a6.12 6.12 0 01-.082 2.014c-.282.929-.397 3.553-.397 3.553s-2.254 14.815-1.186 17.792c1.069 2.976 1.978 6.238 1.978 6.238s1.128 3.713.054 4.347c-1.075.634-4.13 1.699-3.5 3.246.571 1.429 2.741 5.26 3.063 5.82l-.027.294-.442 4.929a6.33 6.33 0 00.509 1.882c.484 1.073 1.426 2.187 3.217 2.067.301-.022.65-.059.987-.106 3.278-.451 7.314-1.955 7.314-1.955a3.012 3.012 0 01-.572-.486 1.734 1.734 0 01-.502-1.238c.048-.897-1.587-5.173-1.993-6.225-.063-.152-.096-.239-.096-.239s3.726-4.004 3.106-7.553c0 0-4.123-2.475-2.766-3.834 1.357-1.358 3.783-5.26 3.783-5.26s.112-14.589 0-16.768a18.541 18.541 0 01.208-4.526c.045-.226.099-.446.156-.663a38.34 38.34 0 005.671.443c.692 0 1.396 0 2.107-.043 0 .206.009.429.027.668.156 3.614.448 9.951.686 12.306.337 3.376 2.2 12.473 2.2 12.473s-3.554 2.345.62 8.125c0 0 0 2.095-.277 2.398-.295.992-.534 2-.713 3.02-.175 1.089-.247 2.191.036 2.763.677 1.368 4.74 1.257 4.74 1.257l.1-.019a5.695 5.695 0 012.28.223 5.78 5.78 0 012.021 1.111c1.544 1.275 7.404.715 10.576.309 1.243-.161 2.074-.309 2.074-.309a1.29 1.29 0 00.042-.446c-.033-.801-.644-2.559-4.786-4.128 0 0-3.894-2.692-3.84-5.037h-.533c.328-.019.539 0 .539 0s-1.526-5.724-.903-6.189c.623-.464-1.243-6.807-1.243-6.807s-1.068-10.644-1.126-11.39c.003-.64.097-1.276.28-1.887l-.28-5.836s-.054-1.94 0-2.571a13.18 13.18 0 00-.129-1.637c-.027-.217-.054-.443-.084-.666 1.459-.38 2.407-.733 2.407-.733l-.168-20.314c1.24-2.475 1.469-7.906 1.463-11.758a80.5 80.5 0 00-.109-4.307l1.695-2.844s.391-3.403-.229-4.149c-.274-.337-.15-.687.075-.975.118-.095.241-.182.371-.26 0 0-.019-.028-.04-.068.119-.101.245-.194.377-.275 0 0-.602-.959-.064-1.365.506.353.958.619 1.301.836-.024.226-.048.356-.048.356l.144-.31.533.31s2.654-5.437 2.597-6.239c-.057-.801 1.806-4.177 1.806-4.177s.226-1.773 1.243-2.515c1.017-.743.789-6.124.789-6.124s.283-2.803.96-3.948-.617-2.689-.617-2.689zm-50.793-2.386l.05 1.297-.517-.857.467-.44z" fill="url(#paint0_linear_6_207)"/><path d="M133.398 141.72l-.65 2.847s-5.207-2.733-6.146-6.204c-.939-3.472 1.571-4.79 1.571-4.79l4.852 2.113.373 6.034z" fill="#fff"/><path opacity=".1" d="M133.398 141.72l-.65 2.847s-5.207-2.733-6.146-6.204c-.939-3.472 1.571-4.79 1.571-4.79l4.852 2.113.373 6.034z" fill="#000"/><path d="M104.176 238.604s-4.815 1.82-8.126 2.049c-1.758.12-2.682-.987-3.157-2.055a6.356 6.356 0 01-.497-1.872l.43-4.904.23-2.612 7.033-1.878.996 3.131.094.238c.4 1.046 2.004 5.301 1.956 6.189a1.694 1.694 0 00.493 1.222c.162.187.346.353.548.492zm32.894-2.494c.012.149-.002.299-.042.443 0 0-10.299 1.766-12.406 0a5.542 5.542 0 00-2.033-1.124 5.428 5.428 0 00-2.301-.182s-3.985.111-4.651-1.238c-.276-.566-.204-1.664-.033-2.747a26.83 26.83 0 01.699-3.005l.159-.13.948-.783 11.1-.337h.085c-.055 2.333 3.768 5.01 3.768 5.01 4.06 1.547 4.659 3.295 4.707 4.093z" fill="#fff"/><path opacity=".1" d="M137.07 236.11a1.3 1.3 0 01-.045.443s-10.296 1.766-12.403 0a5.538 5.538 0 00-2.032-1.124 5.436 5.436 0 00-2.299-.182s-3.988.111-4.651-1.238c-.276-.569-.207-1.665-.036-2.748 1.535.158 3.958.551 4.909 1.489 1.439 1.426 3.877 2.85 5.373 2.961 1.171.077 8.174.306 11.184.399zm-32.894 2.494s-4.815 1.82-8.126 2.049c-1.758.12-2.682-.988-3.154-2.058 1.225.424 2.925.869 3.819.461 1.06-.483 4.816-.795 6.923-.929.16.181.341.341.538.477z" fill="#000"/><path d="M111.321 91.983c-3.972-1.588-9.083-6.832-7.807-9.283a5.62 5.62 0 00.497-1.968c.082-.926.094-1.857.036-2.785a39.356 39.356 0 00-.533-4.53s12.403.288 11.681 2.166c-.211.551-.244 1.507-.187 2.578.058 1.07.208 2.28.365 3.305.216 1.404.433 2.475.433 2.475s-.758 1.092-1.204 1.151c-.445.059 2.42 9.153-3.281 6.89z" fill="#CF6F80"/><path opacity=".1" d="M101.169 230.701l-.093.106c-3.708-4.611-8.192 1.135-8.192 1.135l-.067-.12.23-2.612 7.033-1.878.996 3.131.093.238zm27.429-3.369s-2.709-.059-4.154 1.253c-1.445 1.312-8.427.285-8.126 0 .089-.141.143-.303.156-.47l.948-.783 11.1-.338c.043.208.076.338.076.338z" fill="#000"/><path d="M105.783 191.126a8.891 8.891 0 00-.457 1.587 18.673 18.673 0 00-.208 4.505c.112 2.166 0 16.682 0 16.682s-2.38 3.871-3.708 5.235c-1.327 1.365 2.709 3.815 2.709 3.815.602 3.528-3.046 7.513-3.046 7.513-3.708-4.61-8.192 1.139-8.192 1.139s-2.438-4.332-3.046-5.879c-.608-1.547 2.38-2.618 3.43-3.246 1.051-.628-.05-4.332-.05-4.332s-.888-3.246-1.942-6.207c-1.053-2.961 1.162-17.703 1.162-17.703s.114-2.617.388-3.53a6.07 6.07 0 00.082-2.005c-.018-.226-.04-.415-.055-.542-.015-.127-.027-.185-.027-.185l.043-.075 1.504-2.883s12.136 4.294 11.413 6.111zm22.815 35.865s-2.709-.058-4.154 1.238c-1.445 1.297-8.427.285-8.126 0 .301-.285.277-2.392.277-2.392-4.097-5.749-.602-8.082-.602-8.082s-1.83-9.051-2.161-12.408c-.232-2.345-.518-8.648-.672-12.247a482.565 482.565 0 01-.105-2.611l3.347-.694.43-.089 8.073-1.665s.222 1.547.373 2.813c.075.54.117 1.085.126 1.63-.054.619 0 2.556 0 2.556l.274 5.808a6.777 6.777 0 00-.274 1.878c.054.74 1.105 11.328 1.105 11.328s1.827 6.319 1.204 6.774c-.623.454.885 6.163.885 6.163z" fill="#587EEC"/><path opacity=".1" d="M115.195 75.583c-.211.551-.244 1.507-.187 2.578a10.093 10.093 0 01-5.51 1.517 10.11 10.11 0 01-5.451-1.728 39.187 39.187 0 00-.533-4.533s12.403.282 11.681 2.166z" fill="#000"/><path d="M119.99 68.745a10.774 10.774 0 01-.506 3.283 10.544 10.544 0 01-4.366 5.714 10.068 10.068 0 01-6.92 1.476 10.222 10.222 0 01-6.216-3.457 10.753 10.753 0 01-2.585-6.762v-.254a10.86 10.86 0 01.732-4.107 10.617 10.617 0 012.221-3.497 10.287 10.287 0 013.363-2.342 10.054 10.054 0 017.964 0 10.283 10.283 0 013.362 2.342 10.617 10.617 0 012.221 3.497 10.86 10.86 0 01.733 4.107h-.003z" fill="#CF6F80"/><path opacity=".1" d="M111.321 91.983c-3.972-1.588-9.083-6.832-7.807-9.283a5.62 5.62 0 00.497-1.968l5.438 4.595 3.365 2.838 2.559-6.697c.216 1.405.433 2.476.433 2.476s-.758 1.092-1.204 1.151c-.445.059 2.42 9.15-3.281 6.888z" fill="#000"/><path d="M125.386 112.29l-4.542 78.44-5.923.399-15.338-45.483 2.517-53.997.529-11.409 6.82 5.759 3.368 2.837 2.634-6.891 4.897 4.388 5.038 25.957z" fill="#587EEC"/><path opacity=".1" d="M105.783 191.126a8.891 8.891 0 00-.457 1.587 42.778 42.778 0 01-12.418-3.988l-.082-.044.027-.498.016-.26 1.504-2.884s12.133 4.271 11.41 6.087zm10.688 1.6a29.796 29.796 0 01-3.329.39c-.066-1.548-.105-2.612-.105-2.612l3.347-.693.087 2.915zm8.789-1.857c-2.14.572-5.445 1.216-8.404.814l-.042-1.962 8.073-1.665s.222 1.532.373 2.813z" fill="#000"/><path opacity=".1" d="M116.802 192.042c-12.34 2.166-23.642-4.044-23.642-4.044l.109-2.104s.28-23.854-.497-25.683c-.776-1.829-1.381-11.102-.942-12.525.44-1.424-1.604-22.768-1.604-22.768l-.331-8.664-12.118-5.047 5.418-11.61a42.617 42.617 0 001.884-5.012c.942-3.014 5.315-5.975 5.315-5.975s4.485-2.958 6.258-2.847c1.772.112 4.096-2.618 4.096-2.618 1.716-4.495 3.269-2.46 3.269-2.46 0 .214 0 0-.085.666-.602 4.935 9.734 20.53 9.882 20.806l.984 24.649.996 31.193 1.008 34.043z" fill="#000"/><path d="M116.471 192.042c-12.34 2.166-23.645-4.044-23.645-4.044l.112-2.104s.28-23.854-.5-25.683c-.78-1.829-1.381-11.102-.939-12.525.443-1.424-1.604-22.768-1.604-22.768l-.334-8.664-12.124-5.065 5.418-11.61a43.28 43.28 0 001.884-5.012c.94-3.014 5.315-5.975 5.315-5.975s4.485-2.959 6.255-2.847c1.77.111 4.096-2.618 4.096-2.618 1.719-4.496 3.612-2.46 3.612-2.46 0 .214-.181.31-.085.665 1.325 4.787 9.403 20.531 9.55 20.806l.997 24.649.996 31.193.996 34.062z" fill="#fff"/><path opacity=".1" d="M113.145 102.841c-1.327-.57-8.358-8.822-8.358-8.822V92.14c-.256-.62-1.776-.242-3.01.191l.53-11.408.602.514c1.318 4.783 10.083 21.127 10.236 21.403z" fill="#000"/><path d="M113.479 102.157c-1.33-.57-8.361-8.822-8.361-8.822v-1.878c-.256-.62-1.775-.242-3.009.192l.532-11.409.602.514c1.322 4.783 10.089 21.13 10.236 21.403z" fill="#fff"/><path opacity=".1" d="M93.16 143.313c.166 0 8.581-.909 8.581-.909s5.096 10.3 4.762 12.807c-.334 2.506-.939 4.725-2.989 4.332-2.05-.393-11.03.309-11.03.309l.676-16.539z" fill="#000"/><path d="M92.826 142.63c.166 0 8.581-.91 8.581-.91s5.093 10.304 4.762 12.807c-.331 2.503-.942 4.725-2.989 4.332-2.047-.393-11.03.31-11.03.31l.676-16.539z" fill="#fff"/><path d="M99.168 137.793s7.723 4.267 7.889 5.57c.165 1.303-3.931-.569-4.816-.795a10.737 10.737 0 00-1.773-.285l-5.902.164 4.602-4.654z" fill="#CF6F80"/><path opacity=".1" d="M110.99 103.373a.825.825 0 00.813-.836.824.824 0 00-.813-.835.824.824 0 00-.812.835c0 .462.364.836.812.836z" fill="#000"/><path d="M110.99 103.033a.825.825 0 00.813-.836.824.824 0 00-.813-.835.824.824 0 00-.812.835c0 .462.364.836.812.836z" fill="#3F3D56"/><path opacity=".1" d="M112.486 139.538a.824.824 0 00.813-.835.825.825 0 00-.813-.836.824.824 0 00-.812.836c0 .461.363.835.812.835z" fill="#000"/><path d="M112.486 139.195a.824.824 0 00.813-.835.825.825 0 00-.813-.836.824.824 0 00-.812.836c0 .461.363.835.812.835z" fill="#3F3D56"/><path opacity=".1" d="M111.8 121.456a.825.825 0 00.813-.836.824.824 0 00-.813-.835.824.824 0 00-.813.835c0 .462.364.836.813.836z" fill="#000"/><path d="M111.8 121.115a.824.824 0 00.813-.835.825.825 0 00-.813-.836.825.825 0 00-.813.836c0 .461.364.835.813.835z" fill="#3F3D56"/><path d="M130.533 142.11s.554.854 0 1.253c-.554.399.054 1.365.054 1.365s-1.381.832-.773 1.581.222 4.131.222 4.131l-1.661 2.828s.099 1.822.105 4.285c0 3.843-.219 9.246-1.435 11.709l.168 20.209s-5.818 2.184-10.688 1.519l-.722-32.428s1.053-18.389 1.442-21.917c.227-1.831.319-3.677.277-5.523 0 0-.166-5.52-.723-8.082 0 0-.602-11.099-.662-14.172-.027-1.47.048-5.758.133-9.836.093-4.46.198-8.664.198-8.664l-1.098-8.937s1.098-.114 1.429.34c.149.143.31.27.482.381 1.896 1.319 8.596 5.372 8.596 5.372s3.708 1.516 4.596 3.688c.888 2.172 1.505 3.713 1.935 4.332.43.62.665 3.528.665 3.528s1.276 5.353 2.273 6.259c.996.907 1.724 6.675 1.724 6.675l-8.803 7.117s-.774 11.838-.939 12.296c-.166.458 3.205 10.691 3.205 10.691z" fill="#fff"/><path d="M130.867 142.11s.551.854 0 1.253c-.551.399.051 1.365.051 1.365s-1.372.841-.77 1.59c.602.749.222 4.131.222 4.131l-1.661 2.828s.099 1.823.108 4.286c0 3.843-.219 9.245-1.435 11.708l.165 20.209s-5.827 2.184-10.691 1.519l-.719-32.428s1.053-18.389 1.442-21.916c.227-1.832.319-3.678.274-5.524 0 0-.166-5.52-.72-8.082 0 0-.602-11.099-.665-14.171-.027-1.47.051-5.759.133-9.837.093-4.459.198-8.664.198-8.664l-1.45-9.057s1.45 0 1.784.461c.147.144.309.272.482.38 1.896 1.319 8.599 5.372 8.599 5.372s3.705 1.516 4.593 3.689c.888 2.172 1.505 3.713 1.938 4.332.433.618.662 3.527.662 3.527s1.276 5.353 2.273 6.26c.996.906 1.715 6.662 1.715 6.662l-8.803 7.117s-.774 11.838-.943 12.296c-.168.458 3.218 10.694 3.218 10.694z" fill="#fff"/><path opacity=".1" d="M120.324 93.004l.794 2.382-4.183 4.333c.093-4.456.198-8.664.198-8.664l-1.45-9.057s1.45 0 1.784.46c.147.144.308.271.482.378l3.558 10.552-1.183-.384z" fill="#000"/><path d="M119.99 92.32l.797 2.383-4.183 4.332c.093-4.46.198-8.664.198-8.664l-1.453-9.057s1.453 0 1.784.46c.148.144.309.272.482.381l3.56 10.549-1.185-.384z" fill="#fff"/><path opacity=".1" d="M119.99 68.745a10.773 10.773 0 01-.506 3.283.421.421 0 01-.325-.084c-.078-2.785-1.412-5.4-3.052-7.624a7.938 7.938 0 00-1.655-1.764 3.176 3.176 0 00-2.246-.652c-.903.126-1.7.758-2.612.838-1.204.102-2.282-.755-3.476-.798a3.342 3.342 0 00-1.406.326c-.441.21-.833.514-1.15.893a7.278 7.278 0 00-1.369 2.611 15.69 15.69 0 00-.765 4.506c-.015.866-.096 1.952-.879 2.268a4.749 4.749 0 00-.206-1.888 4.667 4.667 0 00-.928-1.643L99.397 69v-.254a10.86 10.86 0 01.732-4.107 10.617 10.617 0 012.221-3.497 10.285 10.285 0 013.363-2.342 10.054 10.054 0 017.964 0 10.281 10.281 0 013.362 2.342 10.617 10.617 0 012.221 3.497 10.86 10.86 0 01.733 4.107h-.003z" fill="#000"/><path d="M113.958 51.934a6.913 6.913 0 00-5.002-.402c-.834.253-1.62.665-2.465.872-1.806.449-3.913-.037-5.463 1.05-.861.618-1.379 1.596-1.86 2.546l-1.204 2.358c-.656 1.29-1.318 2.602-1.592 4.022-.274 1.42-.109 3.01.767 4.153.638.832 1.58 1.355 2.273 2.138a4.68 4.68 0 01.924 1.642c.194.607.265 1.249.207 1.885.786-.31.861-1.398.879-2.265a15.66 15.66 0 01.765-4.505 7.241 7.241 0 011.369-2.612c.318-.378.71-.682 1.15-.892.441-.21.92-.322 1.405-.327 1.204.044 2.285.898 3.477.795.903-.077 1.703-.711 2.612-.835a3.165 3.165 0 012.246.653 7.85 7.85 0 011.652 1.764c1.643 2.224 2.977 4.833 3.055 7.624.34.257.831-.077.999-.474.169-.395.175-.86.388-1.237.247-.436.72-.668 1.09-.996.939-.833 1.174-2.235 1.138-3.506-.036-1.272-.277-2.562-.043-3.813.142-.767.461-1.485.636-2.243.174-.758.195-1.609-.217-2.262-.602-.959-1.869-1.148-2.974-1.237-1.255-.112-2.378.03-3.178-1.056a11.828 11.828 0 00-1.264-1.59c-.16-.16-1.77-1.182-1.77-1.25z" fill="#512E4E"/><path opacity=".1" d="M81.245 117.185l-3.145-5.978-.997 9.224s.554 4.097.443 4.725c-.112.628 2.27 6.26 2.27 6.26s7.864 14.401 11.075 15.143l10.85-7.971-2.877-3.756s-.996-.399-1.246 0c0 0-5.342-9.45-5.896-10.134-.554-.684-.446-2.048-.446-2.048s-.83-.91-.553-1.764c.276-.854-1.605-3.815-1.605-3.815l1.716-1.649-9.59 1.763z" fill="#000"/><path d="M78.265 110.527l-.83.68-.997 9.224s.554 4.097.442 4.725c-.11.629 2.273 6.26 2.273 6.26s7.861 14.401 11.073 15.143l10.853-7.97-2.88-3.757s-.996-.399-1.246 0c0 0-5.343-9.45-5.896-10.134-.554-.683-.443-2.048-.443-2.048s-.83-.91-.554-1.764c.277-.854-1.607-3.815-1.607-3.815l1.716-1.649-11.904-4.895z" fill="#fff"/><path opacity=".1" d="M129.814 146.662c.601.751.222 4.127.222 4.127l-1.661 2.828s.099 1.826.105 4.286l-2.793.897c-.252.081-.52.099-.78.052a1.636 1.636 0 01-.717-.321 1.703 1.703 0 01-.494-.624 1.745 1.745 0 01-.161-.787l.482-15.969 6.516 2.562c-.554.396.054 1.367.054 1.367s-1.381.83-.773 1.582z" fill="#000"/><path d="M130.148 146.318c.602.752.222 4.131.222 4.131l-1.661 2.828s.099 1.823.108 4.286l-2.844.912a1.583 1.583 0 01-1.466-.265 1.667 1.667 0 01-.483-.61 1.707 1.707 0 01-.158-.771l.485-16.019 6.519 2.562c-.557.396.051 1.365.051 1.365s-1.375.832-.773 1.581z" fill="#fff"/><path d="M132.306 138.706s-.443 2.906-1.55 3.076c-1.108.17-1.605 4.7-2.709 4.539-1.105-.161-.373-4.211-.334-4.997.039-.786-1.204-4.041-.274-4.781.93-.739 3.873 0 3.873 0l.994 2.163z" fill="#CF6F80"/><path opacity=".1" d="M134.662 116.331l2.089-4.332s.831 3.302.831 5.066c0 1.763 1.162 1.937 1.162 1.937s1.273 1.547.602 2.673c-.672 1.126-.943 3.93-.943 3.93s.22 5.35-.776 6.089c-.996.74-1.204 2.507-1.204 2.507s-1.83 3.357-1.773 4.155c.057.799-2.546 6.204-2.546 6.204s1.273-6.717-6.146-9.62c0 0-.057-2.28.497-2.905.553-.625 1.417-.91.876-4.069-.542-3.159-.157-6.934-.157-7.693 0-.758 1.661-5.486 1.661-5.486l5.827 1.544z" fill="#000"/><path d="M135.565 111.381l1.824.619s.834 3.301.834 5.065c0 1.764 1.162 1.937 1.162 1.937s1.273 1.547.602 2.673c-.672 1.127-.939 3.93-.939 3.93s.219 5.35-.777 6.09c-.996.739-1.219 2.506-1.219 2.506s-1.827 3.357-1.77 4.156c.058.798-2.549 6.204-2.549 6.204s1.276-6.718-6.146-9.621c0 0-.054-2.28.5-2.905s1.417-.91.876-4.069c-.542-3.159-.157-6.934-.157-7.692s1.661-5.486 1.661-5.486l6.098-3.407z" fill="#fff"/><path opacity=".1" d="M95.28 223.662s2.907-1.878 4.815-.513c1.908 1.364-4.816.513-4.816.513zm22.591-5.808s2.573-.34 4.734 2.052-4.734-2.052-4.734-2.052zm3.765-149.641c-.37.328-.846.563-1.093 1-.21.374-.216.835-.385 1.237-.168.402-.659.73-.999.476-.078-2.785-1.415-5.4-3.055-7.627a7.85 7.85 0 00-1.652-1.764 3.174 3.174 0 00-2.249-.653c-.903.127-1.697.759-2.609.836-1.204.105-2.285-.752-3.479-.795a3.33 3.33 0 00-1.405.327 3.42 3.42 0 00-1.148.895 7.224 7.224 0 00-1.369 2.608 15.691 15.691 0 00-.765 4.506c-.018.863-.096 1.94-.873 2.261.019.23.019.459 0 .687.783-.309.861-1.398.879-2.265.034-1.532.292-3.051.765-4.505a7.255 7.255 0 011.369-2.611 3.432 3.432 0 011.149-.893c.44-.21.918-.321 1.404-.327 1.203.044 2.287.898 3.479.796.903-.078 1.703-.712 2.609-.836a3.174 3.174 0 012.249.653 7.85 7.85 0 011.652 1.764c1.64 2.225 2.977 4.833 3.055 7.624.34.257.831-.077.999-.473.169-.396.175-.86.385-1.238.247-.436.723-.668 1.093-.996.939-.833 1.174-2.234 1.138-3.506v-.118c-.057 1.102-.343 2.225-1.144 2.937zm-22.218-.22c-.693-.783-1.638-1.306-2.273-2.135a4.61 4.61 0 01-.876-2.534 4.863 4.863 0 00.876 3.215c.636.832 1.58 1.355 2.273 2.138a4.71 4.71 0 011.134 2.76 4.745 4.745 0 00-.225-1.841 4.673 4.673 0 00-.91-1.603zm23.949-9.342c-.178.758-.494 1.48-.638 2.244a7.353 7.353 0 00-.094 1.547c.01-.295.041-.589.094-.879.144-.767.46-1.485.638-2.243.103-.418.137-.852.099-1.281a4.523 4.523 0 01-.099.612z" fill="#000"/><path opacity=".1" d="M41.049 236.243c16.197 0 29.327-2.168 29.327-4.842 0-2.675-13.13-4.843-29.327-4.843-16.197 0-29.327 2.168-29.327 4.843 0 2.674 13.13 4.842 29.327 4.842z" fill="#587EEC"/><path d="M41.994 138.635h-1.887v43.682h1.887v-43.682z" fill="#535461"/><path d="M53.853 182.184l-.118 1.968-.168 2.784-.07 1.158-.165 2.785-.072 1.157-.169 2.785-1.902 31.583a5.413 5.413 0 01-1.631 3.566 5.131 5.131 0 01-3.564 1.453h-9.89a5.128 5.128 0 01-3.563-1.453 5.413 5.413 0 01-1.629-3.566l-1.893-31.605-.169-2.785-.069-1.157-.168-2.785-.07-1.157-.168-2.785-.12-1.968a2.847 2.847 0 01.736-2.072 2.667 2.667 0 011.972-.871h20.229a2.643 2.643 0 011.954.891c.25.277.44.605.562.961.122.357.17.736.145 1.113z" fill="#3F3D56"/><path d="M53.735 184.152l-.168 2.775H28.53l-.168-2.775h25.372zm-.237 3.932l-.166 2.779H28.769l-.168-2.779h24.897zm-.238 3.939l-.166 2.776H29.007l-.169-2.776H53.26z" fill="#9D9CB5"/><path d="M25.482 155.007c10.99 8.175 15.576 20.96 15.576 20.96s-13.243-.467-24.235-8.642c-10.991-8.175-15.57-20.957-15.57-20.957s13.238.464 24.23 8.639z" fill="#587EEC"/><path d="M1.245 146.368s13.748 7.843 18.158 14.338c4.409 6.495 21.655 15.261 21.655 15.261" stroke="#535461" stroke-width="2" stroke-miterlimit="10"/><path d="M32.577 138.539c5.98 4.447 8.481 11.406 8.481 11.406s-7.208-.254-13.192-4.701c-5.983-4.446-8.478-11.408-8.478-11.408s7.205.253 13.189 4.703z" fill="#587EEC"/><path d="M19.388 133.836s7.482 4.27 9.88 7.803c2.4 3.534 11.79 8.306 11.79 8.306" stroke="#535461" stroke-width="2" stroke-miterlimit="10"/><path d="M49.741 149.592c-6.871 7.763-8.325 17.909-8.325 17.909s9.689-2.444 16.554-10.211c6.865-7.766 8.325-17.909 8.325-17.909s-9.682 2.447-16.554 10.211z" fill="#587EEC"/><path d="M66.301 139.384s-8.95 7.958-11.226 13.441c-2.276 5.483-13.659 14.676-13.659 14.676" stroke="#535461" stroke-width="2" stroke-miterlimit="10"/><path d="M301.979 146.859s-4.969-25.416-3.067-28.578c0 0 .069-2.94-.045-6.687v-.43c.335.229.684.436 1.045.619a8.246 8.246 0 005.688.755l-1.505-1.724c-.361-.411-.737-.857-.816-1.401-.078-.545.139-1.031.326-1.517 1.429-3.713 1.504-8.382-1.25-11.216-2.326-2.383-2.892-5.459-5.417-7.634-1.845-1.593-2.859-3.93-3.817-6.188-.809-1.91-1.625-3.834-2.088-5.858-.362-1.58-.506-3.218-1.003-4.762-.496-1.544-1.426-3.045-2.88-3.735-.518-.244-1.093-.383-1.565-.708-.62-.43-.993-1.13-1.442-1.742-2.278-3.094-9.908-1.272-13.52-.016a7.541 7.541 0 00-2.672 1.523l.033-.056c.027-.046.06-.093.09-.14-.395.33-.737.721-1.011 1.161-.527.857-.747 1.857-1.186 2.785-.53 1.098-3.476 4.165-2.209 5.4.088.082.19.15.301.197a2.53 2.53 0 001.505.155l-.055.133a9.291 9.291 0 00-.653 3.432c0 5.084 4.079 9.205 9.114 9.205a8.971 8.971 0 002.79-.442c.021.117.039.235.06.352 0 .047.015.093.021.14l-.159.229a.32.32 0 00-.027-.04l-4.726 6.788c-.722.523-4.882 3.617-5.116 5.938a464.54 464.54 0 00-.494 5.514l-.033.637a1.837 1.837 0 01-.708.379c-.26.072-.532.086-.797.039-1.475-.247-1.475 5.57-1.475 5.57s-.981.928-1.655.124c-.674-.805-2.456 1.921-2.456 1.921l-11.166.495-.256.016-.602-1.916a.804.804 0 00-.389-.466.762.762 0 00-.731.008l-.042.025-.078.056-.039.037a.625.625 0 00-.061.065l-.036.043-.018.019a.802.802 0 00-.108.693l.518 1.643c-2.155.446-4.359 1.702-2.562 5.161l-9.107-1.729 2.946 2.543 15.212 3.227c-.202.372-.07.91.559 1.668 2.709 3.271 7.645 4.159 9.632 4.388a17.72 17.72 0 001.953 3.404l-.171 3.258s-5.03 24.834-5.951 26.094a14.63 14.63 0 001.273-1.724c-1.459 5.103-3.5 12.086-4.036 13.132-.861 1.671-1.658 8.432-.677 8.865.301.133 1.162.068 2.39-.028v.56l-.054 21.224s.246 13.018-.431 14.258c-.677 1.241-.858 3.843-.858 3.843s-2.708 5.134-4.854 7.198a.389.389 0 01-.048.043l-.067-.483s-2.579 3.348-8.286 3.16c0 0-3.434 2.295 1.659 2.419 5.092.124 11.596-.185 11.596-.185s4.542-7.117 8.347-6.189v5.393h1.164v-5.48a4.819 4.819 0 001.359-1.395c.357-.554.6-1.178.715-1.832.1-.674.027-1.364-.212-2a3.91 3.91 0 00-1.148-1.629 2.317 2.317 0 01-.544-.768 2.387 2.387 0 01-.2-.928l-.042.037c0-.108-.027-.22-.039-.334-.334-2.785-.752-8.531.725-12.783 2.026-5.829 2.64-13.948 1.165-18.782a44.13 44.13 0 01-1.171-4.706 48.189 48.189 0 01-.099-.573c1.008.141 2.006.347 2.989.619 3.416.969 10.889 1.148 17.27 1.096.015.179.033.368.054.557.114 1.312.352 2.609.71 3.874.801 2.475 1.168 13.389 1.168 13.389s1.033 8.973.47 12.624c-.301 2.03-.602 4.069-.774 6.117v.041s-1.691 4.951-2.928 7.639c-.03.069-.064.137-.094.202a3.79 3.79 0 00-.966.219s-1.658 3.404-3.311 3.967c-1.652.563-1.104 2.417 2.637 1.736 3.741-.681 9.391-1.238 9.391-1.238l.243-3.472 1.15-1.479-.301 3.463 1.225-.248-.162-4.211 1.881-2.42s2.272-2.079-1.105-6.17v.09c-.036-.059-.069-.121-.108-.179v-.019c-.56-.891-1.006-2.553-.19-5.501 1.475-5.329 2.333-10.165 2.333-10.165s3.292-12.956-.665-19.086h.174a10.52 10.52 0 01-.906-3.066c2.929-.173 5.803-.718 8.148-1.894-.009-.012-1.421-30.757-2.589-35.652zm-37.18-21.443v.062l-.602.031.602-.093zm-2.064.294a.662.662 0 00-.271.133 2.792 2.792 0 00-.473 1.272l-.939-.217s-.659-.145-1.607-.309l-.449-.464a92.475 92.475 0 003.739-.415z" fill="url(#paint1_linear_6_207)"/><path d="M293.805 230.965l-.358 4.384 1.2-.248-.18-4.755-.662.619z" fill="#1D2366"/><path d="M266.406 210.146c-1.447 4.239-1.038 9.961-.713 12.739.121 1.028.232 1.653.232 1.653s-2.164 5.068-2.345 5.26c-.18.192-6.368 4.075-6.368 4.075l-4.325 2.596s-4.389-1.977-2.285-2.658c.43-.177.817-.449 1.135-.795 2.107-2.058 4.752-7.173 4.752-7.173s.181-2.596.843-3.83c.662-1.235.421-14.209.421-14.209l.052-21.149v-2.757l8.231.062c.052.936.171 1.866.355 2.784a43.763 43.763 0 001.147 4.691c1.451 4.824.849 12.903-1.132 18.711z" fill="#FFB0B1"/><path opacity=".1" d="M265.925 224.538s-2.164 5.068-2.345 5.26c-.18.192-6.368 4.075-6.368 4.075l-4.325 2.596s-4.389-1.977-2.285-2.658c.43-.177.817-.448 1.135-.795l.186 1.352 1.442-.061 12.34-11.415a26.52 26.52 0 00.22 1.646z" fill="#000"/><path d="M265.775 223.179l-12.41 11.492-1.441.062-.301-2.166s-2.523 3.336-8.127 3.15c0 0-3.365 2.287 1.622 2.411 4.988.124 11.356-.186 11.356-.186s4.449-7.117 8.172-6.188v5.374h1.144v-5.424a4.84 4.84 0 001.334-1.396 4.969 4.969 0 00.694-1.822 4.052 4.052 0 00-.203-1.986 3.951 3.951 0 00-1.124-1.628 2.33 2.33 0 01-.528-.77 2.39 2.39 0 01-.188-.923z" fill="#1D2366"/><path d="M294.948 216.756c-.8 2.939-.364 4.595.184 5.483v.018a10.301 10.301 0 011.439 3.611l.048.279-5.647 8.462-3.064 1.238s-4.927-1.73-4.027-2.225c.226-.12.578-.764.982-1.652 1.203-2.676 2.865-7.615 2.865-7.615v-.04c.174-2.039.451-4.072.758-6.096.551-3.642-.46-12.581-.46-12.581s-.361-10.87-1.144-13.342a20.936 20.936 0 01-.701-3.85c-.163-1.547-.199-2.822-.199-2.822s3.245-4.641 9.192.372c.476.399.894.866 1.243 1.386 4.108 6.009.801 19.246.801 19.246s-.828 4.815-2.27 10.128z" fill="#FFB0B1"/><path opacity=".1" d="M296.628 226.147l-5.647 8.462-3.063 1.238s-4.927-1.73-4.028-2.225c.226-.12.578-.764.982-1.652 2.085-.018 3.166 2.024 3.166 2.024l2.642-.433s3.486-7.043 4.268-7.473c.783-.43.121-3.215.121-3.215v-.709c.021.025.039.053.063.078v.018a10.301 10.301 0 011.439 3.611l.057.276z" fill="#000"/><path d="M288.218 234.176s-1.504-2.84-4.388-1.791c0 0-1.622 3.403-3.244 3.954-1.623.551-1.081 2.407 2.585 1.73 3.666-.678 9.192-1.238 9.192-1.238l.241-3.462 3.726-4.88s2.221-2.07-1.084-6.145v.709s.662 2.784-.12 3.214c-.783.431-4.256 7.476-4.256 7.476l-2.652.433z" fill="#1D2366"/><path opacity=".1" d="M266.045 183.954c.052.936.171 1.866.356 2.784-3.389-.51-6.535-.256-8.596-.089v-2.757l8.24.062zm30.706 4.198s-4.815.242-10.558.291c-.163-1.547-.199-2.822-.199-2.822s3.245-4.641 9.192.372c.476.399.894.866 1.243 1.386.093.264.201.522.322.773z" fill="#000"/><path d="M296.751 187.595s-21.092 1.049-27.521-.804c-6.429-1.854-12.801-.248-13.761-.678-.96-.43-.181-7.166.662-8.834.843-1.668 5.466-18.535 5.466-18.535l4.448-23.844 4.687-1.327.331-.096 8.165-2.315 5.984-1.698s11.897 47.753 10.877 51.274a9.283 9.283 0 00-.175 4.144c.156.94.438 1.853.837 2.713z" fill="#1D2366"/><path d="M250.539 118.593s-4.214 4.642-1.023 7.229c3.19 2.587 5.288.247 5.288.247l-4.265-7.476z" fill="#C7DAF5"/><path opacity=".1" d="M250.539 118.593s-4.214 4.642-1.023 7.229c3.19 2.587 5.288.247 5.288.247l-4.265-7.476z" fill="#000"/><path d="M284.583 88.078s-.494.483-1.237 1.194a173.482 173.482 0 01-4.018 3.754c-1.927 1.723-3.516 2.989-2.947 1.909.569-1.08.461-2.961.178-4.722l-.061-.35a32.95 32.95 0 00-.93-3.824s3.112-4.134 4.834-5.765c.641-.618 1.09-.872 1.117-.442.03.579.451 1.856.975 3.212a75.588 75.588 0 001.138 2.831c.529 1.262.951 2.203.951 2.203z" fill="#FFB0B1"/><path opacity=".1" d="M282.542 83.17a9.283 9.283 0 01-2.055 4.363 8.916 8.916 0 01-3.928 2.68 33.092 33.092 0 00-.991-4.174s5.86-7.782 5.951-6.207c.021.597.478 1.921 1.023 3.338zm-6.567 9.122l.758-1.098s.503 3.15 2.351 1.76c1.848-1.389 1.938 10.456 1.938 10.456l-1.983 30.488-14.333-.882.406-14.732 1.623-7.426 4.012-10.796 2.387-3.568 2.841-4.202z" fill="#000"/><path d="M281.022 103.599l-1.806 27.566-.189 2.921-7.991-.492-.301-.018-6.02-.371.406-14.735 1.623-7.426 4.012-10.796 2.386-3.568 2.842-4.218.758-1.095s.503 3.15 2.351 1.76l.039-.027c1.806-1.176 1.89 10.499 1.89 10.499z" fill="#1D2366"/><path d="M266.945 108.463s-.719 1.547-2.164 1.296c-1.444-.25-1.441 5.57-1.441 5.57s-.961.928-1.623.124c-.662-.805-2.408 1.915-2.408 1.915l-10.937.495s4.867 2.287 3.913 9.206c0 0 16.523-1.052 17.065-2.658.542-1.606-2.405-15.948-2.405-15.948z" fill="#fff"/><path opacity=".03" d="M266.945 108.463s-.719 1.547-2.164 1.296c-1.444-.25-1.441 5.57-1.441 5.57s-.961.928-1.623.124c-.662-.805-2.408 1.915-2.408 1.915l-10.937.495s4.867 2.287 3.913 9.206c0 0 16.523-1.052 17.065-2.658.542-1.606-2.405-15.948-2.405-15.948z" fill="#000"/><path d="M235.159 121.499l2.883 2.531 23.736 5.127-2.944-3.088-23.675-4.57zm40.861-28.232c-.395.619-1.523 3.787-2.465 6.554-.786 2.305-1.442 4.332-1.442 4.332s-1.532 10.254-2.314 12.107c-.783 1.854-.359 9.082-.359 9.082l-2.916 17.851s-1.321 9.205-3.362 14.704c-2.014 5.412-4.256 7.949-4.325 8.029.903-1.256 5.824-25.991 5.824-25.991l1.625-31.197s.238-2.964.479-5.498c.24-2.534 5.116-5.994 5.116-5.994l4.702-6.872c.472.65.156 1.782-.563 2.893z" fill="#fff"/><path d="M263.761 133.359s-6.923-.309-10.275-4.449c-3.353-4.14 7.75-1.653 7.75-1.653l2.886.681-.361 5.421z" fill="#FFB0B1"/><path opacity=".1" d="M296.089 180.742a9.264 9.264 0 00-.174 4.143c-7.552.551-15.63-1.547-15.63-1.547-1.505 1.423-5.469 3.521-5.469 3.521l-2.161-27.539c-1.382-3.713-1.923-23.167-1.923-23.167s.123-1.018.301-2.543c0-.037 0-.077.015-.115.538-4.26 1.607-12.259 2.131-13.339.722-1.485-2.222-5.437-2.222-5.437l1.34-11.742.162-1.417c2.823-1.297 4.987-5.437 4.987-5.437l1.662-2.992c1.806-1.192 1.899 10.483 1.899 10.483l-1.806 27.567 5.984-1.699s11.924 47.738 10.904 51.26z" fill="#000"/><path d="M303.839 182.645c-8.231 4.202-23.193.309-23.193.309-1.505 1.423-5.469 3.521-5.469 3.521l-2.164-27.539c-1.378-3.713-1.92-23.166-1.92-23.166s1.739-14.515 2.462-15.998c.21-.433.108-1.076-.142-1.77a22.97 22.97 0 01-1.318-10.362l.578-5.047.159-1.414c2.827-1.3 4.991-5.44 4.991-5.44l1.505-2.71 2.769-4.994 1.312-2.364.223.207 1.7 1.584s.722.62 1.806 1.547c2.357 2.043 6.429 5.638 8.53 7.838 1.848 1.937 2.432 9.472 2.6 15.143.112 3.735.045 6.662.045 6.662-1.863 3.153 3.01 28.467 3.01 28.467 1.135 4.892 2.516 35.526 2.516 35.526z" fill="#fff"/><path opacity=".03" d="M288.038 95.677s-5.649 11.056-4.993 15.258c.656 4.202 2.522 8.958 1.622 10.069a3.349 3.349 0 01-1.168.998 3.244 3.244 0 01-1.478.36c-.903.062-3.31 1.792-3.31 1.978 0 .185-2.225.185-4.214 1.052-1.99.866-4.927 1.358-4.927 1.358s-5.719-.186-6.251.371c-.533.557-1.081 3.89.06 6.548 1.14 2.658 2.408 4.641 3.365 5.003.957.362 7.031-1.73 11.958-2.225 4.927-.495 10.275-4.508 10.275-4.508s5.89-2.166 6.922-5.808c1.033-3.642-1.261-23.659-1.261-23.659s-1.733-9.329-6.6-6.794z" fill="#000"/><path opacity=".03" d="M287.316 94.75s-5.65 11.058-4.988 15.257c.662 4.199 2.522 8.958 1.62 10.072a3.354 3.354 0 01-1.166.999 3.227 3.227 0 01-1.477.359c-.903.062-3.311 1.792-3.311 1.977 0 .186-2.224.186-4.214 1.049-1.989.864-4.927 1.359-4.927 1.359s-5.718-.186-6.248.371c-.53.557-1.083 3.893.06 6.547 1.144 2.655 2.408 4.642 3.365 5.004.957.362 7.031-1.73 11.958-2.222 4.927-.492 10.276-4.511 10.276-4.511s5.887-2.166 6.907-5.805c1.02-3.639-1.261-23.662-1.261-23.662s-1.728-9.326-6.594-6.795z" fill="#000"/><path d="M287.86 95.12s-5.649 11.059-4.987 15.258c.662 4.199 2.522 8.958 1.622 10.069a3.332 3.332 0 01-1.166 1.001c-.459.237-.966.36-1.479.361-.903.061-3.311 1.791-3.311 1.974 0 .182-2.221.185-4.214 1.052-1.992.866-4.927 1.358-4.927 1.358s-5.718-.186-6.251.371c-.533.557-1.081 3.893.06 6.548 1.141 2.655 2.408 4.641 3.365 5.003.957.362 7.031-1.729 11.958-2.225 4.927-.495 10.275-4.508 10.275-4.508s5.891-2.166 6.923-5.808-1.246-23.659-1.246-23.659-1.758-9.313-6.622-6.794z" fill="#fff"/><path opacity=".1" d="M287.737 124.782s-4.515-.928-2.944.619c1.571 1.547 1.562 2.902 3.486 2.84 1.923-.062-.542-3.459-.542-3.459zm7.63 33.288s-2.041 1.42 1.863 4.694-1.863-4.694-1.863-4.694zm-3.895 11.675c0 .185-.722 6.807 1.98 8.462 2.703 1.656-1.98-8.462-1.98-8.462z" fill="#000"/><path d="M248.559 117.848c-2.18.077-6.887.761-4.446 5.443 2.158 4.143 5.785 1.373 7.825-.728a7.891 7.891 0 00-3.379-4.715zm3.407 4.679l.09-.097-.09.097z" fill="#FFB0B1"/><path opacity=".1" d="M287.138 89.198c-2.312 1.625-4.25 2.995-4.629 3.28-1.035.789-3.01 5.421-4.283 7.785-1.014 1.903-4.31 2.392-5.553 2.513l.16-1.415c2.826-1.299 4.99-5.44 4.99-5.44l5.586-10.068 1.923 1.798 1.806 1.547z" fill="#000"/><path d="M287.138 89.012c-2.312 1.625-4.25 2.995-4.629 3.283-1.035.786-3.01 5.418-4.283 7.782-1.014 1.903-4.31 2.392-5.553 2.513l.16-1.414c2.826-1.3 4.99-5.44 4.99-5.44l5.586-10.069 1.923 1.792s.722.612 1.806 1.553z" fill="#DCE7FF"/><path d="M282.69 81.128a9.342 9.342 0 01-1.572 5.202 8.93 8.93 0 01-5.075 3.673 8.704 8.704 0 01-6.177-.616 9.072 9.072 0 01-4.294-4.607 9.42 9.42 0 01-.335-6.372 9.15 9.15 0 013.786-5.056 8.73 8.73 0 016.078-1.296 8.864 8.864 0 015.43 3.09 9.337 9.337 0 012.159 5.982z" fill="#FFB0B1"/><path opacity=".1" d="M298.268 111.993a8.066 8.066 0 01-2.88-3.181c-.503-1.021-.837-2.2-1.695-2.924-.773-.65-1.806-.807-2.769-1.098-3.166-.963-5.821-3.933-5.92-7.324-.048-1.597.436-3.19.217-4.772a5.358 5.358 0 00-1.006-2.46 8.428 8.428 0 00-.869-.962c-.422-.408-.864-.804-1.249-1.238a4.772 4.772 0 01-.632-.881 4.255 4.255 0 01-.347-.82c-.602-1.894-.054-4.14-.716-6.056l-.036-.105c-.25-.68-.759-1.361-1.466-1.414-.707-.053-1.312.55-1.986.82-1.412.563-2.935-.396-4.112-1.374-1.176-.978-2.504-2.095-4-1.878-.99.145-1.772.839-2.684 1.197a3.705 3.705 0 01-.635.19 9.09 9.09 0 014.01-4.64 8.71 8.71 0 015.966-.954 8.883 8.883 0 015.191 3.17 9.33 9.33 0 012.039 5.842 9.33 9.33 0 01-.195 1.916 75.588 75.588 0 001.138 2.831l1.7 1.584 1.806 1.547c2.357 2.042 6.429 5.638 8.53 7.838 1.848 1.943 2.426 9.474 2.6 15.146z" fill="#000"/><path d="M266.012 71.87c.431-.9.644-1.909 1.159-2.763.756-1.238 2.074-2.03 3.428-2.51 3.537-1.252 11.01-3.072 13.243 0 .44.62.804 1.306 1.412 1.733.463.325 1.023.465 1.532.709 1.423.687 2.332 2.185 2.817 3.713.485 1.529.629 3.169.984 4.744.455 2.02 1.252 3.936 2.047 5.839.936 2.246 1.929 4.576 3.735 6.163 2.465 2.166 3.01 5.233 5.297 7.61 2.709 2.821 2.622 7.478 1.225 11.176-.183.485-.391.993-.319 1.51.072.516.446.987.798 1.398l1.481 1.718c-3.504.869-7.468-1.012-9.099-4.314-.503-1.021-.837-2.197-1.698-2.924-.77-.65-1.805-.804-2.766-1.095-3.166-.966-5.82-3.939-5.92-7.33-.048-1.594.437-3.188.217-4.766a5.343 5.343 0 00-1.008-2.475c-.828-1.111-2.077-1.857-2.751-3.094-1.141-2.07-.274-4.76-1.096-6.981-.253-.68-.758-1.362-1.466-1.414-.707-.053-1.312.55-1.989.82-1.409.563-2.932-.393-4.108-1.374-1.177-.981-2.505-2.095-4.003-1.875-.991.142-1.77.835-2.682 1.197-.674.266-2.041.505-2.631-.08-1.246-1.18 1.641-4.233 2.161-5.335z" fill="#591D4B"/><path opacity=".1" d="M296.589 107.575c-.506-1.021-.837-2.197-1.698-2.921-.77-.65-1.806-.808-2.769-1.099-3.163-.962-5.818-3.936-5.92-7.327-.048-1.593.436-3.19.22-4.768a5.371 5.371 0 00-1.009-2.46c-.83-1.11-2.079-1.857-2.751-3.094-1.14-2.067-.273-4.756-1.098-6.98-.25-.679-.759-1.36-1.463-1.415-.704-.056-1.315.554-1.989.823-1.409.563-2.935-.396-4.109-1.374-1.174-.978-2.507-2.095-4.003-1.878-.99.145-1.772.839-2.681 1.198-.675.266-2.044.507-2.634-.078-1.24-1.238 1.646-4.285 2.164-5.38.43-.904.644-1.91 1.162-2.764.027-.046.057-.093.087-.14-.387.33-.721.721-.99 1.158-.515.854-.728 1.857-1.159 2.763-.521 1.096-3.407 4.153-2.164 5.381.602.588 1.956.347 2.631.08.903-.361 1.691-1.055 2.681-1.197 1.505-.22 2.83.897 4.003 1.875 1.174.978 2.709 1.937 4.112 1.374.674-.27 1.264-.876 1.986-.82.722.056 1.204.733 1.466 1.414.822 2.222-.045 4.91 1.095 6.98.675 1.217 1.924 1.978 2.751 3.095a5.345 5.345 0 011.009 2.475c.219 1.579-.265 3.172-.217 4.766.099 3.403 2.754 6.364 5.92 7.33.954.291 1.996.445 2.766 1.095.864.727 1.204 1.903 1.698 2.924 1.631 3.302 5.595 5.183 9.098 4.314l-.698-.811c-3.037.046-6.11-1.73-7.497-4.539z" fill="#000"/><path opacity=".1" d="M275.839 93.453c-.394.618-1.523 3.787-2.465 6.553-.882-.352-1.682-2.602-1.682-2.602l4.701-6.876c.482.681.166 1.81-.554 2.925z" fill="#000"/><path d="M276.02 93.267c-.394.619-1.523 3.787-2.465 6.554-.882-.35-1.683-2.603-1.683-2.603l4.702-6.872c.481.677.165 1.81-.554 2.92z" fill="#DCE7FF"/><path d="M248.685 124.878l-2.607-8.451a.805.805 0 01.237-.844.752.752 0 01.847-.096.784.784 0 01.379.461l2.607 8.441-.259 1.767-1.204-1.278z" fill="#BE8B87"/><path opacity=".1" d="M246.325 115.685a.75.75 0 01.587.052.788.788 0 01.38.462l2.606 8.441-.196 1.324.19.204.259-1.767-2.622-8.441a.784.784 0 00-.378-.46.747.747 0 00-.985.256c.051-.028.104-.052.159-.071z" fill="#fff"/><path d="M248.685 124.878l1.463-.477-.214 1.449-.045.318-.428-.458-.776-.832z" fill="#EFC8C4"/><path d="M249.461 125.71a.313.313 0 01.094-.08.128.128 0 01.141 0 .337.337 0 01.051.083.254.254 0 00.187.127l-.045.31-.428-.44z" fill="#727A9C"/><path d="M246.063 119.429s5.228-.031 3.997 2.256c-1.231 2.286-3.154 2.562-3.154 2.562l-.843-4.818z" fill="#FFB0B1"/><path d="M213.549 16.808h-.226c-8.981 0-16.924 4.886-21.493 12.095-4.569-7.21-12.511-12.095-21.493-12.095h-.225c-6.741.066-13.183 2.864-17.928 7.786-4.745 4.922-7.408 11.57-7.412 18.5 0 8.605 3.666 20.815 10.814 30.862 13.62 19.144 36.244 35.893 36.244 35.893s22.625-16.746 36.241-35.893c7.151-10.047 10.814-22.257 10.814-30.862-.004-6.93-2.667-13.577-7.411-18.5-4.744-4.92-11.186-7.72-17.925-7.786zm-3.23 58.62a4.975 4.975 0 01-2.862-.923 5.192 5.192 0 01-1.854-2.424h-5.37a1.668 1.668 0 01-.984-.332 1.747 1.747 0 01-.614-.857l-1.649-5.108-5.219 18.748a1.74 1.74 0 01-.606.904 1.66 1.66 0 01-1.013.349h-.106a1.643 1.643 0 01-1.029-.433 1.73 1.73 0 01-.536-1.003l-5.378-33.257-3.931 19.68c-.09.373-.299.706-.595.943a1.646 1.646 0 01-1.033.365h-7.564a1.637 1.637 0 01-.665-.11 1.672 1.672 0 01-.57-.369 1.746 1.746 0 01-.518-1.249 1.746 1.746 0 01.518-1.249 1.672 1.672 0 011.235-.479h6.239l5.569-26.459a1.74 1.74 0 01.624-.98 1.657 1.657 0 012.144.092c.291.269.483.633.542 1.03l5.493 33.926 4.677-16.774c.098-.353.304-.665.587-.888.284-.223.63-.346.987-.35h.034c.353 0 .698.115.984.329.287.213.5.514.611.86l2.982 9.224h4.088a5.189 5.189 0 011.528-2.334 4.985 4.985 0 012.488-1.17 4.92 4.92 0 012.717.339c.858.367 1.6.972 2.145 1.746a5.28 5.28 0 01.943 2.64 5.324 5.324 0 01-.537 2.759 5.134 5.134 0 01-1.859 2.064 4.943 4.943 0 01-2.634.763l-.009-.013z" fill="#EC5863"/></g><defs><linearGradient id="paint0_linear_6_207" x1="108.348" y1="240.662" x2="108.348" y2="50.26" gradientUnits="userSpaceOnUse"><stop stop-color="gray" stop-opacity=".25"/><stop offset=".54" stop-color="gray" stop-opacity=".12"/><stop offset="1" stop-color="gray" stop-opacity=".1"/></linearGradient><linearGradient id="paint1_linear_6_207" x1="67184.1" y1="143662" x2="67184.1" y2="45926.8" gradientUnits="userSpaceOnUse"><stop stop-color="gray" stop-opacity=".25"/><stop offset=".54" stop-color="gray" stop-opacity=".12"/><stop offset="1" stop-color="gray" stop-opacity=".1"/></linearGradient></defs></svg>