<svg width="41" height="42" viewBox="0 0 41 42" fill="none" xmlns="http://www.w3.org/2000/svg">
<path d="M14.3442 6.41954C15.7829 5.89102 17.3513 6.56094 17.8465 7.91518C18.2256 8.95202 17.8653 10.0885 17.0312 10.802L17.4653 12.0354L18.1676 12.8608C18.3279 13.0497 18.5732 13.1379 18.8202 13.1041C19.4861 13.0127 20.1471 13.0015 20.7936 13.0628C21.0127 13.0838 21.2317 13.0075 21.3907 12.85L21.9089 12.3389L22.2985 11.2149C21.9813 10.7698 21.8785 10.1765 22.075 9.60915C22.4086 8.64738 23.4711 8.13943 24.4075 8.52016C25.2142 8.84773 25.6456 9.75858 25.3997 10.6141C25.2434 11.159 24.8579 11.5704 24.3865 11.7775L23.9551 13.0231L24.0436 13.7055C24.074 13.94 24.2091 14.1436 24.4083 14.2642C25.0781 14.6719 25.692 15.1727 26.2295 15.7538C26.4101 15.9494 26.6817 16.0309 26.9441 15.974L28.2949 15.6824L29.8266 14.8051C29.8422 14.0436 30.2501 13.3026 30.9586 12.8967C32.0299 12.2833 33.3748 12.6703 33.9311 13.7634C34.4333 14.7496 34.0989 16.001 33.1646 16.6234C32.435 17.1085 31.5509 17.1018 30.8725 16.7035L29.3318 17.5855L28.4669 18.5198C28.2348 18.7705 28.1494 19.122 28.2336 19.4491C28.2341 19.451 28.2345 19.4523 28.235 19.4543C28.379 20.018 28.4642 20.5852 28.4961 21.1482C28.5144 21.4835 28.6982 21.7832 28.9892 21.94L30.0994 22.5383L32.308 22.9356C32.7016 22.5854 33.2407 22.4118 33.7887 22.5098C34.7714 22.6869 35.3951 23.6698 35.1326 24.6703C34.9069 25.527 34.0734 26.1056 33.2091 26.0043C32.6197 25.9352 32.1469 25.5804 31.8959 25.0986L29.673 24.6992L28.2975 24.8859C28.0439 24.9209 27.8212 25.0847 27.7155 25.3217C27.295 26.2577 26.719 27.1207 26.0112 27.8683C25.8353 28.0541 25.7674 28.3178 25.828 28.5632L26.1557 29.8991L26.9849 31.2288C27.9135 31.0764 28.8741 31.471 29.4006 32.3157C30.1084 33.4503 29.7666 34.9684 28.6392 35.7199C27.5124 36.4712 25.9926 36.1688 25.2706 35.0485C24.765 34.2643 24.7694 33.2891 25.1937 32.5103L24.3134 31.099L23.2226 30.1948C23.061 30.0601 22.8394 30.0267 22.6399 30.101C22.4184 30.1836 22.1927 30.2577 21.9619 30.3228C20.7082 30.6769 19.4471 30.736 18.2502 30.5434C18.0748 30.5156 17.8945 30.5686 17.7588 30.6884L17.1631 31.2158L16.7128 32.3176C17.005 32.7808 17.0748 33.3793 16.8479 33.9352C16.4622 34.8786 15.3747 35.3266 14.4621 34.8935C13.6761 34.5207 13.2956 33.5858 13.5877 32.7442C13.7737 32.2082 14.1799 31.8186 14.6616 31.6383L15.1605 30.4171L15.0811 29.3509C14.2096 28.8047 13.4363 28.0996 12.8066 27.2627L11.3048 27.4312L9.89333 28.1523C9.8927 29.1071 9.39866 30.0216 8.54334 30.4718C7.33474 31.1073 5.86359 30.5757 5.25782 29.2838C4.6522 27.9925 5.14017 26.4304 6.34876 25.7948C7.2532 25.3191 8.30406 25.4969 9.02973 26.1581L10.3608 25.4776L11.2901 24.4671C11.3509 24.401 11.374 24.3088 11.3521 24.2231L11.3518 24.2218C10.9434 22.624 11.0034 21.0032 11.4447 19.5088C11.4685 19.4268 11.4522 19.3389 11.3986 19.2745L10.6155 18.3242L8.91656 17.4362C8.44389 17.6519 7.88608 17.6581 7.39819 17.4029C6.5168 16.9417 6.20906 15.8129 6.74631 14.9276C7.21796 14.1513 8.20874 13.8467 9.0068 14.2319C9.52339 14.4811 9.85343 14.9551 9.94703 15.4826L11.646 16.3705L12.8608 16.4717C12.9451 16.4789 13.0277 16.4418 13.082 16.3746C13.6405 15.6774 14.3033 15.06 15.0542 14.5509C15.2602 14.4105 15.3897 14.1805 15.3955 13.9316L15.4195 12.8127L14.9564 11.4984C13.924 11.4356 12.9958 10.8129 12.6355 9.82807C12.1403 8.47383 12.9054 6.94742 14.3442 6.41954Z" fill="#EC5863"/>
<path d="M26.0443 20.0765C25.1575 16.6071 21.6405 14.5847 18.1887 15.5594C14.7369 16.5341 12.6575 20.1368 13.5443 23.6062C14.431 27.0756 17.9481 29.098 21.3998 28.1233C24.8516 27.1486 26.931 23.5459 26.0443 20.0765Z" fill="#F58A97"/>
<path d="M20.9389 26.2386C17.8281 27.1053 14.6537 25.51 13.4175 22.617C13.451 22.9428 13.5092 23.2699 13.5935 23.5959C14.4911 27.0711 18.0014 29.1129 21.4343 28.1565C24.8671 27.2001 26.9222 23.6078 26.0246 20.1326C25.9404 19.8066 25.8332 19.4932 25.7053 19.1937C26.029 22.3407 24.0496 25.372 20.9389 26.2386Z" fill="#F07281"/>
<path d="M11.3374 35.5953C11.0836 34.6058 10.0821 34.0274 9.10032 34.3034C8.11856 34.5795 7.52836 35.6054 7.78208 36.5949C8.03581 37.5844 9.03737 38.1628 10.0191 37.8868C11.0009 37.6107 11.5911 36.5848 11.3374 35.5953Z" fill="#EB5569"/>
<path d="M34.1194 29.8758C33.9518 29.2222 33.2903 28.8402 32.6418 29.0225C31.9933 29.2048 31.6035 29.8825 31.7711 30.5361C31.9387 31.1896 32.6002 31.5717 33.2487 31.3893C33.8971 31.207 34.287 30.5294 34.1194 29.8758Z" fill="#EB5569"/>
<path d="M30.8558 7.27703C30.609 6.31434 29.6346 5.75164 28.6794 6.02021C27.7243 6.28877 27.1501 7.28689 27.397 8.24958C27.6438 9.21226 28.6182 9.77496 29.5733 9.5064C30.5285 9.23784 31.1027 8.23971 30.8558 7.27703Z" fill="#EB5569"/>
<path d="M20.2076 23.805C19.9774 22.9075 19.069 22.3829 18.1785 22.6332C17.288 22.8836 16.7527 23.8142 16.9828 24.7117C17.213 25.6092 18.1214 26.1338 19.0119 25.8834C19.9024 25.6331 20.4377 24.7025 20.2076 23.805Z" fill="#EB5569"/>
<path d="M24.319 21.2696C24.1624 20.6587 23.544 20.3017 22.9379 20.4721C22.3318 20.6425 21.9675 21.2759 22.1241 21.8868C22.2807 22.4977 22.8991 22.8548 23.5052 22.6843C24.1113 22.5139 24.4757 21.8805 24.319 21.2696Z" fill="#EB5569"/>
<path d="M19.9647 18.7109C19.8332 18.1979 19.314 17.898 18.805 18.0412C18.296 18.1843 17.9901 18.7161 18.1216 19.2291C18.2531 19.7421 18.7724 20.0419 19.2813 19.8988C19.7903 19.7557 20.0963 19.2239 19.9647 18.7109Z" fill="#EB5569"/>
</svg>
