<svg width="548" height="407" viewBox="0 0 548 407" fill="none" xmlns="http://www.w3.org/2000/svg">
<path opacity="0.6" d="M318.251 72.2261C283.183 70.97 249.758 59.3019 217.888 46.5385C186.019 33.7752 154.431 19.6312 120.185 12.8681C98.1664 8.51328 72.9852 7.9008 55.2475 20.0672C38.1746 31.7717 32.6599 51.9781 29.6935 70.7261C27.4625 84.8337 26.1682 99.6784 32.2671 112.888C36.5126 122.054 44.0469 129.762 49.2594 138.545C67.3899 169.101 54.5726 206.783 34.9212 236.644C25.7048 250.658 15.0129 263.993 7.90167 278.894C0.790478 293.796 -2.50323 310.868 3.72158 326.065C9.89099 341.118 24.5868 352.443 40.5114 360.4C72.8542 376.548 110.964 381.167 148.126 383.814C230.388 389.612 313.094 387.1 395.572 384.588C426.097 383.653 456.758 382.714 486.784 377.84C503.459 375.136 520.678 370.848 532.785 360.499C548.151 347.356 551.963 325.11 541.664 308.63C524.39 280.997 476.631 274.13 464.554 244.471C457.911 228.147 464.735 209.96 474.395 194.819C495.109 162.343 529.839 133.847 531.667 96.7198C532.926 71.2192 516.231 45.6873 490.415 33.6195C463.36 20.96 425.84 22.5586 405.882 43.4814C385.329 65.0373 349.209 73.3317 318.251 72.2261Z" fill="#587EEC"/>
<path d="M122.436 376.911C122.436 376.911 94.7368 355.329 89.5042 327.877C87.3822 316.347 81.6903 305.837 73.2824 297.923C69.2602 294.2 64.9159 290.864 60.304 287.957" stroke="#9AB1F3" stroke-width="2" stroke-miterlimit="10"/>
<path d="M56.9146 270.662C59.342 274.047 60.4399 288.388 60.4399 288.388C60.4399 288.388 47.4615 283.12 45.029 279.741C43.8609 278.116 43.3668 276.08 43.6554 274.08C43.9439 272.08 44.9915 270.281 46.5676 269.077C48.1437 267.873 50.1193 267.364 52.0597 267.661C54.0002 267.958 55.7465 269.038 56.9146 270.662Z" fill="#587EEC"/>
<path d="M80.1922 281.915C80.444 286.114 73.8113 298.769 73.8113 298.769C73.8113 298.769 65.6878 287.069 65.431 282.87C65.3333 280.868 66.0049 278.908 67.3003 277.412C68.5957 275.917 70.4105 275.009 72.3515 274.883C74.2925 274.757 76.2034 275.425 77.6701 276.741C79.1367 278.058 80.0411 279.916 80.1872 281.915H80.1922Z" fill="#587EEC"/>
<path d="M102.755 314.262C100.921 318.02 88.9905 325.494 88.9905 325.494C88.9905 325.494 87.7163 311.169 89.5495 307.411C90.4519 305.644 91.9914 304.312 93.8368 303.703C95.6821 303.094 97.6857 303.256 99.4164 304.154C101.147 305.052 102.467 306.614 103.091 308.504C103.715 310.395 103.594 312.463 102.755 314.262Z" fill="#587EEC"/>
<path d="M114.484 342.685C113.29 346.708 102.759 356.149 102.759 356.149C102.759 356.149 99.1484 342.254 100.342 338.227C100.916 336.294 102.211 334.675 103.943 333.727C105.674 332.778 107.701 332.577 109.576 333.168C111.451 333.76 113.022 335.095 113.942 336.879C114.863 338.664 115.058 340.752 114.484 342.685Z" fill="#587EEC"/>
<path d="M61.8047 308.942C65.8337 309.503 78.5704 303.575 78.5704 303.575C78.5704 303.575 67.8231 294.398 63.7739 293.838C61.8305 293.569 59.8629 294.106 58.304 295.332C56.7452 296.558 55.7227 298.372 55.4616 300.375C55.2004 302.378 55.722 304.406 56.9116 306.013C58.1012 307.619 59.8613 308.673 61.8047 308.942Z" fill="#587EEC"/>
<path d="M75.9314 342.01C79.9604 341.299 90.3703 331.723 90.3703 331.723C90.3703 331.723 77.4473 326.283 73.4233 326.994C72.4599 327.157 71.5373 327.515 70.7088 328.047C69.8802 328.579 69.1622 329.275 68.5961 330.095C68.0299 330.915 67.6269 331.842 67.4103 332.823C67.1937 333.804 67.1678 334.82 67.3341 335.811C67.5003 336.803 67.8555 337.75 68.379 338.6C68.9026 339.449 69.5842 340.183 70.3844 340.759C71.1847 341.336 72.0877 341.743 73.0415 341.958C73.9953 342.172 74.9809 342.19 75.9415 342.01H75.9314Z" fill="#587EEC"/>
<path d="M93.936 372.214C98.0204 372.214 109.856 364.589 109.856 364.589C109.856 364.589 98.0153 356.974 93.9309 356.974C91.9701 356.974 90.0896 357.777 88.7031 359.206C87.3166 360.635 86.5377 362.573 86.5377 364.594C86.5377 366.615 87.3166 368.553 88.7031 369.982C90.0896 371.411 91.9701 372.214 93.9309 372.214H93.936Z" fill="#587EEC"/>
<path d="M391.523 190.247C391.523 190.247 408.596 159.078 434.331 150.099C445.138 146.4 454.489 139.19 460.983 129.55C464.029 124.941 466.657 120.053 468.835 114.949" stroke="#9AB1F3" stroke-width="2" stroke-miterlimit="10"/>
<path d="M484.991 109.239C482.06 112.167 468.417 115.198 468.417 115.198C468.417 115.198 471.766 101.236 474.697 98.303C476.112 96.9378 477.99 96.1998 479.928 96.2478C481.865 96.2959 483.707 97.1261 485.056 98.5597C486.406 99.9934 487.155 101.916 487.143 103.913C487.131 105.911 486.358 107.823 484.991 109.239Z" fill="#587EEC"/>
<path d="M477.275 134.48C473.246 135.301 460.218 130.204 460.218 130.204C460.218 130.204 470.391 120.342 474.395 119.537C475.356 119.317 476.35 119.298 477.319 119.479C478.288 119.661 479.212 120.04 480.037 120.594C480.861 121.149 481.57 121.868 482.122 122.709C482.673 123.55 483.056 124.495 483.248 125.491C483.44 126.486 483.437 127.511 483.239 128.505C483.041 129.5 482.653 130.443 482.097 131.281C481.54 132.118 480.827 132.832 479.999 133.382C479.171 133.931 478.245 134.305 477.275 134.48Z" fill="#587EEC"/>
<path d="M449.193 161.824C445.336 160.448 436.567 149.258 436.567 149.258C436.567 149.258 450.165 146.05 454.033 147.426C454.962 147.743 455.821 148.248 456.56 148.911C457.298 149.573 457.902 150.38 458.335 151.285C458.768 152.19 459.023 153.175 459.084 154.182C459.145 155.189 459.012 156.198 458.691 157.152C458.371 158.105 457.87 158.984 457.217 159.736C456.565 160.488 455.773 161.099 454.89 161.534C454.006 161.969 453.048 162.218 452.07 162.268C451.092 162.318 450.114 162.167 449.193 161.824Z" fill="#587EEC"/>
<path d="M423.388 177.582C419.359 176.897 408.903 167.372 408.903 167.372C408.903 167.372 421.791 161.839 425.815 162.524C427.752 162.853 429.483 163.961 430.627 165.604C431.771 167.248 432.235 169.292 431.916 171.289C431.598 173.285 430.523 175.068 428.928 176.248C427.334 177.427 425.35 177.905 423.413 177.577L423.388 177.582Z" fill="#587EEC"/>
<path d="M448.841 119.288C448.836 123.497 456.244 135.711 456.244 135.711C456.244 135.711 463.642 123.513 463.642 119.309C463.668 118.292 463.496 117.28 463.136 116.332C462.776 115.385 462.236 114.522 461.547 113.793C460.858 113.064 460.035 112.485 459.126 112.09C458.216 111.694 457.239 111.49 456.252 111.49C455.265 111.49 454.287 111.694 453.378 112.09C452.468 112.485 451.645 113.064 450.956 113.793C450.267 114.522 449.727 115.385 449.367 116.332C449.007 117.28 448.835 118.292 448.861 119.309L448.841 119.288Z" fill="#587EEC"/>
<path d="M418.91 138.109C420.129 142.126 430.725 151.495 430.725 151.495C430.725 151.495 434.251 137.574 433.022 133.557C432.385 131.695 431.071 130.161 429.359 129.278C427.646 128.395 425.668 128.231 423.84 128.821C422.013 129.411 420.478 130.708 419.561 132.441C418.643 134.173 418.414 136.205 418.92 138.109H418.91Z" fill="#587EEC"/>
<path d="M392.284 160.516C392.828 164.668 401.732 175.76 401.732 175.76C401.732 175.76 407.478 162.654 406.934 158.486C406.826 157.476 406.523 156.499 406.044 155.612C405.564 154.724 404.917 153.944 404.14 153.319C403.364 152.693 402.473 152.233 401.522 151.967C400.571 151.701 399.577 151.633 398.6 151.769C397.623 151.904 396.683 152.239 395.833 152.755C394.984 153.271 394.243 153.956 393.654 154.771C393.066 155.586 392.641 156.514 392.406 157.501C392.171 158.487 392.129 159.512 392.284 160.516Z" fill="#587EEC"/>
<path opacity="0.25" d="M484.991 109.239C482.06 112.167 468.417 115.198 468.417 115.198C468.417 115.198 471.766 101.236 474.697 98.303C476.112 96.9378 477.99 96.1998 479.928 96.2478C481.865 96.2959 483.707 97.1261 485.056 98.5597C486.406 99.9934 487.155 101.916 487.143 103.913C487.131 105.911 486.358 107.823 484.991 109.239Z" fill="black"/>
<path opacity="0.25" d="M477.275 134.48C473.246 135.301 460.218 130.204 460.218 130.204C460.218 130.204 470.391 120.342 474.395 119.537C475.356 119.317 476.35 119.298 477.319 119.479C478.288 119.661 479.212 120.04 480.037 120.594C480.861 121.149 481.57 121.868 482.122 122.709C482.673 123.55 483.056 124.495 483.248 125.491C483.44 126.486 483.437 127.511 483.239 128.505C483.041 129.5 482.653 130.443 482.097 131.281C481.54 132.118 480.827 132.832 479.999 133.382C479.171 133.931 478.245 134.305 477.275 134.48Z" fill="black"/>
<path opacity="0.25" d="M449.193 161.824C445.336 160.448 436.567 149.258 436.567 149.258C436.567 149.258 450.165 146.05 454.033 147.426C454.962 147.743 455.821 148.248 456.56 148.911C457.298 149.573 457.902 150.38 458.335 151.285C458.768 152.19 459.023 153.175 459.084 154.182C459.145 155.189 459.012 156.198 458.691 157.152C458.371 158.105 457.87 158.984 457.217 159.736C456.565 160.488 455.773 161.099 454.89 161.534C454.006 161.969 453.048 162.218 452.07 162.268C451.092 162.318 450.114 162.167 449.193 161.824Z" fill="black"/>
<path opacity="0.25" d="M423.388 177.582C419.359 176.897 408.903 167.372 408.903 167.372C408.903 167.372 421.791 161.839 425.815 162.524C427.752 162.853 429.483 163.961 430.627 165.604C431.771 167.248 432.235 169.292 431.916 171.289C431.598 173.285 430.523 175.068 428.928 176.248C427.334 177.427 425.35 177.905 423.413 177.577L423.388 177.582Z" fill="black"/>
<path opacity="0.25" d="M448.841 119.288C448.836 123.497 456.244 135.711 456.244 135.711C456.244 135.711 463.642 123.513 463.642 119.309C463.668 118.292 463.496 117.28 463.136 116.332C462.776 115.385 462.236 114.522 461.547 113.793C460.858 113.064 460.035 112.485 459.126 112.09C458.216 111.694 457.239 111.49 456.252 111.49C455.265 111.49 454.287 111.694 453.378 112.09C452.468 112.485 451.645 113.064 450.956 113.793C450.267 114.522 449.727 115.385 449.367 116.332C449.007 117.28 448.835 118.292 448.861 119.309L448.841 119.288Z" fill="black"/>
<path opacity="0.25" d="M418.91 138.109C420.129 142.126 430.725 151.495 430.725 151.495C430.725 151.495 434.251 137.574 433.022 133.557C432.385 131.695 431.071 130.161 429.359 129.278C427.646 128.395 425.668 128.231 423.84 128.821C422.013 129.411 420.478 130.708 419.561 132.441C418.643 134.173 418.414 136.205 418.92 138.109H418.91Z" fill="black"/>
<path opacity="0.25" d="M392.284 160.516C392.828 164.668 401.732 175.76 401.732 175.76C401.732 175.76 407.478 162.654 406.934 158.486C406.826 157.476 406.523 156.499 406.044 155.612C405.564 154.724 404.917 153.944 404.14 153.319C403.364 152.693 402.473 152.233 401.522 151.967C400.571 151.701 399.577 151.633 398.6 151.769C397.623 151.904 396.683 152.239 395.833 152.755C394.984 153.271 394.243 153.956 393.654 154.771C393.066 155.586 392.641 156.514 392.406 157.501C392.171 158.487 392.129 159.512 392.284 160.516Z" fill="black"/>
<path d="M392.505 189.629C392.505 189.629 395.859 154.002 415.833 135.057C424.258 127.161 429.972 116.664 432.12 105.139C433.098 99.6599 433.585 94.1001 433.576 88.5294" stroke="#9AB1F3" stroke-width="2" stroke-miterlimit="10"/>
<path d="M446.096 76.5083C444.585 80.4115 433.284 88.8823 433.284 88.8823C433.284 88.8823 430.856 74.7176 432.382 70.8144C433.117 68.9401 434.544 67.4434 436.349 66.6535C438.155 65.8636 440.191 65.8452 442.009 66.6023C443.828 67.3594 445.28 68.8301 446.046 70.6907C446.813 72.5514 446.831 74.6496 446.096 76.5239V76.5083Z" fill="#587EEC"/>
<path d="M448.972 102.834C445.633 105.253 431.697 106.047 431.697 106.047C431.697 106.047 437.126 92.7907 440.465 90.372C441.257 89.7612 442.16 89.3204 443.12 89.0756C444.08 88.8308 445.078 88.7871 446.055 88.947C447.032 89.107 447.968 89.4673 448.807 90.0066C449.647 90.546 450.372 91.2534 450.942 92.0871C451.511 92.9207 451.912 93.8636 452.121 94.8599C452.331 95.8561 452.344 96.8856 452.16 97.8872C451.976 98.8889 451.6 99.8424 451.052 100.691C450.504 101.54 449.797 102.267 448.972 102.829V102.834Z" fill="#587EEC"/>
<path d="M434.034 139.572C429.965 139.925 417.546 133.344 417.546 133.344C417.546 133.344 428.726 124.728 432.795 124.375C434.75 124.205 436.689 124.843 438.187 126.147C439.685 127.452 440.619 129.316 440.783 131.33C440.947 133.344 440.328 135.342 439.063 136.886C437.797 138.43 435.988 139.393 434.034 139.562V139.572Z" fill="#587EEC"/>
<path d="M416.654 164.741C412.701 165.779 399.385 161.486 399.385 161.486C399.385 161.486 408.989 151.048 412.942 149.99C414.84 149.482 416.856 149.773 418.546 150.797C420.237 151.822 421.463 153.496 421.955 155.452C422.447 157.409 422.165 159.486 421.171 161.228C420.177 162.97 418.552 164.233 416.654 164.741Z" fill="#587EEC"/>
<path d="M417.007 100.82C418.659 104.666 430.212 112.758 430.212 112.758C430.212 112.758 432.176 98.5157 430.524 94.6696C429.701 92.8701 428.228 91.4738 426.419 90.779C424.61 90.0842 422.609 90.146 420.844 90.9512C419.079 91.7564 417.69 93.2412 416.973 95.0882C416.256 96.9352 416.268 98.998 417.007 100.836V100.82Z" fill="#587EEC"/>
<path d="M397.043 130.52C399.737 133.681 413.104 137.823 413.104 137.823C413.104 137.823 410.847 123.627 408.153 120.466C407.517 119.698 406.739 119.068 405.865 118.613C404.991 118.157 404.037 117.886 403.06 117.813C402.083 117.741 401.102 117.869 400.173 118.191C399.245 118.512 398.388 119.021 397.652 119.687C396.915 120.354 396.315 121.164 395.886 122.071C395.456 122.978 395.205 123.965 395.149 124.973C395.092 125.98 395.23 126.99 395.556 127.942C395.881 128.895 396.386 129.771 397.043 130.52Z" fill="#587EEC"/>
<path d="M381.486 162.14C383.621 165.722 396.116 172.132 396.116 172.132C396.116 172.132 396.222 157.749 394.102 154.163C393.046 152.507 391.407 151.339 389.53 150.909C387.654 150.478 385.688 150.817 384.05 151.855C382.413 152.893 381.232 154.547 380.758 156.467C380.284 158.387 380.554 160.422 381.511 162.14H381.486Z" fill="#587EEC"/>
<path d="M366.82 50.1045C367.656 46.9435 368.664 43.7669 369.369 40.5644C368.523 43.7669 367.51 46.9539 366.82 50.1045Z" fill="url(#paint0_linear_4_6)"/>
<path d="M363.073 80.5516C363.003 80.4271 362.953 80.3025 362.897 80.1883C362.897 80.1364 362.847 80.0949 362.827 80.043C362.717 80.0963 362.604 80.1431 362.489 80.1831C362.268 80.2714 362.041 80.3544 361.809 80.4219C361.578 80.4894 361.482 80.5257 361.306 80.5672C361.16 80.6191 361.01 80.659 360.857 80.6866L360.898 80.78C361.084 80.7385 361.265 80.7022 361.452 80.6503L361.502 81.2939C361.714 81.2939 361.91 81.2627 362.101 81.2627C362.192 81.2576 362.283 81.2576 362.373 81.2627C362.766 81.2627 363.109 81.2627 363.381 81.2627C363.275 81.0292 363.164 80.7852 363.073 80.5516ZM465.309 248.271C462.942 244.985 458.218 209.721 458.218 209.721C458.218 209.721 448.926 184.646 451.46 174.639C453.993 164.632 444.54 139.027 444.54 139.027C444.54 139.027 438.295 136.23 437.957 132.077C437.957 132.077 412.459 123.773 411.265 117.544C410.298 112.437 394.485 108.772 388.804 107.615C387.071 100.41 385.329 93.6887 384.044 90.019C383.697 88.8771 383.37 87.8909 383.067 87.1124C380.897 81.4029 374.188 80.8838 369.323 81.3406C369.113 80.3675 368.721 79.4456 368.17 78.626C368.09 78.3442 367.93 78.0932 367.712 77.9045C367.607 77.8128 367.496 77.7295 367.379 77.6554C367.291 77.4871 367.175 77.3361 367.037 77.209C366.899 77.0807 366.747 76.9692 366.584 76.8768C366.467 76.8115 366.345 76.7543 366.221 76.7055C365.929 76.591 365.627 76.5058 365.32 76.4512C364.961 76.3752 364.597 76.3266 364.232 76.3059C365.121 75.9051 365.913 75.308 366.553 74.5567C366.989 74.0292 367.313 73.4141 367.505 72.7504C367.665 72.1985 367.736 71.6235 367.717 71.0479C367.586 71.2851 367.434 71.5093 367.264 71.7175C367.475 69.4181 366.297 67.0824 365.622 64.7934C364.804 61.8135 364.653 58.6813 365.179 55.6323C365.853 51.0335 367.525 46.3829 368.659 41.7011C368.661 41.6752 368.661 41.6491 368.659 41.6232C369.253 39.2982 369.621 36.9178 369.757 34.5175C369.953 29.6748 368.749 24.8425 366.815 20.4306C365.098 16.5222 362.565 12.6761 358.687 11.0878C355.806 9.88882 352.578 10.0809 349.476 9.88363C342.515 9.43725 335.878 6.91469 329.26 4.62051C322.642 2.32633 315.833 0.23977 308.868 0.639435C301.903 1.0391 294.736 4.50113 291.559 10.8542C290.551 12.837 289.972 15.0429 288.769 16.9063C286.512 20.4202 282.473 22.1798 279.104 24.6038C275.735 27.0277 272.768 30.469 271.55 34.5746C270.884 36.7866 270.79 39.1393 271.278 41.4001C271.387 41.9106 271.529 42.4134 271.701 42.9053C272.179 44.2767 272.924 45.5327 273.891 46.5957C274.621 47.3813 275.459 48.0513 276.379 48.5836C277.535 49.2437 278.771 49.7396 280.056 50.0577C280.01 50.2134 279.965 50.3795 279.915 50.5404C279.834 50.8052 279.764 51.0595 279.688 51.345C279.522 51.9834 279.366 52.6322 279.235 53.2862C279.23 53.3327 279.23 53.3798 279.235 53.4263C278.616 56.3787 278.306 59.3906 278.308 62.411C278.307 63.8395 278.378 65.267 278.52 66.6879C280.534 87.7508 297.406 104.365 318.251 105.445C318.966 105.481 319.686 105.502 320.416 105.502C320.749 105.502 321.076 105.502 321.424 105.502C321.751 105.949 322.073 106.405 322.38 106.852C322.688 107.298 322.97 107.755 323.237 108.201L322.506 107.423L321.776 106.732C321.578 107.012 321.357 107.275 321.116 107.516C320.64 107.343 320.154 107.201 319.661 107.09C317.571 106.613 314.388 106.436 310.198 107.739C306.345 108.928 301.636 111.373 296.126 116.018L269.278 132.627L254.754 141.732L249.521 154.915C249.521 154.915 245.588 170.58 241.211 188.529C241.04 188.581 240.874 188.632 240.708 188.695C240.353 188.653 239.997 188.632 239.64 188.632C237.101 188.626 234.658 189.635 232.825 191.445C230.992 193.256 229.911 195.729 229.809 198.344C221.106 209.244 220.613 220.144 222.658 225.147C222.843 225.616 223.076 226.063 223.353 226.481C224.692 228.474 227.195 233.613 229.734 239.089C229.668 239.54 229.628 239.919 229.608 240.205C229.603 240.298 229.603 240.392 229.608 240.485C229.608 240.485 231.118 264.003 226.082 270.745C224.979 272.214 225.145 274.145 226.082 276.284C229.457 283.976 242.798 294.248 242.798 294.248C242.798 294.248 258.798 294.16 267.712 293.158C267.687 294.082 267.667 295 267.646 295.898C267.445 304.971 267.445 312.575 267.445 312.575L267.113 322.089C267.113 322.089 264.091 342.14 262.58 347.668C261.628 351.135 262.726 383.238 263.683 406.839H421.328C423.181 392.877 420.567 350.455 420.567 350.455C420.567 350.455 418.084 339.488 417.994 329.927C417.989 329.916 417.986 329.905 417.986 329.893C417.986 329.882 417.989 329.87 417.994 329.859C417.994 329.024 417.994 328.209 418.024 327.41L419.167 327.368L421.222 327.295H421.408C421.408 327.295 421.459 327.098 421.574 326.776C421.846 325.975 422.217 325.212 422.677 324.508C423.554 323.174 424.924 321.866 426.983 321.778C428.122 321.731 429.884 320.781 431.874 319.38C431.887 319.383 431.901 319.383 431.914 319.38C437.267 315.648 444.343 308.76 446.061 307.629C448.423 306.072 459.734 295.691 459.734 295.691C459.734 295.691 461.421 293.49 463.219 290.838L463.285 290.744C465.521 287.422 467.898 283.452 467.314 282.201C466.307 279.958 467.989 274.597 467.989 274.597C473.241 264.688 467.676 251.556 465.309 248.271ZM367.923 88.6228C367.972 88.7778 368.002 88.938 368.014 89.1003C367.888 88.929 367.762 88.7474 367.636 88.5813L367.515 88.4152L367.43 88.2906L367.621 88.0207C367.621 88.0207 367.621 88.0207 367.621 88.057C367.754 88.2253 367.856 88.417 367.923 88.6228ZM366.231 84.0241C365.682 84.1382 365.249 84.2421 364.967 84.3199C364.609 83.6659 364.267 83.0119 363.96 82.3475C364.767 82.8303 365.528 83.3917 366.231 84.0241ZM365.284 84.8441C365.283 84.8338 365.283 84.8233 365.284 84.813L365.325 84.8441C365.531 84.9843 365.733 85.1192 365.919 85.2594C366.085 85.384 366.236 85.5033 366.387 85.6279C366.287 85.8096 366.176 85.9964 366.065 86.1469C365.889 85.8615 365.722 85.5864 365.561 85.3009C365.461 85.1867 365.37 85.031 365.284 84.8441ZM362.263 78.4391C363.236 78.3402 364.216 78.3402 365.189 78.4391C365.325 78.4391 365.445 78.4651 365.566 78.4858C365.839 78.5294 366.108 78.6006 366.367 78.6987C366.962 79.5568 367.329 80.5608 367.43 81.6105L367.158 81.652L366.891 81.7039C366.387 81.7922 365.884 81.8804 365.491 81.9634L364.987 82.0724C364.317 82.223 363.93 82.3372 363.914 82.3423C363.849 82.2022 363.784 82.0724 363.713 81.9375C363.602 81.7143 363.486 81.4859 363.386 81.2627C363.285 81.0396 363.154 80.7852 363.048 80.5516C362.978 80.4271 362.927 80.3025 362.872 80.1883C362.872 80.1364 362.822 80.0949 362.801 80.043C362.772 79.9879 362.747 79.9307 362.726 79.8717C362.419 79.2281 362.137 78.5845 361.865 77.9512C361.834 77.8889 361.809 77.8215 361.784 77.7592L362.167 77.7332V77.8682L362.263 78.4391ZM242.103 400.424C242.062 392.695 241.518 384.333 240.007 376.485C239.363 373.148 238.698 369.81 238.023 366.53C237.852 365.71 237.686 364.9 237.52 364.09L235.968 364.303H235.827C231.597 343.744 227.175 325.629 227.175 325.629C227.175 325.629 218.392 291.066 219.409 288.31C219.54 287.952 219.374 286.986 219.001 285.569C216.876 277.711 208.002 256.056 204.9 248.655C204.9 248.624 204.875 248.587 204.864 248.561C204.361 247.321 203.998 246.485 203.887 246.241L204.618 235.196L204.658 234.532L204.754 233.12L204.713 233.083L204.754 232.429C204.754 232.429 197.089 225.952 184.105 221.275C183.601 221.088 183.068 220.907 182.539 220.73C183.188 216.261 184.05 211.216 185.173 206.301C185.279 205.808 185.394 205.33 185.515 204.847C185.621 204.365 185.742 203.898 185.863 203.425C186.054 202.657 186.261 201.899 186.472 201.152C187.172 200.923 187.862 200.669 188.542 200.399L188.804 200.295C197.18 196.936 204.091 190.563 208.258 182.356C212.424 174.149 213.565 164.664 211.467 155.657C210.271 150.549 208.063 145.751 204.98 141.565C204.749 141.244 204.502 140.922 204.255 140.605C204.008 140.289 203.711 139.936 203.434 139.614C204.89 136.204 206.607 132.96 206.748 129.643C206.773 129.223 206.773 128.802 206.748 128.382V128.33C206.562 126.196 205.645 124.037 203.51 121.769C200.392 118.442 195.955 116.755 191.518 115.945C187.081 115.136 182.559 115.115 178.097 114.57C170.699 113.656 163.492 111.305 156.093 110.584C146.981 109.714 137.806 111.325 129.487 115.255C123.982 117.85 118.407 122.387 118.075 128.61C117.803 133.754 121.278 138.685 120.401 143.766C119.53 148.759 114.595 152.689 115.028 157.739C115.194 159.711 116.176 161.476 117.405 163.049C117.828 163.568 118.276 164.087 118.74 164.606C120.532 166.563 122.507 168.442 123.509 170.907C123.549 171.011 123.589 171.115 123.625 171.218C124.476 173.653 124.093 176.731 121.988 178.127C122 178.136 122.008 178.149 122.013 178.163C122.043 178.205 122.074 178.236 122.099 178.277C122.102 178.269 122.102 178.26 122.099 178.252C122.845 179.164 123.851 179.81 124.974 180.099L125.402 180.234C125.055 180.624 124.728 181.028 124.395 181.454L124.179 181.75C123.624 182.519 123.119 183.325 122.668 184.163C122.411 184.631 122.164 185.098 121.958 185.565C121.267 186.989 120.768 188.503 120.472 190.065C119.933 193.501 120.694 197.082 119.878 200.446C118.87 204.598 115.683 207.785 113.885 211.642C110.48 218.908 112.409 227.436 113.094 235.461C114.026 246.361 112.515 257.307 111.009 268.135C110.21 273.893 109.411 279.656 108.612 285.424C106.597 299.902 104.583 314.38 102.568 328.858C101.833 334.162 100.962 339.758 97.5319 343.853H97.5671C97.5671 343.853 97.5671 343.884 97.5319 343.894C98.5614 344.358 99.6564 344.649 100.775 344.756C105.252 345.218 109.997 342.986 114.026 340.547C117.216 338.646 120.238 336.46 123.056 334.012C122.643 335.569 122.199 337.266 121.726 339.093C121.728 339.111 121.728 339.128 121.726 339.145C116.04 361.464 106.894 402.38 106.894 402.38C106.894 402.38 106.063 404.161 104.986 406.813H247.008C245.346 404.737 243.8 402.749 242.591 401.145L242.103 400.424ZM136.946 194.051C136.981 193.989 137.006 193.932 137.041 193.875C137.041 194.041 137.041 194.202 137.041 194.357C137.041 194.513 137.041 194.653 137.041 194.799C137.041 194.944 137.041 194.928 137.041 195.001C137.041 195.074 137.041 195.001 137.041 195.001C137.041 195.214 136.996 195.427 136.961 195.64C136.961 195.64 136.961 195.665 136.961 195.686L137.464 195.878L138.049 196.127C141.5 197.532 144.995 198.804 148.534 199.942C148.897 200.062 149.264 200.176 149.632 200.285L149.707 200.929C149.798 201.588 149.884 202.257 149.964 202.927C149.964 202.927 149.964 202.958 149.964 202.979C150.191 204.832 150.413 206.68 150.609 208.486C150.609 208.486 141.362 204.853 141.478 210.37C141.473 210.469 141.473 210.567 141.478 210.666C141.468 210.797 141.468 210.929 141.478 211.06C141.564 215.358 142.868 217.907 143.13 219.215C143.114 219.269 143.087 219.318 143.05 219.36C142.826 219.861 142.749 220.418 142.828 220.964C142.819 221.892 142.89 222.82 143.039 223.735C142.767 223.907 142.501 224.078 142.234 224.255C142.032 224.384 141.841 224.53 141.644 224.675C140.409 220.258 138.793 215.964 136.815 211.844C135.43 208.906 133.873 205.844 133.889 202.621C133.889 202.413 133.889 202.2 133.914 201.987C133.97 201.053 134.143 200.13 134.427 199.242C134.543 198.904 134.669 198.572 134.81 198.245C135.139 197.468 135.507 196.709 135.913 195.972C136.175 195.484 136.452 195.001 136.719 194.513C136.805 194.368 136.885 194.217 136.966 194.072L136.946 194.051ZM363.073 80.5516C363.003 80.4271 362.953 80.3025 362.897 80.1883C362.897 80.1364 362.847 80.0949 362.827 80.043C362.717 80.0963 362.604 80.1431 362.489 80.1831C362.268 80.2714 362.041 80.3544 361.809 80.4219C361.578 80.4894 361.482 80.5257 361.306 80.5672L360.857 80.6866L360.898 80.78C361.084 80.7385 361.265 80.7022 361.452 80.6503L361.502 81.2939C361.714 81.2939 361.91 81.2627 362.101 81.2627H362.373C362.766 81.2627 363.109 81.2627 363.381 81.2627C363.275 81.0292 363.164 80.7852 363.073 80.5516Z" fill="url(#paint1_linear_4_6)"/>
<path d="M253.031 156.789L250.01 158.164C250.01 158.164 230.313 237.028 230.313 243.402C230.313 249.776 272.078 285.242 272.078 285.242L278.595 239.909C278.595 239.909 269.238 135.949 253.031 156.789Z" fill="#E8F5FF"/>
<path d="M344.646 131.704L327.195 122.319C326.218 118.025 324.483 113.952 322.078 110.303C319.525 106.504 316.13 102.772 311.9 100.826C301.208 95.8842 357.126 69.9475 357.126 69.9475C358.006 73.0632 359.043 76.1297 360.233 79.1346C363.114 86.4635 367.893 95.9413 374.052 98.6403C384.523 103.234 344.646 131.704 344.646 131.704Z" fill="#FFB0B1"/>
<path opacity="0.1" d="M360.233 79.1346C357.844 87.7948 352.875 95.4627 346.029 101.055C339.183 106.648 330.805 109.883 322.078 110.303C319.525 106.504 316.13 102.772 311.9 100.825C301.208 95.8842 357.125 69.9475 357.125 69.9475C358.006 73.0632 359.043 76.1297 360.233 79.1346Z" fill="black"/>
<path d="M361.804 66.0392C361.806 74.5327 359.364 82.836 354.787 89.8991C350.21 96.9621 343.703 102.467 336.09 105.719C328.476 108.971 320.098 109.822 312.015 108.166C303.932 106.51 296.507 102.42 290.68 96.415C284.852 90.4095 280.883 82.7578 279.275 74.4275C277.667 66.0972 278.492 57.4626 281.646 49.6157C284.8 41.7688 290.141 35.0621 296.994 30.3439C303.847 25.6257 311.903 23.1079 320.144 23.1089C325.622 23.0828 331.05 24.1754 336.116 26.3235C341.181 28.4716 345.784 31.6328 349.657 35.6244C353.531 39.6159 356.598 44.3589 358.683 49.5792C360.768 54.7996 361.829 60.3939 361.804 66.0392Z" fill="#FFB0B1"/>
<path d="M367.818 126.191L356.456 153.514L346.434 171.649H314.353L304.995 146.854L308.788 121.141H333.289L349.108 120.222L354.451 118.385L357.896 120.399L367.818 126.191Z" fill="#575A89"/>
<path opacity="0.1" d="M363.904 89.7698C363.904 89.7698 370.99 91.327 364.645 96.6887C358.299 102.05 336.406 119.101 336.406 119.101C336.406 119.101 344.097 126.16 342.505 134.429L367.984 119.791L372.516 96.3721C372.516 96.3721 373.025 89.3338 363.904 89.7698Z" fill="black"/>
<path opacity="0.1" d="M341.417 119.101L325.211 121.857C325.211 121.857 328.555 134.6 326.883 138.218C326.832 138.33 326.79 138.446 326.757 138.565L320.144 156.986L325.1 171.452L342.253 147.342L336.406 138.218C336.406 138.218 342.586 129.778 346.262 126.851C349.939 123.923 341.417 119.101 341.417 119.101Z" fill="black"/>
<path d="M341.417 118.39L325.211 121.141C325.211 121.141 328.555 133.884 326.883 137.501C326.832 137.614 326.79 137.73 326.757 137.849L320.144 156.27L325.1 170.736L342.253 146.611L336.406 137.486C336.406 137.486 342.586 129.046 346.262 126.119C349.939 123.191 341.417 118.39 341.417 118.39Z" fill="#DCE6F2"/>
<path d="M364.584 88.3944C364.584 88.3944 371.67 89.9515 365.32 95.3133C358.969 100.675 336.406 119.101 336.406 119.101C336.406 119.101 344.762 124.785 343.175 133.048L368.654 118.416L373.186 94.9967C373.186 94.9967 373.69 87.9584 364.584 88.3944Z" fill="#575A89"/>
<path opacity="0.1" d="M323.191 111.928C323.191 111.928 324.738 114.907 331.562 120.279C331.562 120.279 320.2 126.508 324.546 135.264L307.166 130.593L304.492 121.982L323.191 111.928Z" fill="black"/>
<path d="M322.521 111.243C322.521 111.243 324.067 114.222 330.892 119.594C330.892 119.594 319.53 125.792 323.876 134.574L306.501 129.903L303.827 121.297L322.521 111.243Z" fill="#575A89"/>
<path opacity="0.1" d="M367.818 126.191L356.456 153.514L346.454 171.649H314.353L304.995 146.855L308.783 121.141H315.597C315.486 127.141 317.611 134.19 317.475 136.811C317.243 141.119 323.71 164.362 323.71 164.362C323.71 164.362 337.242 141.804 342.586 139.796C345.945 138.534 353.061 128.039 357.891 120.399L367.818 126.191Z" fill="black"/>
<path d="M412.575 269.972L411.421 271.467C411.421 271.467 419.777 314.688 417.465 324.503C417.072 326.272 416.848 328.077 416.795 329.891V329.969C416.387 339.955 419.313 352.915 419.313 352.915C419.313 352.915 421.65 391.117 420.32 406.829H263.884C262.968 383.596 261.981 353.497 262.877 350.159C264.388 344.652 267.41 324.674 267.41 324.674L267.742 315.207C267.742 315.207 267.742 306.056 268.014 295.862C268.13 291.279 268.301 286.467 268.548 282.201C268.865 276.834 269.308 272.313 269.918 270.091C270.293 268.408 270.509 266.69 270.562 264.963C270.562 264.802 270.562 264.636 270.593 264.47C270.593 263.951 270.643 263.391 270.663 262.814C270.663 262.654 270.663 262.493 270.663 262.295C270.759 258.953 270.724 254.987 270.618 250.876C270.618 250.653 270.618 250.425 270.618 250.196C270.532 247.113 270.406 243.968 270.265 240.978C269.827 231.635 269.258 223.736 269.258 223.736L250.045 158.128L255.222 144.986L269.59 135.913L296.157 119.381C309.115 108.404 317.646 109.722 320.9 110.926C321.216 111.037 321.525 111.167 321.826 111.316C321.927 111.367 322.008 111.409 322.083 111.456C322.187 111.506 322.286 111.565 322.38 111.632C321.49 112.074 320.716 112.731 320.124 113.547C319.458 114.477 318.983 115.536 318.729 116.662C318.559 117.359 318.439 118.069 318.372 118.785C318.306 119.537 318.281 120.316 318.281 121.1C318.317 122.818 318.46 124.533 318.709 126.233C318.709 126.264 318.709 126.306 318.709 126.347C318.875 127.562 319.082 128.75 319.283 129.866C319.281 129.885 319.281 129.904 319.283 129.923C319.515 131.226 319.747 132.43 319.903 133.468C319.933 133.655 319.958 133.826 319.983 133.987C320.094 134.673 320.146 135.368 320.139 136.064C320.196 137.743 320.415 139.412 320.794 141.046C320.925 141.732 321.076 142.463 321.242 143.226C321.469 144.265 321.716 145.396 321.983 146.548C322.129 147.182 322.285 147.836 322.446 148.484C322.506 148.744 322.572 149.003 322.632 149.268L322.733 149.678C323.806 154.074 324.969 158.45 325.684 161.097C326.107 162.654 326.374 163.615 326.374 163.615C326.374 163.615 333.959 150.976 340.012 143.782C340.103 143.678 340.184 143.579 340.269 143.486C340.869 142.775 341.458 142.126 342.022 141.555C343.256 140.289 344.364 139.385 345.255 139.053C345.445 138.981 345.629 138.893 345.804 138.789C348.282 137.34 352.281 132.083 356.023 126.575C356.39 126.056 356.748 125.491 357.11 124.956C357.941 123.721 358.747 122.48 359.508 121.292C360.092 120.383 360.651 119.501 361.18 118.66C363.698 114.622 365.471 111.611 365.471 111.611L368.966 111.45L369.575 111.419H369.983L385.852 110.662C385.852 110.662 386.537 110.781 387.665 111.014C387.726 111.014 387.786 111.014 387.852 111.056C393.482 112.208 409.125 115.857 410.082 120.918C411.25 127.115 436.482 135.384 436.482 135.384C436.814 139.536 442.994 142.271 442.994 142.271C442.994 142.271 452.351 167.756 449.848 177.743C447.375 187.605 456.284 212 456.521 212.685L454.814 214.907L412.575 269.972Z" fill="#E8F5FF"/>
<path opacity="0.1" d="M363.899 87.9585C363.899 87.9585 379.345 83.4428 382.856 92.7389C386.366 102.035 394.218 139.578 394.218 139.578C394.218 139.578 373.831 143.538 368.487 139.578C365.353 137.227 361.474 136.182 357.624 136.65L346.096 144.742L342.692 143.704C342.692 143.704 361.134 115.447 365.143 105.845C369.152 96.2424 370.507 91.9499 363.899 87.9585Z" fill="black"/>
<path d="M363.23 85.8823C363.23 85.8823 378.686 81.3666 382.211 90.6627C385.737 99.9588 393.573 137.501 393.573 137.501C393.573 137.501 373.191 141.462 367.843 137.501C364.71 135.151 360.833 134.105 356.985 134.574L345.447 142.666L342.042 141.628C342.042 141.628 360.485 113.371 364.494 103.769C368.503 94.1662 369.837 89.8841 363.23 85.8823Z" fill="#E8F5FF"/>
<path opacity="0.1" d="M259.548 235.653C259.548 235.653 271.076 238.58 273.252 245.297C275.428 252.013 264.731 252.184 264.731 252.184C264.731 252.184 258.214 240.303 259.548 235.653Z" fill="black"/>
<path opacity="0.1" d="M302.487 285.242C302.487 285.242 274.254 344.824 280.771 350.507C287.288 356.191 302.487 285.242 302.487 285.242Z" fill="black"/>
<path opacity="0.1" d="M341.417 241.336C341.417 241.336 363.975 299.21 359.462 308.148C354.95 317.086 369.152 308.148 369.152 308.148L341.417 241.336Z" fill="black"/>
<path d="M372.829 298.504C372.829 298.504 296.64 302.293 318.865 326.745C341.09 351.197 386.699 327.783 386.699 327.783L372.829 298.504Z" fill="#FFB0B1"/>
<path opacity="0.1" d="M361.804 66.0391C361.811 71.6708 360.738 77.2484 358.647 82.4513C357.947 82.5343 357.247 82.5862 356.572 82.6174C355.564 80.3388 356.103 77.7072 356.123 75.2002C356.144 72.6932 355.247 69.745 352.905 69.0703C348.237 67.7156 345.013 76.7106 340.41 75.086C336.885 73.8507 337.807 68.3384 335.777 65.1567C334.17 62.6393 330.952 61.9282 328.449 60.3503C323.126 56.9817 323.287 51.594 320.814 46.497C318.226 41.156 312.756 42.7339 308.007 45.8845C304.401 48.2825 301.289 51.4954 297.431 53.4055C294.092 55.0664 290.34 55.6685 286.638 55.7568C284.359 55.8478 282.08 55.5995 279.87 55.0197C282.469 44.9471 288.535 36.1928 296.935 30.3893C305.336 24.5859 315.498 22.1295 325.526 23.4782C335.554 24.827 344.764 29.8889 351.438 37.7198C358.112 45.5507 361.795 55.6162 361.799 66.0391H361.804Z" fill="black"/>
<path d="M308.022 44.5092C304.411 46.9072 301.304 50.1149 297.446 52.0353C294.107 53.6911 290.355 54.2932 286.653 54.3814C282.121 54.4852 277.241 53.6651 274.143 50.2913C271.298 47.1771 270.618 42.3863 271.822 38.3014C273.025 34.2165 275.911 30.8271 279.3 28.3721C282.69 25.917 286.623 24.2197 288.869 20.7058C290.058 18.8476 290.632 16.6572 291.619 14.6796C294.777 8.35249 301.878 4.92679 308.742 4.50117C315.607 4.07555 322.411 6.18288 328.948 8.46668C335.485 10.7505 342.072 13.2627 348.972 13.735C352.044 13.9322 355.237 13.735 358.088 14.934C361.92 16.5378 364.433 20.3736 366.146 24.2768C368.064 28.6783 369.258 33.4847 369.057 38.291C368.634 48.5525 362.056 58.622 364.947 68.4527C365.713 71.0739 367.148 73.7626 366.382 76.3838C365.264 80.2091 360.475 81.0811 356.602 81.2628C355.595 78.9842 356.134 76.3474 356.154 73.8456C356.174 71.3438 355.277 68.3905 352.941 67.7157C348.267 66.3714 345.044 75.3509 340.451 73.7314C336.95 72.4909 337.857 66.9838 335.822 63.8021C334.216 61.2795 330.993 60.5736 328.495 58.9957C323.171 55.6271 323.332 50.2394 320.86 45.1424C318.251 39.7755 312.776 41.3534 308.022 44.5092Z" fill="#575A89"/>
<path d="M234.145 242.021L230.303 243.402C230.303 243.402 231.813 266.821 226.777 273.538C221.741 280.254 243.316 296.952 243.316 296.952C243.316 296.952 272.889 296.781 273.725 294.357C274.561 291.933 272.214 250.965 272.214 250.965C272.214 250.965 256.34 244.591 257.675 234.433C257.675 234.433 252.83 258.366 245.648 257.333C238.466 256.3 230.313 250.119 234.145 242.021Z" fill="#E8F5FF"/>
<path opacity="0.1" d="M246.963 264.579C252.562 264.579 257.101 260.301 257.101 255.023C257.101 249.746 252.562 245.468 246.963 245.468C241.364 245.468 236.825 249.746 236.825 255.023C236.825 260.301 241.364 264.579 246.963 264.579Z" fill="black"/>
<path d="M258.047 242.712C258.047 242.712 256.033 179.347 238.497 193.465C220.961 207.583 220.789 224.467 224.128 229.455C227.467 234.443 238.174 259.415 238.174 259.415C239.849 260.415 241.73 260.992 243.663 261.099C245.596 261.206 247.526 260.839 249.295 260.029C251.064 259.218 252.622 257.988 253.84 256.437C255.058 254.887 255.903 253.062 256.305 251.11L258.047 242.712Z" fill="#FFB0B1"/>
<path opacity="0.1" d="M367.44 82.2074C367.358 81.929 367.201 81.6804 366.986 81.4911C366.12 80.6762 364.257 80.3907 361.447 80.6398L361.562 82.0101C365.309 81.6779 366.05 82.4461 366.145 82.5759V82.7057L366.261 82.8769C366.728 83.524 367.059 84.2646 367.233 85.0511C367.406 85.8377 367.418 86.6529 367.269 87.4445C366.448 91.6748 361.406 95.0434 361.356 95.0797L361.235 95.1524L361.16 95.2717C358.984 98.5988 346.68 107.988 343.462 110.417L343.18 110.085C341.74 111.373 329.079 122.797 328.394 127.172C327.951 129.918 324.949 130.982 323.861 131.278C322.713 130.38 318.986 127.323 317.047 123.897C315.229 120.674 322.547 114.383 323.191 111.928L322.184 110.864C322.078 111.258 312.681 120.31 315.294 124.935C317.389 128.646 321.217 131.823 322.557 132.871C322.129 136.878 319.464 160.407 315.37 165.981C310.283 172.911 306.008 207.832 306.481 220.024C306.899 230.857 304.154 251.318 294.988 260.105C293.401 261.693 291.487 262.891 289.388 263.61C287.289 264.329 285.06 264.55 282.866 264.257H282.755H282.644C282.513 264.257 269.218 265.659 258.047 255.953C248.907 248.027 243.729 235.092 242.652 217.497H242.43L242.339 212.374C244.818 211.975 247.05 210.602 248.566 208.543C250.083 206.483 250.766 203.899 250.472 201.331C250.179 198.764 248.931 196.414 246.991 194.775C245.051 193.136 242.57 192.335 240.07 192.542C237.569 192.748 235.244 193.946 233.582 195.882C231.92 197.819 231.052 200.344 231.158 202.926C231.265 205.509 232.339 207.949 234.154 209.733C235.97 211.517 238.385 212.506 240.894 212.493H241.005L241.095 217.585L240.652 217.616C241.76 235.783 247.199 249.221 256.768 257.52C264.041 263.731 273.331 266.865 282.76 266.287C283.429 266.362 284.102 266.4 284.775 266.401C289.097 266.424 293.255 264.7 296.358 261.6C306.013 252.335 308.949 231.121 308.49 219.92C307.987 207.001 312.474 173.336 316.976 167.206C321.388 161.19 324.062 137.75 324.531 133.209C326.127 132.747 329.738 131.288 330.353 127.499C330.796 124.759 339.252 116.314 344.454 111.637L344.298 111.45C347.098 109.343 355.806 102.699 360.122 98.4327C361.462 97.1092 362.791 95.7856 364.181 94.5243C365.853 92.9983 367.979 90.5744 368.538 87.7093C368.728 86.7635 368.729 85.7875 368.54 84.8414C368.352 83.8952 367.977 82.9989 367.44 82.2074Z" fill="black"/>
<path d="M322.386 132.544C322.174 132.394 317.158 128.693 314.645 124.24C312.036 119.615 321.434 110.568 321.535 110.173L322.542 111.238C321.902 113.687 314.584 119.983 316.403 123.201C318.694 127.266 323.519 130.821 323.569 130.857L322.386 132.544Z" fill="#353146"/>
<path d="M342.808 111.425L342.022 110.309C342.183 110.189 358.002 98.3965 360.495 94.5815L360.575 94.4673L360.691 94.3895C360.742 94.3531 365.783 90.9897 366.604 86.7543C366.755 85.9635 366.744 85.1488 366.57 84.3629C366.397 83.5769 366.065 82.8373 365.597 82.1919L365.481 82.0154V81.8909C365.38 81.7559 364.64 80.9929 360.893 81.3251L360.777 79.9496C363.592 79.7005 365.451 79.986 366.317 80.8009C366.532 80.9921 366.691 81.2422 366.775 81.5223C367.32 82.3115 367.702 83.2073 367.897 84.1544C368.093 85.1016 368.099 86.08 367.913 87.0294C367.354 89.8997 365.234 92.3237 363.557 93.8445C362.172 95.1057 360.837 96.4397 359.503 97.7529C354.441 102.751 343.362 111.014 342.808 111.425Z" fill="#E8F5FF"/>
<path d="M241.689 210.566L240.355 210.592L240.504 218.952L241.838 218.927L241.689 210.566Z" fill="#E8F5FF"/>
<path d="M240.244 211.834C245.626 211.834 249.989 207.337 249.989 201.79C249.989 196.243 245.626 191.747 240.244 191.747C234.862 191.747 230.499 196.243 230.499 201.79C230.499 207.337 234.862 211.834 240.244 211.834Z" fill="#587EEC"/>
<path d="M240.244 210.131C244.714 210.131 248.337 206.397 248.337 201.79C248.337 197.184 244.714 193.449 240.244 193.449C235.774 193.449 232.151 197.184 232.151 201.79C232.151 206.397 235.774 210.131 240.244 210.131Z" fill="#E8F5FF"/>
<path d="M284.14 265.731C283.467 265.732 282.795 265.696 282.126 265.622C272.697 266.195 263.409 263.062 256.134 256.856C246.565 248.551 241.136 235.128 240.018 216.946L242.032 216.817C243.11 234.412 248.287 247.352 257.433 255.273C268.603 264.953 281.894 263.577 282.025 263.577H282.136H282.247C284.441 263.869 286.671 263.647 288.77 262.928C290.87 262.209 292.785 261.012 294.374 259.425C303.535 250.638 306.28 230.177 305.862 219.344C305.358 207.142 309.634 172.22 314.725 165.296C319.182 159.229 321.947 131.88 321.978 131.605L322.053 130.826L322.798 130.691C322.844 130.691 327.195 129.84 327.739 126.487C328.444 122.117 341.085 110.693 342.52 109.4L343.835 110.957C338.612 115.629 330.156 124.079 329.733 126.825C329.119 130.624 325.508 132.077 323.916 132.534C323.413 137.081 320.759 160.516 316.362 166.531C311.86 172.661 307.372 206.327 307.876 219.246C308.309 230.447 305.403 251.665 295.749 260.925C292.64 264.033 288.471 265.759 284.14 265.731Z" fill="#353146"/>
<g opacity="0.1">
<path opacity="0.1" d="M366.095 53.7689C366.921 50.6234 367.918 47.4573 368.613 44.2703C367.782 47.4728 366.78 50.6234 366.095 53.7689Z" fill="black"/>
<path opacity="0.1" d="M357.67 78.4858C356.662 76.2072 357.201 73.5705 357.221 71.0687C357.241 68.5669 356.345 65.6395 354.008 64.9388C349.335 63.5944 346.111 72.5791 341.518 70.9545C337.993 69.714 338.925 64.2069 336.89 61.0252C335.283 58.5026 332.065 57.7967 329.567 56.2188C324.239 52.8502 324.4 47.4625 321.932 42.3655C319.339 37.0193 313.874 38.5972 309.12 41.753C305.509 44.151 302.402 47.3639 298.544 49.2792C295.205 50.9349 291.453 51.537 287.751 51.6253C283.244 51.7343 278.338 50.909 275.241 47.5352C272.854 44.94 271.993 41.1354 272.486 37.5695C272.401 37.8135 272.325 38.0574 272.25 38.3014C271.041 42.3863 271.746 47.1874 274.571 50.2913C277.669 53.6651 282.574 54.4852 287.081 54.3814C290.788 54.2932 294.535 53.6911 297.879 52.0353C301.747 50.1148 304.854 46.9071 308.455 44.5091C313.209 41.3534 318.679 39.7755 321.267 45.1216C323.735 50.2186 323.579 55.6063 328.902 58.9749C331.421 60.5321 334.619 61.2587 336.23 63.7813C338.245 66.9734 337.353 72.4701 340.859 73.7106C345.447 75.3301 348.67 66.3506 353.343 67.6949C355.68 68.3697 356.582 71.3282 356.557 73.8248C356.531 76.3214 356.008 78.9634 357.005 81.242C360.878 81.0603 365.667 80.2039 366.79 76.363C366.945 75.8117 367.016 75.2393 367.002 74.6657C365.365 77.5775 361.155 78.3249 357.67 78.4858Z" fill="black"/>
</g>
<path opacity="0.1" d="M448.69 206.379L454.537 212.753C454.537 212.753 459.216 247.876 461.552 251.162C463.889 254.447 469.409 267.517 464.227 277.332C464.227 277.332 462.555 282.673 463.557 284.91C464.559 287.147 456.043 298.343 456.043 298.343C456.043 298.343 444.847 308.672 442.505 310.224C440.163 311.776 427.804 324.171 423.629 324.342C419.454 324.513 418.09 329.854 418.09 329.854L394.53 330.716C394.53 330.716 381.516 330.015 378.686 331.91C378.686 331.91 380.197 311.418 365.657 297.985L384.201 291.097C384.201 291.097 391.221 287.983 393.392 284.729C394.757 282.733 396.694 281.229 398.932 280.426C398.932 280.426 404.109 276.637 404.275 274.571C404.441 272.505 410.606 269.972 410.606 269.972L407.116 239.271L408.954 188.3C408.954 188.3 414.801 145.593 427.165 148.007C439.529 150.42 448.69 206.379 448.69 206.379Z" fill="black"/>
<path d="M450.704 206.379L456.551 212.753C456.551 212.753 461.23 247.876 463.567 251.162C465.904 254.447 471.423 267.517 466.241 277.332C466.241 277.332 464.574 282.673 465.576 284.91C466.578 287.147 458.057 298.343 458.057 298.343C458.057 298.343 446.862 308.672 444.52 310.224C442.178 311.776 429.819 324.171 425.644 324.342C421.469 324.513 420.104 329.854 420.104 329.854L396.544 330.716C396.544 330.716 383.521 330.015 380.7 331.91C380.7 331.91 382.211 311.418 367.672 297.985L386.215 291.097C386.215 291.097 393.236 287.983 395.406 284.729C396.772 282.733 398.709 281.229 400.946 280.426C400.946 280.426 406.123 276.637 406.289 274.571C406.456 272.505 412.62 269.972 412.62 269.972L409.13 239.271L410.968 188.3C410.968 188.3 416.815 145.593 429.179 148.007C441.543 150.42 450.704 206.379 450.704 206.379Z" fill="#E8F5FF"/>
<path opacity="0.1" d="M428.968 257.868C428.968 257.868 446.177 253.197 450.689 258.906C455.202 264.616 428.968 257.868 428.968 257.868Z" fill="black"/>
<path opacity="0.1" d="M424.959 265.7C430.806 269.92 448.851 270.091 448.851 270.091L424.959 265.7Z" fill="black"/>
<path opacity="0.1" d="M433.813 286.794C434.316 286.966 446.217 300.056 451.213 296.096C456.209 292.135 433.813 286.794 433.813 286.794Z" fill="black"/>
<path opacity="0.1" d="M273.539 176.933C273.539 176.933 277.034 201.733 275.312 211.834C273.589 221.934 279.875 234.449 279.875 234.449L273.539 176.933Z" fill="black"/>
<path d="M196.162 187.018C192.133 190.273 189.192 197.975 187.061 206.441C183.345 221.208 182.131 238.331 182.131 238.331C182.131 238.331 150.05 230.753 152.387 227.312C153.857 225.147 151.883 208.839 150.236 197.015C149.254 190.029 148.378 184.605 148.378 184.605C148.378 184.605 207.191 178.06 196.162 187.018Z" fill="#FFB0B1"/>
<path opacity="0.1" d="M196.162 186.328C192.133 189.588 189.192 197.285 187.061 205.751C180.67 207.751 173.872 207.931 167.389 206.273C160.905 204.614 154.979 201.179 150.236 196.33C149.254 189.338 148.378 183.914 148.378 183.914C148.378 183.914 207.191 177.374 196.162 186.328Z" fill="black"/>
<path d="M213.406 167.777C213.409 176.805 210.314 185.543 204.667 192.445C199.02 199.346 191.186 203.967 182.552 205.488C173.917 207.009 165.039 205.334 157.488 200.757C149.938 196.181 144.201 188.999 141.294 180.483C138.388 171.966 138.498 162.665 141.605 154.224C144.713 145.783 150.618 138.748 158.275 134.363C165.932 129.978 174.847 128.526 183.443 130.264C192.038 132.002 199.76 136.818 205.242 143.86C210.525 150.643 213.404 159.08 213.406 167.777Z" fill="#FFB0B1"/>
<path opacity="0.1" d="M242.656 406.829H232.08L231.189 387.577L230.257 367.651C230.257 367.651 232.659 367.283 236.487 366.732L238.033 366.52H238.159C238.995 370.563 239.821 374.715 240.617 378.863C241.941 386.225 242.631 393.694 242.677 401.181C242.677 401.701 242.677 402.22 242.677 402.707C242.707 404.093 242.677 405.479 242.656 406.829Z" fill="black"/>
<path d="M240.627 406.829H107.992C108.566 405.484 108.949 404.669 108.949 404.669C108.949 404.669 119.56 356.824 124.954 336.581C124.956 336.564 124.956 336.547 124.954 336.529C125.628 333.779 126.442 331.068 127.392 328.406C127.453 328.225 127.533 328.051 127.629 327.887C130.298 323.413 133.642 318.591 128.963 311.703C124.284 304.816 125.941 274.509 125.941 274.509C125.941 274.509 131.622 248.676 137.636 234.9C138.548 232.766 139.843 230.829 141.453 229.191C141.976 228.663 142.535 228.174 143.125 227.727C143.574 227.38 144.041 227.059 144.525 226.767L144.621 226.704C147.147 225.228 149.952 224.331 152.845 224.073C154.9 223.852 156.975 223.911 159.014 224.249C168.765 225.723 176.571 228.189 182.776 230.997C199.592 238.611 204.683 248.816 204.784 249.029L204.824 249.117C205.499 250.741 215.37 274.493 218.926 285.575C219.847 288.46 220.351 290.49 220.15 291.045C219.142 293.796 227.835 328.235 227.835 328.235C227.835 328.235 231.864 344.844 235.893 364.314C236.069 365.123 236.235 365.933 236.397 366.753C237.117 370.288 237.832 373.89 238.522 377.487C239.859 384.9 240.548 392.422 240.582 399.962C240.656 402.311 240.671 404.6 240.627 406.829Z" fill="#EB5569"/>
<path opacity="0.1" d="M152.054 212.228C152.054 212.228 142.904 208.595 143.014 214.107C143.125 219.619 145.245 222.256 144.576 223.061C143.906 223.865 144.908 228.687 144.908 228.687C144.908 228.687 157.272 228.687 162.953 231.324C168.634 233.961 189.574 239.245 192.249 240.854C194.923 242.463 204.839 249.677 204.839 249.677L205.731 236.016C205.731 236.016 195.482 227.291 178.666 222.817C161.85 218.343 152.054 212.228 152.054 212.228Z" fill="black"/>
<path d="M152.054 211.538C152.054 211.538 142.904 207.905 143.014 213.417C143.125 218.929 145.245 221.566 144.576 222.37C143.906 223.175 144.908 227.997 144.908 227.997C144.908 227.997 157.272 227.997 162.953 230.639C168.634 233.281 189.574 238.559 192.249 240.163C194.923 241.767 204.839 248.987 204.839 248.987L205.741 235.367C205.741 235.367 195.492 226.642 178.676 222.168C161.86 217.694 152.054 211.538 152.054 211.538Z" fill="#EB5569"/>
<path opacity="0.1" d="M179.678 244.414C179.678 244.414 197.164 263.925 196.273 269.328C195.381 274.732 179.678 244.414 179.678 244.414Z" fill="black"/>
<path opacity="0.1" d="M151.274 314.895C151.274 314.895 138.457 327.067 134.679 327.757C130.902 328.448 137.575 330.742 141.916 328.91C146.258 327.077 155.514 322.256 155.514 322.256L151.274 314.895Z" fill="black"/>
<path d="M245.834 406.829H215.944C211.764 403.092 207.811 399.63 205.292 397.548C201.263 394.216 198.358 389.311 196.504 385.366C196.086 384.468 195.724 383.627 195.416 382.864C194.866 381.55 194.382 380.208 193.966 378.842L216.1 365.295C217.324 366.367 218.473 367.525 219.54 368.762L219.807 369.079C221.036 370.573 222.119 372.271 222.214 373.662C222.325 375.281 226.697 381.546 231.164 387.562C235.696 393.681 240.34 399.531 240.647 399.926C240.647 399.926 241.412 401 242.661 402.651C243.543 403.844 244.631 405.277 245.834 406.829Z" fill="#FFB0B1"/>
<path opacity="0.1" d="M205.242 143.86C204.18 146.33 203.228 148.894 203.087 151.645C202.689 159.587 203.334 177.343 194.802 181.33C190.577 183.292 186.054 178.983 181.421 178.88C178.087 178.807 175.03 180.987 172.995 183.712C170.961 186.437 169.696 189.671 168.221 192.754C166.878 195.552 165.33 198.242 163.593 200.799C163.073 201.582 162.501 202.326 161.88 203.026C156.678 200.763 152.046 197.307 148.336 192.92C144.626 188.533 141.937 183.331 140.473 177.711C139.01 172.091 138.81 166.2 139.89 160.489C140.97 154.777 143.301 149.394 146.704 144.752C150.108 140.109 154.496 136.328 159.532 133.697C164.568 131.067 170.121 129.655 175.767 129.571C181.413 129.487 187.002 130.733 192.11 133.212C197.218 135.692 201.71 139.341 205.242 143.88V143.86Z" fill="black"/>
<path d="M202.417 150.244C202.014 158.185 202.664 175.942 194.127 179.923C189.902 181.885 185.379 177.582 180.746 177.478C177.412 177.4 174.36 179.585 172.32 182.305C170.281 185.025 169.027 188.264 167.546 191.352C166.202 194.15 164.655 196.84 162.918 199.397C161.88 200.913 160.732 202.434 159.135 203.285C156.355 204.78 152.986 203.939 150.005 202.979C146.137 201.723 142.326 200.307 138.572 198.733C138.658 198.149 138.702 197.559 138.703 196.968C138.592 197.186 138.472 197.389 138.351 197.607L138.114 198.032C137.686 198.811 137.268 199.589 136.885 200.389C136.739 200.695 136.598 201.012 136.472 201.328C135.966 202.507 135.648 203.762 135.53 205.045C135.274 208.507 136.931 211.792 138.401 214.906C144.057 226.953 147.552 241.04 143.296 253.679C141.453 259.176 138.26 264.06 135.928 269.37C131.852 278.774 130.652 289.235 132.489 299.36C133.652 305.651 135.984 311.88 135.41 318.259C134.402 329.237 125.216 337.406 116.015 343.022C111.044 346.043 104.96 348.732 99.6824 346.344C103.047 342.296 103.913 336.695 104.638 331.411C106.622 316.999 108.612 302.58 110.606 288.154C111.402 282.413 112.196 276.673 112.988 270.932C114.469 260.146 115.97 249.241 115.043 238.388C114.368 230.39 112.464 221.898 115.829 214.657C117.606 210.822 120.774 207.645 121.761 203.513C122.572 200.155 121.817 196.584 122.351 193.164C122.643 191.607 123.137 190.099 123.821 188.679C124.692 186.752 125.828 184.966 127.195 183.374C125.846 182.97 124.587 182.414 123.821 181.252C125.987 179.798 126.314 176.523 125.332 174.063C124.35 171.603 122.386 169.729 120.618 167.788C118.85 165.846 117.148 163.583 116.927 160.936C116.498 155.896 121.384 151.993 122.245 147.021C123.116 141.96 119.671 137.039 119.948 131.916C120.271 125.724 125.79 121.224 131.24 118.613C139.463 114.69 148.546 113.078 157.569 113.942C164.912 114.658 172.018 116.999 179.341 117.907C183.758 118.426 188.235 118.478 192.621 119.278C197.008 120.077 201.405 121.764 204.492 125.08C212.63 133.826 202.88 141.026 202.417 150.244Z" fill="#575A89"/>
<path opacity="0.1" d="M195.608 385.371C193.039 384.224 188.366 384.909 180.343 382.392C172.32 379.875 170.774 368.497 170.774 368.497V368.461C170.678 368.201 169.933 366.509 164.887 360.582C159.311 354.037 147.26 320.979 147.26 320.979C147.26 320.979 136.573 309.15 136.91 304.79C137.248 300.43 135.012 288.829 135.233 275.853C135.455 262.877 159.291 254.271 159.291 254.271C205.187 245.888 194.379 300.419 193.155 304.551C191.931 308.682 198.282 319.842 198.282 319.842C197.386 324.7 201.958 332.221 201.958 332.221C201.958 332.221 203.066 338.875 203.293 341.403C203.306 341.52 203.331 341.635 203.369 341.746C204.104 344.128 210.097 346.287 212.535 347.6C215.098 348.981 223.342 361.033 223.342 361.033C225.12 369.883 198.166 386.534 195.608 385.371Z" fill="black"/>
<path d="M196.943 383.295C194.379 382.143 189.7 382.833 181.683 380.311C173.665 377.788 172.114 366.421 172.114 366.421V366.385C172.023 366.12 171.273 364.433 166.226 358.505C160.651 351.96 148.6 318.897 148.6 318.897C148.6 318.897 137.913 307.073 138.245 302.713C138.577 298.353 136.351 286.753 136.573 273.787C136.795 260.821 160.616 252.221 160.616 252.221C206.511 243.838 195.704 298.369 194.48 302.501C193.256 306.632 199.607 317.792 199.607 317.792C198.71 322.65 203.283 330.171 203.283 330.171C203.283 330.171 204.391 336.825 204.623 339.353C204.631 339.47 204.655 339.585 204.693 339.695C205.429 342.078 211.422 344.237 213.864 345.55C216.423 346.926 224.672 358.983 224.672 358.983C226.46 367.817 199.506 384.468 196.943 383.295Z" fill="#EB5569"/>
<path opacity="0.1" d="M161.523 280.69C161.523 280.69 181.572 302.49 186.805 302.49C192.037 302.49 161.523 280.69 161.523 280.69Z" fill="black"/>
<path d="M196.942 383.295C194.379 382.143 189.7 382.833 181.683 380.311C173.665 377.788 172.114 366.421 172.114 366.421V366.385C177.427 362.751 190.884 352.49 196.187 348.737C199.919 346.106 202.966 342.239 204.749 339.675C205.484 342.057 211.477 344.216 213.92 345.53C216.478 346.905 224.727 358.962 224.727 358.962C226.46 367.817 199.506 384.468 196.942 383.295Z" fill="#FF748E"/>
<g opacity="0.1">
<path opacity="0.1" d="M123.851 181.309C123.877 181.35 123.912 181.387 123.942 181.428C124.093 181.231 124.249 181.034 124.41 180.847C124.239 181.019 124.052 181.174 123.851 181.309Z" fill="black"/>
<path opacity="0.1" d="M135.535 205.102C135.747 202.221 137.243 199.683 138.643 197.15C137.726 196.787 136.81 196.418 135.903 196.034C135.989 195.452 136.033 194.864 136.034 194.275C134.619 196.87 133.078 199.423 132.861 202.346C132.604 205.813 134.261 209.093 135.732 212.208C141.393 224.249 144.883 238.336 140.627 250.98C138.779 256.472 135.591 261.361 133.259 266.671C129.184 276.074 127.986 286.534 129.824 296.656C130.978 302.952 133.315 309.176 132.74 315.555C131.733 326.532 122.552 334.702 113.346 340.313C109.584 342.607 105.187 344.709 100.982 344.559C100.593 345.205 100.158 345.82 99.6824 346.401C104.965 348.805 111.044 346.1 116.015 343.069C125.226 337.464 134.428 329.315 135.435 318.316C136.009 311.937 133.672 305.714 132.514 299.418C130.675 289.296 131.87 278.837 135.938 269.432C138.255 264.128 141.478 259.233 143.306 253.742C147.562 241.098 144.067 227.011 138.411 214.969C136.946 211.834 135.279 208.569 135.535 205.102Z" fill="black"/>
<path opacity="0.1" d="M204.482 125.143C203.986 124.619 203.454 124.133 202.89 123.689C208.994 131.849 200.181 138.783 199.743 147.566C199.35 155.507 199.994 173.269 191.458 177.245C187.238 179.212 182.71 174.904 178.082 174.8C174.743 174.727 171.691 176.912 169.651 179.632C167.611 182.352 166.357 185.591 164.882 188.674C163.535 191.472 161.987 194.161 160.248 196.719C159.241 198.24 158.063 199.756 156.461 200.612C153.691 202.102 150.322 201.266 147.335 200.301C144.431 199.359 141.554 198.321 138.703 197.186C138.697 197.727 138.654 198.266 138.572 198.8C142.329 200.378 146.142 201.794 150.01 203.046C152.991 204.012 156.36 204.847 159.135 203.358C160.732 202.501 161.89 200.98 162.923 199.46C164.662 196.905 166.209 194.217 167.551 191.42C169.032 188.337 170.281 185.093 172.325 182.373C174.37 179.653 177.417 177.473 180.751 177.546C185.384 177.649 189.912 181.957 194.132 179.99C202.669 176.014 202.019 158.253 202.417 150.311C202.88 141.077 212.63 133.884 204.482 125.143Z" fill="black"/>
</g>
<path opacity="0.1" d="M138.119 198.038C137.691 198.816 137.273 199.595 136.89 200.394C136.744 200.7 136.603 201.017 136.477 201.333C133.838 198.593 127.412 192.079 123.826 190.06C124.698 188.134 125.834 186.347 127.2 184.755C127.2 184.755 135.747 189.411 138.119 198.038Z" fill="black"/>
<path d="M138.356 197.612C136.376 188.378 127.2 183.38 127.2 183.38C125.833 184.971 124.697 186.758 123.826 188.684C127.608 190.818 134.579 197.97 136.89 200.394L138.356 197.612Z" fill="#EB5569"/>
<defs>
<linearGradient id="paint0_linear_4_6" x1="368.094" y1="50.1045" x2="368.094" y2="40.5644" gradientUnits="userSpaceOnUse">
<stop stop-color="#808080" stop-opacity="0.25"/>
<stop offset="0.54" stop-color="#808080" stop-opacity="0.12"/>
<stop offset="1" stop-color="#808080" stop-opacity="0.1"/>
</linearGradient>
<linearGradient id="paint1_linear_4_6" x1="231050" y1="341794" x2="231050" y2="23831.2" gradientUnits="userSpaceOnUse">
<stop stop-color="#808080" stop-opacity="0.25"/>
<stop offset="0.54" stop-color="#808080" stop-opacity="0.12"/>
<stop offset="1" stop-color="#808080" stop-opacity="0.1"/>
</linearGradient>
</defs>
</svg>
