<svg width="334" height="244" viewBox="0 0 334 244" fill="none" xmlns="http://www.w3.org/2000/svg">
<g opacity="0.5">
<path opacity="0.1" d="M111.674 242.961C127.871 242.961 141.001 240.793 141.001 238.118C141.001 235.444 127.871 233.276 111.674 233.276C95.4765 233.276 82.3463 235.444 82.3463 238.118C82.3463 240.793 95.4765 242.961 111.674 242.961Z" fill="#587EEC"/>
<path opacity="0.1" d="M271.093 243.097C291.304 243.097 307.689 240.929 307.689 238.255C307.689 235.58 291.304 233.412 271.093 233.412C250.881 233.412 234.497 235.58 234.497 238.255C234.497 240.929 250.881 243.097 271.093 243.097Z" fill="#587EEC"/>
<path opacity="0.1" d="M5.26568 105.545H35.812V148.348H7.50195C7.42671 148.787 7.35447 149.23 7.27622 149.672H35.812V184.192C35.7608 184.176 35.7156 184.158 35.6675 184.139C34.8609 183.811 34.0603 183.465 33.2597 183.093L32.748 182.855C31.9454 182.465 31.1428 182.053 30.3402 181.617C30.0603 181.466 29.7803 181.308 29.5034 181.147C25.0477 178.581 20.9999 175.33 17.5004 171.505C17.3981 171.403 17.3018 171.295 17.1995 171.196C16.7119 170.651 16.2333 170.101 15.7698 169.537L15.2582 168.919C14.7104 168.228 14.1807 167.52 13.666 166.802C13.5907 166.697 13.5185 166.592 13.4402 166.493C11.3471 163.509 9.6091 160.278 8.26342 156.869C8.22129 156.767 8.18517 156.656 8.14604 156.56C7.7327 155.467 7.36651 154.363 7.04747 153.249C6.90902 152.782 6.77659 152.321 6.66222 151.835C6.62008 151.693 6.58397 151.554 6.55086 151.414C4.8413 144.554 4.63965 137.428 4.63965 130.352C4.63965 129.525 4.63965 128.696 4.63965 127.876C4.63965 125.014 4.67276 122.133 4.72091 119.256C4.72091 118.51 4.75101 117.767 4.76606 117.018C4.8082 115.119 4.86839 113.219 4.94665 111.319C4.9647 110.79 4.98878 110.264 5.01587 109.738C5.01587 109.434 5.03092 109.131 5.06102 108.828C5.13325 107.726 5.19345 106.634 5.26568 105.545Z" fill="#587EEC"/>
<path opacity="0.1" d="M35.812 57.8872H19.0566C21.7803 53.5044 24.7562 49.2929 27.9685 45.2751C30.4576 42.1313 33.0852 39.068 35.812 36.1161V57.8872Z" fill="#587EEC"/>
<path opacity="0.1" d="M35.812 59.2115V104.221H5.362C5.362 104.091 5.38307 103.958 5.3921 103.828C5.41918 103.472 5.44627 103.116 5.47637 102.763C5.50948 102.349 5.5456 101.931 5.58472 101.526C5.62385 101.12 5.66599 100.625 5.71113 100.177C5.75628 99.7278 5.79842 99.273 5.84958 98.8243C5.90075 98.3756 5.9459 97.927 6.00007 97.4814C6.05425 97.0358 6.10241 96.5841 6.15959 96.1385C6.20474 95.7672 6.25289 95.399 6.30105 95.0276C6.37028 94.5047 6.44251 93.9787 6.52077 93.4589C6.52077 93.3815 6.54184 93.301 6.55387 93.2268C7.10322 89.4213 7.85173 85.6491 8.79616 81.9265C9.78476 78.0215 11.0472 74.1953 12.5734 70.4778C14.1956 66.5888 16.0949 62.8283 18.2559 59.227L35.812 59.2115Z" fill="#587EEC"/>
<path opacity="0.1" d="M43.1047 105.542V148.348H108.348V105.542H43.1047ZM43.1047 149.669V186.429C43.4779 186.509 43.8482 186.587 44.2153 186.652C44.715 186.751 45.2116 186.841 45.7202 186.918C45.8166 186.933 45.9159 186.949 46.0212 186.958C46.2199 186.992 46.4245 187.02 46.6232 187.048C47.1258 187.119 47.6254 187.178 48.1281 187.224C48.3658 187.249 48.6066 187.271 48.8474 187.289L49.4283 187.336C49.7443 187.36 50.0573 187.379 50.3673 187.388C50.56 187.388 50.7526 187.407 50.9512 187.413C51.1017 187.413 51.2522 187.413 51.4087 187.413C51.5652 187.413 51.788 187.413 51.9776 187.413C52.2364 187.413 52.4953 187.413 52.7511 187.413H53.0972C53.3561 187.413 53.6149 187.413 53.8707 187.388H53.8888C54.0664 187.388 54.247 187.388 54.4275 187.363C54.4777 187.367 54.5279 187.367 54.578 187.363C54.7285 187.363 54.879 187.363 55.0235 187.342H55.1288L56.1371 187.261C56.4682 187.23 56.8023 187.19 57.1394 187.153L57.8256 187.07C60.6174 186.667 63.3782 186.064 66.0874 185.262C72.1732 183.517 78.1266 181.076 84.2093 179.287C92.0739 176.982 100.763 175.85 108.363 178.669V149.669H43.1047ZM108.348 57.8873V0.900324C101.205 0.820763 94.0812 1.67967 87.1499 3.45618C70.6292 7.72317 55.806 16.9781 43.1047 28.7982V57.8842H46.3794V59.2055H43.1047V104.221H108.348V59.2085H59.8241V57.8873H108.348ZM192.149 38.6379C188.062 38.4894 183.999 37.1589 180.324 35.1043C173.296 31.1746 167.683 25.1067 161.41 19.9857C148.378 9.3198 132.215 2.88374 115.634 1.28711V57.8873H208.772L209.004 57.6367L192.149 38.6379ZM200.634 37.0908L209.63 47.2399V34.4297C206.617 34.8134 203.978 35.7262 200.646 37.0784L200.634 37.0908ZM209.63 195.557V149.669H190.461C190.41 149.474 190.358 149.276 190.298 149.078C190.355 149.276 190.404 149.474 190.458 149.669H115.647V182.855C116.357 183.397 117.058 183.966 117.753 184.545C118.503 185.163 119.243 185.816 119.987 186.457L120.736 187.094C121.094 187.404 121.455 187.713 121.82 188.004C122.542 188.606 123.271 189.2 124.008 189.786C124.372 190.096 124.745 190.374 125.115 190.665C130.993 195.285 137.192 199.454 143.665 203.138C145.115 203.963 146.579 204.769 148.056 205.555C149.04 206.071 150.03 206.585 151.024 207.083C152.516 207.832 154.021 208.554 155.538 209.249C169.524 215.703 184.312 220.132 199.481 222.409C202.85 222.921 206.232 223.323 209.627 223.616V195.554H209.928L209.63 195.557ZM115.647 59.2085V104.221H209.642V59.2085H115.647ZM115.647 105.542V148.348H209.642V105.542H115.647ZM216.938 34.374V48.6633L228.42 35.7107C224.616 35.0795 220.788 34.6288 216.938 34.3586V34.374ZM216.938 105.557V148.348H308.36V105.542L216.938 105.557ZM308.026 198.955L308.348 149.669H216.938V224.108C222.826 224.362 228.724 224.29 234.605 223.891H234.708C237.517 223.71 240.313 223.446 243.096 223.099H243.159C258.006 221.323 272.525 217.34 286.259 211.276L308.026 198.955ZM325.988 112.591C325.645 111.758 325.287 110.932 324.923 110.115C324.243 108.568 323.523 107.064 322.783 105.561H315.65V148.348H333.684C333.675 136.231 330.693 123.854 325.997 112.575L325.988 112.591ZM315.65 149.685V192.076C320.73 187.07 325.022 181.342 328.113 174.795C331.83 166.91 333.531 158.373 333.669 149.678L315.65 149.685ZM315.65 93.0845V104.224H322.115C320.159 100.389 318.004 96.6655 315.659 93.069L315.65 93.0845ZM253.648 42.7718C253.173 42.5862 252.697 42.3974 252.218 42.2149C247.171 40.2987 242.014 38.7052 236.775 37.4435L219.204 57.2684L218.867 57.6367L219.093 57.8904H281.63C272.92 51.7268 263.531 46.6466 253.657 42.7564L253.648 42.7718ZM283.463 59.224H218.22L216.938 60.4308V104.221H228.176H228.194H308.372V83.0096C301.119 73.9916 292.748 65.9898 283.472 59.2085L283.463 59.224Z" fill="#587EEC"/>
<path opacity="0.1" d="M35.812 81.9142V104.221H5.362C5.362 104.091 5.38307 103.958 5.3921 103.828C5.41918 103.472 5.44627 103.116 5.47637 102.763C5.50948 102.349 5.5456 101.931 5.58472 101.526C5.62385 101.12 5.66599 100.625 5.71113 100.177C5.75628 99.7278 5.79842 99.273 5.84958 98.8243C5.90075 98.3756 5.9459 97.927 6.00007 97.4814C6.05425 97.0358 6.10241 96.5841 6.15959 96.1385C6.20474 95.7672 6.25289 95.399 6.30105 95.0277C6.37028 94.5047 6.44251 93.9787 6.52077 93.4589C6.52077 93.3815 6.54184 93.3011 6.55387 93.2268C7.10322 89.4214 7.85173 85.6491 8.79616 81.9266L35.812 81.9142Z" fill="#587EEC"/>
<path opacity="0.1" d="M5.26568 105.545H35.812V148.348H7.50195C7.42671 148.787 7.35447 149.23 7.27622 149.672H35.812V184.192C35.7608 184.176 35.7156 184.158 35.6675 184.139C34.8609 183.811 34.0603 183.465 33.2597 183.093L32.748 182.855C31.9454 182.465 31.1428 182.053 30.3402 181.617C30.0603 181.466 29.7803 181.308 29.5034 181.147C25.0477 178.581 20.9999 175.33 17.5004 171.505C17.3981 171.403 17.3018 171.295 17.1995 171.196C16.7119 170.651 16.2333 170.101 15.7698 169.537L15.2582 168.919C14.7104 168.228 14.1807 167.52 13.666 166.802C13.5907 166.697 13.5185 166.592 13.4402 166.493C11.3471 163.509 9.6091 160.278 8.26342 156.869C8.22129 156.767 8.18517 156.656 8.14604 156.56C7.7327 155.467 7.36651 154.363 7.04747 153.249C6.90902 152.782 6.77659 152.321 6.66222 151.835C6.62008 151.693 6.58397 151.554 6.55086 151.414C4.8413 144.554 4.63965 137.428 4.63965 130.352C4.63965 129.525 4.63965 128.696 4.63965 127.876C4.63965 125.014 4.67276 122.133 4.72091 119.256C4.72091 118.51 4.75101 117.767 4.76606 117.018C4.8082 115.119 4.86839 113.219 4.94665 111.319C4.9647 110.79 4.98878 110.264 5.01587 109.738C5.01587 109.434 5.03092 109.131 5.06102 108.828C5.13325 107.726 5.19345 106.634 5.26568 105.545Z" fill="#587EEC"/>
<path opacity="0.1" d="M66.0724 65.6539V104.221H43.1047V65.6539H46.3794V52.5962H59.8211V65.6539H66.0724Z" fill="#587EEC"/>
<path opacity="0.1" d="M66.0724 105.542H43.1077V148.345H66.0724V105.542Z" fill="#587EEC"/>
<path opacity="0.1" d="M43.1047 149.672H66.0724V185.256C63.3631 186.056 60.6023 186.659 57.8105 187.06L57.1243 187.147C56.7872 187.187 56.4531 187.221 56.122 187.255C55.791 187.289 55.4479 187.314 55.1138 187.335H55.0084C54.864 187.335 54.7075 187.354 54.566 187.357H54.4125C54.2319 187.357 54.0513 187.376 53.8707 187.382C53.6149 187.397 53.3591 187.4 53.0972 187.403C52.9859 187.403 52.8805 187.403 52.7692 187.403C52.5103 187.403 52.2545 187.403 51.9956 187.403H51.4268C51.2733 187.403 51.1258 187.403 50.9663 187.403L50.3854 187.382C50.0844 187.382 49.7594 187.348 49.4463 187.326L48.8685 187.283L48.1491 187.215C47.6435 187.168 47.1409 187.109 46.6442 187.038L46.0423 186.952L45.7413 186.908C45.2387 186.828 44.7421 186.741 44.2364 186.642C43.8662 186.577 43.499 186.497 43.1258 186.419L43.1047 149.672Z" fill="#587EEC"/>
<path opacity="0.1" d="M209.642 61.0991H190.704V104.218H209.642V61.0991Z" fill="#587EEC"/>
<path opacity="0.1" d="M209.645 105.542V148.348H115.647V129.884H165.714V140.776H190.705V105.542H209.645Z" fill="#587EEC"/>
<path opacity="0.1" d="M209.943 195.566H209.642V223.647C206.251 223.352 202.87 222.95 199.499 222.443C184.323 220.159 169.528 215.72 155.538 209.255C151.499 207.386 147.542 205.346 143.668 203.135C137.195 199.449 130.995 195.28 125.115 190.662C123.639 189.498 122.181 188.308 120.742 187.091C119.746 186.246 118.756 185.38 117.753 184.538C117.058 183.96 116.357 183.39 115.647 182.846V149.672H190.455C190.404 149.474 190.352 149.276 190.298 149.081C190.355 149.276 190.41 149.474 190.461 149.672H209.642V195.548C209.744 195.551 209.844 195.56 209.943 195.566Z" fill="#587EEC"/>
<path opacity="0.1" d="M259.033 57.8871H246.693V53.945H252.224V42.2024C252.704 42.3819 253.182 42.5665 253.657 42.7563V53.945H259.033V57.8871Z" fill="#587EEC"/>
<path opacity="0.1" d="M288.763 104.221H228.182C228.182 104.221 228.182 104.221 228.203 104.236L228.176 104.221H216.938V61.1021H220.122V92.973H234.674V74.098H246.695V59.2115H259.036V74.1104H271.057V92.9854H288.763V104.221Z" fill="#587EEC"/>
<path opacity="0.1" d="M216.938 105.542V148.348H288.763V105.542H216.938ZM308.261 198.735L308.36 164.853H288.763V149.691H216.938V224.108C222.826 224.362 228.724 224.29 234.605 223.891H234.708C237.517 223.709 240.313 223.445 243.096 223.099H243.159C258.006 221.322 272.524 217.34 286.259 211.276" fill="#587EEC"/>
<path opacity="0.1" d="M316.926 149.672H333.681C333.534 158.364 331.836 166.901 328.122 174.785C325.031 181.336 320.736 187.063 315.662 192.067V164.837H316.926V149.672Z" fill="#587EEC"/>
<path opacity="0.1" d="M333.69 148.348H316.926V112.575H325.997C330.693 123.854 333.675 136.231 333.69 148.348Z" fill="#587EEC"/>
<path opacity="0.1" d="M209.645 73.0863H199.499V86.605H209.645V73.0863Z" fill="#587EEC"/>
<path opacity="0.1" d="M209.645 101.108H199.499V104.221H209.645V101.108Z" fill="#587EEC"/>
<path opacity="0.1" d="M209.645 105.542H199.499V114.624H209.645V105.542Z" fill="#587EEC"/>
<path opacity="0.1" d="M209.645 129.129H199.499V142.648H209.645V129.129Z" fill="#587EEC"/>
<path opacity="0.1" d="M209.645 157.151H199.499V170.67H209.645V157.151Z" fill="#587EEC"/>
<path opacity="0.1" d="M209.642 195.548C209.744 195.548 209.844 195.548 209.943 195.566H209.642V198.707H199.499V185.172H209.642V195.548Z" fill="#587EEC"/>
<path opacity="0.1" d="M209.642 213.188V223.631C206.251 223.336 202.87 222.935 199.499 222.427V213.188H209.642Z" fill="#587EEC"/>
<path opacity="0.1" d="M159.129 147.355H115.647V148.348H159.129V147.355Z" fill="#587EEC"/>
<path opacity="0.1" d="M159.129 149.669H115.647V153.475H159.129V149.669Z" fill="#587EEC"/>
<path opacity="0.1" d="M159.129 165.951H115.647V172.072H159.129V165.951Z" fill="#587EEC"/>
<path opacity="0.1" d="M159.126 184.548V190.668H125.115C123.639 189.509 122.18 188.318 120.739 187.097C119.743 186.253 118.756 185.386 117.75 184.548H159.126Z" fill="#587EEC"/>
<path opacity="0.1" d="M159.126 203.141V209.255H155.535C151.5 207.384 147.544 205.343 143.668 203.132L159.126 203.141Z" fill="#587EEC"/>
<path opacity="0.1" d="M243.168 109.691H234.608V118.491H243.168V109.691Z" fill="#587EEC"/>
<path opacity="0.1" d="M57.8316 68.6893H49.2718V77.4895H57.8316V68.6893Z" fill="#587EEC"/>
<path opacity="0.1" d="M57.8316 89.1299H49.2718V97.9299H57.8316V89.1299Z" fill="#587EEC"/>
<path opacity="0.1" d="M57.8316 109.571H49.2718V118.371H57.8316V109.571Z" fill="#587EEC"/>
<path opacity="0.1" d="M57.8316 130.008H49.2718V138.808H57.8316V130.008Z" fill="#587EEC"/>
<path opacity="0.1" d="M57.8316 150.449H49.2718V159.249H57.8316V150.449Z" fill="#587EEC"/>
<path opacity="0.1" d="M57.8316 170.89H49.2718V179.69H57.8316V170.89Z" fill="#587EEC"/>
<path opacity="0.1" d="M275.845 109.691H267.285V118.491H275.845V109.691Z" fill="#587EEC"/>
<path opacity="0.1" d="M243.168 131.397H234.608V140.198H243.168V131.397Z" fill="#587EEC"/>
<path opacity="0.1" d="M275.845 131.397H267.285V140.198H275.845V131.397Z" fill="#587EEC"/>
<path opacity="0.1" d="M243.168 153.101H234.608V161.901H243.168V153.101Z" fill="#587EEC"/>
<path opacity="0.1" d="M275.845 153.101H267.285V161.901H275.845V153.101Z" fill="#587EEC"/>
<path opacity="0.1" d="M243.168 174.807H234.608V183.607H243.168V174.807Z" fill="#587EEC"/>
<path opacity="0.1" d="M275.845 174.807H267.285V183.607H275.845V174.807Z" fill="#587EEC"/>
<path opacity="0.1" d="M243.168 196.513H234.608V205.313H243.168V196.513Z" fill="#587EEC"/>
<path opacity="0.1" d="M275.845 196.513H267.285V205.313H275.845V196.513Z" fill="#587EEC"/>
<path opacity="0.1" d="M234.608 223.891V218.216H243.165V223.083L234.608 223.891Z" fill="#587EEC"/>
<path opacity="0.1" d="M6.51776 93.2207V98.2548H35.812V93.2207H6.51776ZM9.43725 97.9392H7.04748V93.5301H9.45531L9.43725 97.9392ZM12.3537 97.9392H9.9459V93.5301H12.3537V97.9392ZM15.2642 97.9392H12.8564V93.5301H15.2642V97.9392ZM18.1807 97.9392H15.7758V93.5301H18.1837L18.1807 97.9392ZM21.0941 97.9392H18.6863V93.5301H21.0941V97.9392ZM24.0106 97.9392H21.6028V93.5301H24.0106V97.9392ZM26.9271 97.9392H24.5193V93.5301H26.9271V97.9392ZM29.8405 97.9392H27.4327V93.5301H29.8405V97.9392ZM32.754 97.9392H30.3462V93.5301H32.754V97.9392ZM35.6675 97.9392H33.2597V93.5301H35.6675V97.9392Z" fill="#587EEC"/>
<path opacity="0.1" d="M6.51776 107.869V112.903H35.812V107.869H6.51776ZM9.43725 112.584H7.04748V108.187H9.45531L9.43725 112.584ZM12.3537 112.584H9.9459V108.187H12.3537V112.584ZM15.2642 112.584H12.8564V108.187H15.2642V112.584ZM18.1807 112.584H15.7758V108.187H18.1837L18.1807 112.584ZM21.0941 112.584H18.6863V108.187H21.0941V112.584ZM24.0106 112.584H21.6028V108.187H24.0106V112.584ZM26.9271 112.584H24.5193V108.187H26.9271V112.584ZM29.8405 112.584H27.4327V108.187H29.8405V112.584ZM32.754 112.584H30.3462V108.187H32.754V112.584ZM35.6675 112.584H33.2597V108.187H35.6675V112.584Z" fill="#587EEC"/>
<path opacity="0.1" d="M6.51776 122.523V127.567H35.812V122.523H6.51776ZM9.43725 127.239H7.04748V122.839H9.45531L9.43725 127.239ZM12.3537 127.239H9.9459V122.839H12.3537V127.239ZM15.2642 127.239H12.8564V122.839H15.2642V127.239ZM18.1807 127.239H15.7758V122.839H18.1837L18.1807 127.239ZM21.0941 127.239H18.6863V122.839H21.0941V127.239ZM24.0106 127.239H21.6028V122.839H24.0106V127.239ZM26.9271 127.239H24.5193V122.839H26.9271V127.239ZM29.8405 127.239H27.4327V122.839H29.8405V127.239ZM32.754 127.239H30.3462V122.839H32.754V127.239ZM35.6675 127.239H33.2597V122.839H35.6675V127.239Z" fill="#587EEC"/>
<path opacity="0.1" d="M6.51776 137.178V142.206H35.812V137.178H6.51776ZM9.43725 141.893H7.04748V137.49H9.45531L9.43725 141.893ZM12.3537 141.893H9.9459V137.49H12.3537V141.893ZM15.2642 141.893H12.8564V137.49H15.2642V141.893ZM18.1807 141.893H15.7758V137.49H18.1837L18.1807 141.893ZM21.0941 141.893H18.6863V137.49H21.0941V141.893ZM24.0106 141.893H21.6028V137.49H24.0106V141.893ZM26.9271 141.893H24.5193V137.49H26.9271V141.893ZM29.8405 141.893H27.4327V137.49H29.8405V141.893ZM32.754 141.893H30.3462V137.49H32.754V141.893ZM35.6675 141.893H33.2597V137.49H35.6675V141.893Z" fill="#587EEC"/>
<path opacity="0.1" d="M6.64417 151.829C6.76155 152.302 6.89398 152.776 7.03243 153.243V152.144H9.44026V156.544H8.15207C8.19119 156.647 8.23032 156.758 8.26945 156.854H35.812V151.829H6.64417ZM12.3628 156.544H9.95493V152.144H12.3628V156.544ZM15.2732 156.544H12.8654V152.144H15.2732V156.544ZM18.1897 156.544H15.7759V152.144H18.1837L18.1897 156.544ZM21.1032 156.544H18.6953V152.144H21.1032V156.544ZM24.0197 156.544H21.6118V152.144H24.0197V156.544ZM26.9361 156.544H24.5283V152.144H26.9361V156.544ZM29.8496 156.544H27.4418V152.144H29.8496V156.544ZM32.7631 156.544H30.3553V152.144H32.7631V156.544ZM35.6766 156.544H33.2687V152.144H35.6766V156.544Z" fill="#587EEC"/>
<path opacity="0.1" d="M13.4464 166.483C13.5216 166.582 13.5938 166.694 13.6721 166.793H15.2643V168.906C15.4358 169.116 15.6044 169.327 15.7789 169.525V166.78H18.1868V171.196H17.2116C17.3079 171.298 17.4012 171.406 17.5126 171.505H35.821V166.483H13.4464ZM21.0942 171.196H18.6864V166.799H21.0942V171.196ZM24.0107 171.196H21.6028V166.799H24.0107V171.196ZM26.9271 171.196H24.5193V166.799H26.9271V171.196ZM29.8406 171.196H27.4328V166.799H29.8406V171.196ZM32.7541 171.196H30.3463V166.799H32.7541V171.196ZM35.6675 171.196H33.2597V166.799H35.6675V171.196Z" fill="#587EEC"/>
<path opacity="0.1" d="M29.5155 181.135C29.7894 181.296 30.0693 181.444 30.3522 181.605V181.45H32.76V182.843L33.2717 183.087V181.45H35.6795V184.127C35.7257 184.15 35.7741 184.169 35.824 184.182V181.135H29.5155Z" fill="#587EEC"/>
<path opacity="0.1" d="M228.182 104.221H228.201H228.182ZM209.642 195.544H209.943H209.642ZM190.298 149.078C190.355 149.276 190.404 149.474 190.458 149.669C190.41 149.474 190.358 149.276 190.298 149.078ZM228.182 104.211H228.201H228.182ZM46.3914 57.8779V59.1992H59.8361V57.8779H46.3914ZM209.642 195.544H209.943H209.642ZM190.298 149.078C190.355 149.276 190.404 149.474 190.458 149.669C190.41 149.474 190.358 149.276 190.298 149.078ZM228.182 104.211H228.201H228.182ZM209.642 195.535H209.943H209.642ZM190.298 149.078C190.355 149.276 190.404 149.474 190.458 149.669C190.41 149.474 190.358 149.276 190.298 149.078Z" fill="#587EEC"/>
<path d="M140.032 118.377C140.032 118.377 138.846 118.207 138.846 116.431C138.846 114.654 137.997 111.337 137.997 111.337C137.997 111.322 137.263 105.56 136.248 104.645C135.234 103.729 133.931 98.3508 133.931 98.3508C133.931 98.3508 133.708 95.4329 133.254 94.8048C132.799 94.1767 132.185 92.6388 131.279 90.445C130.373 88.2512 126.596 86.7319 126.596 86.7319C126.596 86.7319 119.767 82.6598 117.832 81.3324C117.656 81.2233 117.491 81.0958 117.341 80.9518C117.004 80.497 115.535 80.4877 115.535 80.4877C115.382 79.4913 115.234 78.3464 115.186 77.3099C115.186 77.1985 115.186 77.0871 115.171 76.9757C117.329 75.6643 118.954 73.5966 119.749 71.1523C119.785 71.0347 119.815 70.9109 119.848 70.7934C119.977 70.7496 120.096 70.6785 120.197 70.5848C120.299 70.491 120.379 70.3765 120.435 70.2488C120.61 69.8496 120.613 69.3824 120.829 69.0111C121.082 68.5717 121.564 68.3365 121.943 68.0054C122.9 67.17 123.147 65.7621 123.102 64.4811C123.072 63.4445 122.909 62.3986 122.972 61.3683L122.99 61.1083C123.008 60.9536 123.029 60.7989 123.057 60.6504C123.204 59.883 123.526 59.159 123.707 58.3978C123.887 57.6366 123.905 56.7795 123.484 56.1235C122.867 55.1612 121.582 54.9693 120.453 54.8703C119.174 54.7589 118.03 54.9043 117.212 53.8121C116.828 53.2412 116.397 52.7059 115.923 52.2123C115.755 52.0514 114.118 51.0241 114.118 50.9561C112.519 50.1952 110.708 50.0523 109.016 50.5538C108.167 50.8075 107.367 51.2222 106.506 51.4295C104.649 51.8813 102.512 51.3924 100.935 52.4846C100.056 53.1035 99.5291 54.0875 99.0355 55.0467C98.6342 55.8368 98.2268 56.6258 97.8135 57.4138C97.1483 58.7103 96.4711 60.0284 96.1912 61.4642C96.1324 61.7766 96.0962 62.0931 96.0829 62.411V62.4265C96.0829 62.541 96.0829 62.6555 96.0829 62.77V62.9154C96.0829 63.0237 96.0829 63.1289 96.1009 63.2248C96.119 63.3207 96.116 63.3517 96.125 63.4167C96.134 63.4816 96.1491 63.6271 96.1671 63.7261C96.1852 63.8251 96.2213 63.9984 96.2574 64.1345C96.2725 64.1933 96.2936 64.249 96.3116 64.3047C96.3417 64.4099 96.3778 64.512 96.417 64.6141C96.438 64.6667 96.4591 64.7224 96.4832 64.775C96.5283 64.8833 96.5825 64.9885 96.6367 65.0845C96.6608 65.1278 96.6788 65.168 96.7029 65.2082C96.7869 65.3521 96.8793 65.4906 96.9798 65.6229C97.6239 66.449 98.572 66.975 99.2732 67.7486C99.2732 67.7796 99.2732 67.8105 99.2732 67.8383C99.2732 67.925 99.2732 68.0085 99.2732 68.0952C99.3104 69.8204 99.7571 71.5101 100.574 73.0174C101.392 74.5247 102.555 75.8039 103.962 76.7436C103.962 76.8612 103.978 76.9819 103.984 77.0995C104.042 78.0179 104.031 78.9397 103.95 79.8565C103.828 79.708 103.674 79.5898 103.502 79.5106C103.329 79.4313 103.14 79.393 102.951 79.3985C102.822 79.392 102.692 79.4035 102.566 79.4325L102.539 79.4109V79.4387C101.877 79.6058 101.061 80.3144 100.282 82.3288C100.282 82.3288 97.9098 85.0765 96.1039 84.962C94.2981 84.8475 89.7262 87.8211 89.7262 87.8211C89.7262 87.8211 85.2657 90.7978 84.3086 93.8301C83.7736 95.5496 83.1322 97.2322 82.3884 98.8676L76.8744 110.548L75.8571 119.816C75.8571 119.816 76.4199 123.937 76.3086 124.565C76.1972 125.194 78.6231 130.859 78.6231 130.859C78.6231 130.859 86.6382 145.337 89.9128 146.08L90.1476 145.91C90.2877 145.985 90.4363 146.042 90.59 146.08L91.2642 145.591C91.3047 146.136 91.2875 146.684 91.213 147.225C90.7616 148.654 91.3816 157.983 92.1702 159.812C92.9587 161.641 92.6788 185.618 92.6788 185.618L92.5674 187.735C92.5674 187.735 92.5674 187.803 92.5945 187.92L92.5674 188.422L92.6487 188.465C92.7331 189.136 92.7056 189.817 92.5674 190.479C92.2845 191.408 92.1702 194.032 92.1702 194.032C92.1702 194.032 89.9158 208.847 90.9843 211.824C92.0528 214.8 92.9617 218.062 92.9617 218.062C92.9617 218.062 94.0904 221.775 93.0159 222.409C91.9414 223.043 88.8865 224.108 89.5155 225.655C90.0874 227.084 92.2574 230.915 92.5795 231.475L92.5524 231.769L92.11 236.698C92.1816 237.349 92.3533 237.984 92.6186 238.58C93.1032 239.653 94.0452 240.767 95.8361 240.647C96.137 240.625 96.4862 240.588 96.8233 240.541C100.101 240.09 104.137 238.586 104.137 238.586C103.928 238.449 103.735 238.286 103.565 238.1C103.404 237.94 103.276 237.747 103.19 237.534C103.104 237.321 103.06 237.093 103.063 236.862C103.111 235.965 101.476 231.689 101.07 230.637C101.007 230.485 100.974 230.398 100.974 230.398C100.974 230.398 104.7 226.394 104.08 222.845C104.08 222.845 99.9565 220.37 101.314 219.011C102.671 217.653 105.097 213.751 105.097 213.751C105.097 213.751 105.209 199.162 105.097 196.983C104.981 195.471 105.051 193.951 105.305 192.457C105.35 192.231 105.404 192.011 105.461 191.794C107.339 192.082 109.234 192.23 111.132 192.237C111.824 192.237 112.528 192.237 113.239 192.194C113.239 192.4 113.248 192.623 113.266 192.862C113.422 196.476 113.714 202.813 113.952 205.168C114.289 208.544 116.152 217.641 116.152 217.641C116.152 217.641 112.598 219.986 116.772 225.766C116.772 225.766 116.772 227.861 116.495 228.164C116.2 229.156 115.961 230.164 115.782 231.184C115.607 232.273 115.535 233.375 115.818 233.947C116.495 235.315 120.558 235.204 120.558 235.204L120.658 235.185C121.425 235.104 122.2 235.18 122.938 235.408C123.677 235.637 124.363 236.015 124.959 236.519C126.503 237.794 132.363 237.234 135.535 236.828C136.778 236.667 137.609 236.519 137.609 236.519C137.649 236.374 137.663 236.223 137.651 236.073C137.618 235.272 137.007 233.514 132.865 231.945C132.865 231.945 128.971 229.253 129.025 226.908H128.944H128.492C128.82 226.889 129.031 226.908 129.031 226.908C129.031 226.908 127.505 221.184 128.128 220.719C128.751 220.255 126.885 213.912 126.885 213.912C126.885 213.912 125.817 203.268 125.759 202.522C125.762 201.882 125.856 201.246 126.039 200.635L125.759 194.799C125.759 194.799 125.705 192.859 125.759 192.228C125.75 191.68 125.707 191.133 125.63 190.591C125.603 190.374 125.576 190.148 125.546 189.925C127.005 189.545 127.953 189.192 127.953 189.192L127.785 168.878C129.025 166.403 129.254 160.972 129.248 157.12C129.248 154.645 129.139 152.813 129.139 152.813L130.834 149.969C130.834 149.969 131.225 146.566 130.605 145.82C130.331 145.483 130.455 145.133 130.68 144.845C130.798 144.75 130.921 144.663 131.051 144.585C131.051 144.585 131.032 144.557 131.011 144.517C131.13 144.416 131.256 144.323 131.388 144.242C131.388 144.242 130.786 143.283 131.324 142.877C131.83 143.23 132.282 143.496 132.625 143.713C132.601 143.939 132.577 144.069 132.577 144.069L132.721 143.759C133.052 143.951 133.254 144.069 133.254 144.069C133.254 144.069 135.908 138.632 135.851 137.83C135.794 137.029 137.657 133.653 137.657 133.653C137.657 133.653 137.883 131.88 138.9 131.138C139.917 130.395 139.689 125.014 139.689 125.014C139.689 125.014 139.972 122.211 140.649 121.066C141.326 119.921 140.032 118.377 140.032 118.377ZM89.2386 115.991L89.2898 117.288C88.9888 116.79 88.7721 116.431 88.7721 116.431L89.2386 115.991Z" fill="url(#paint0_linear_6_207)"/>
<path d="M133.398 141.72L132.748 144.567C132.748 144.567 127.541 141.834 126.602 138.363C125.663 134.891 128.173 133.573 128.173 133.573L133.025 135.686L133.398 141.72Z" fill="white"/>
<path opacity="0.1" d="M133.398 141.72L132.748 144.567C132.748 144.567 127.541 141.834 126.602 138.363C125.663 134.891 128.173 133.573 128.173 133.573L133.025 135.686L133.398 141.72Z" fill="black"/>
<path d="M104.176 238.604C104.176 238.604 99.3606 240.424 96.0498 240.653C94.2921 240.773 93.3681 239.666 92.8925 238.598C92.6328 238.005 92.4652 237.373 92.3959 236.726L92.8263 231.822L93.0551 229.21L100.089 227.332L101.085 230.463L101.179 230.701C101.579 231.747 103.183 236.002 103.135 236.89C103.133 237.117 103.176 237.343 103.26 237.553C103.345 237.763 103.47 237.953 103.628 238.112C103.79 238.299 103.974 238.465 104.176 238.604Z" fill="white"/>
<path d="M137.07 236.11C137.082 236.259 137.068 236.409 137.028 236.553C137.028 236.553 126.729 238.319 124.622 236.553C124.028 236.037 123.335 235.654 122.589 235.429C121.843 235.204 121.059 235.142 120.288 235.247C120.288 235.247 116.303 235.358 115.637 234.009C115.361 233.443 115.433 232.345 115.604 231.262C115.779 230.247 116.013 229.244 116.303 228.257L116.462 228.127L117.41 227.344L128.51 227.007H128.595C128.54 229.34 132.363 232.017 132.363 232.017C136.423 233.564 137.022 235.312 137.07 236.11Z" fill="white"/>
<path opacity="0.1" d="M137.07 236.11C137.081 236.259 137.065 236.409 137.025 236.553C137.025 236.553 126.729 238.319 124.622 236.553C124.028 236.037 123.336 235.654 122.59 235.429C121.844 235.205 121.061 235.142 120.291 235.247C120.291 235.247 116.303 235.358 115.64 234.009C115.364 233.44 115.433 232.344 115.604 231.261C117.139 231.419 119.562 231.812 120.513 232.75C121.952 234.176 124.39 235.6 125.886 235.711C127.057 235.788 134.06 236.017 137.07 236.11Z" fill="black"/>
<path opacity="0.1" d="M104.176 238.604C104.176 238.604 99.3606 240.424 96.0499 240.653C94.2922 240.773 93.3682 239.665 92.8956 238.595C94.1206 239.019 95.8211 239.464 96.715 239.056C97.7745 238.573 101.531 238.261 103.638 238.127C103.798 238.308 103.979 238.468 104.176 238.604Z" fill="black"/>
<path d="M111.321 91.9829C107.349 90.3955 102.238 85.1508 103.514 82.7001C103.797 82.0817 103.966 81.4143 104.011 80.7322C104.093 79.8063 104.105 78.8752 104.047 77.9474C103.957 76.4278 103.779 74.9151 103.514 73.4174C103.514 73.4174 115.917 73.7051 115.195 75.5833C114.984 76.1341 114.951 77.0902 115.008 78.1608C115.066 79.2315 115.216 80.4413 115.373 81.4655C115.589 82.8703 115.806 83.9409 115.806 83.9409C115.806 83.9409 115.048 85.0332 114.602 85.092C114.157 85.1508 117.022 94.2448 111.321 91.9829Z" fill="#CF6F80"/>
<path opacity="0.1" d="M101.169 230.701L101.076 230.807C97.3681 226.196 92.8835 231.942 92.8835 231.942L92.8173 231.822L93.0461 229.21L100.08 227.332L101.076 230.463L101.169 230.701Z" fill="black"/>
<path opacity="0.1" d="M128.598 227.332C128.598 227.332 125.889 227.273 124.444 228.585C122.999 229.897 116.017 228.87 116.318 228.585C116.407 228.444 116.461 228.282 116.474 228.115L117.422 227.332L128.522 226.994C128.565 227.202 128.598 227.332 128.598 227.332Z" fill="black"/>
<path d="M105.783 191.126C105.582 191.639 105.429 192.17 105.326 192.713C105.075 194.2 105.005 195.714 105.118 197.218C105.23 199.384 105.118 213.9 105.118 213.9C105.118 213.9 102.738 217.771 101.41 219.135C100.083 220.5 104.119 222.95 104.119 222.95C104.721 226.478 101.073 230.463 101.073 230.463C97.3651 225.853 92.8805 231.602 92.8805 231.602C92.8805 231.602 90.4426 227.27 89.8346 225.723C89.2267 224.176 92.2154 223.105 93.2658 222.477C94.3162 221.849 93.2146 218.145 93.2146 218.145C93.2146 218.145 92.3267 214.899 91.2733 211.938C90.2199 208.977 92.4351 194.235 92.4351 194.235C92.4351 194.235 92.5495 191.618 92.8234 190.705C92.9615 190.046 92.989 189.368 92.9046 188.7C92.8866 188.474 92.8655 188.285 92.8504 188.158C92.8354 188.031 92.8234 187.973 92.8234 187.973L92.8655 187.898L94.3704 185.015C94.3704 185.015 106.506 189.309 105.783 191.126Z" fill="#587EEC"/>
<path d="M128.598 226.991C128.598 226.991 125.889 226.933 124.444 228.229C122.999 229.526 116.017 228.514 116.318 228.229C116.619 227.944 116.595 225.837 116.595 225.837C112.498 220.088 115.993 217.755 115.993 217.755C115.993 217.755 114.163 208.704 113.832 205.347C113.6 203.002 113.314 196.699 113.16 193.1C113.094 191.553 113.055 190.489 113.055 190.489L116.402 189.795L116.832 189.706L124.905 188.041C124.905 188.041 125.127 189.588 125.278 190.854C125.353 191.394 125.395 191.939 125.404 192.484C125.35 193.103 125.404 195.04 125.404 195.04L125.678 200.848C125.499 201.457 125.407 202.09 125.404 202.726C125.458 203.466 126.509 214.054 126.509 214.054C126.509 214.054 128.336 220.373 127.713 220.828C127.09 221.282 128.598 226.991 128.598 226.991Z" fill="#587EEC"/>
<path opacity="0.1" d="M115.195 75.5833C114.984 76.1341 114.951 77.0902 115.008 78.1608C113.347 79.1893 111.437 79.7152 109.498 79.678C107.559 79.6407 105.67 79.042 104.047 77.9504C103.957 76.4298 103.78 74.9161 103.514 73.4174C103.514 73.4174 115.917 73.6989 115.195 75.5833Z" fill="black"/>
<path d="M119.99 68.7449C119.992 69.86 119.821 70.9682 119.484 72.028C118.73 74.4024 117.184 76.4263 115.118 77.742C113.053 79.0578 110.602 79.5806 108.198 79.2181C105.794 78.8555 103.593 77.631 101.982 75.761C100.371 73.8909 99.4557 71.4957 99.3967 68.9987C99.3967 68.912 99.3967 68.8316 99.3967 68.7449C99.3733 67.3394 99.6224 65.9431 100.129 64.6376C100.636 63.3321 101.391 62.1434 102.35 61.1409C103.308 60.1385 104.452 59.3423 105.713 58.7988C106.974 58.2553 108.327 57.9753 109.695 57.9753C111.062 57.9753 112.416 58.2553 113.677 58.7988C114.938 59.3423 116.081 60.1385 117.039 61.1409C117.998 62.1434 118.753 63.3321 119.26 64.6376C119.767 65.9431 120.016 67.3394 119.993 68.7449H119.99Z" fill="#CF6F80"/>
<path opacity="0.1" d="M111.321 91.9828C107.349 90.3954 102.238 85.1507 103.514 82.7C103.797 82.0816 103.966 81.4141 104.011 80.7321L109.449 85.327L112.814 88.1645L115.373 81.4685C115.589 82.8733 115.806 83.9439 115.806 83.9439C115.806 83.9439 115.048 85.0362 114.602 85.095C114.157 85.1537 117.022 94.2447 111.321 91.9828Z" fill="black"/>
<path d="M125.386 112.29L120.844 190.73L114.921 191.129L99.5834 145.646L102.1 91.6486L102.629 80.2401L109.449 85.9985L112.817 88.8359L115.451 81.945L120.348 86.3327L125.386 112.29Z" fill="#587EEC"/>
<path opacity="0.1" d="M105.783 191.126C105.582 191.639 105.429 192.17 105.326 192.713C101.016 192.029 96.83 190.685 92.9076 188.725L92.8264 188.681L92.8534 188.183L92.8685 187.923L94.3734 185.039C94.3734 185.039 106.506 189.31 105.783 191.126Z" fill="black"/>
<path opacity="0.1" d="M116.471 192.726C115.369 192.918 114.258 193.049 113.142 193.116C113.076 191.568 113.037 190.504 113.037 190.504L116.384 189.811L116.471 192.726Z" fill="black"/>
<path opacity="0.1" d="M125.26 190.869C123.12 191.441 119.815 192.085 116.856 191.683L116.814 189.721L124.887 188.056C124.887 188.056 125.109 189.588 125.26 190.869Z" fill="black"/>
<path opacity="0.1" d="M116.802 192.042C104.462 194.208 93.1604 187.998 93.1604 187.998L93.2688 185.894C93.2688 185.894 93.5487 162.04 92.7722 160.211C91.9956 158.382 91.3907 149.109 91.8301 147.686C92.2695 146.262 90.2259 124.918 90.2259 124.918L89.8948 116.254L77.7774 111.207L83.195 99.5977C83.9268 97.97 84.5561 96.2956 85.0792 94.585C86.0212 91.5712 90.3944 88.61 90.3944 88.61C90.3944 88.61 94.879 85.6519 96.6518 85.7633C98.4245 85.8747 100.748 83.1455 100.748 83.1455C102.464 78.6496 104.017 80.6856 104.017 80.6856C104.017 80.8991 104.017 80.6856 103.932 81.3509C103.33 86.2862 113.666 101.881 113.814 102.157L114.798 126.806L115.794 157.999L116.802 192.042Z" fill="black"/>
<path d="M116.471 192.042C104.131 194.208 92.8263 187.998 92.8263 187.998L92.9377 185.894C92.9377 185.894 93.2176 162.04 92.4381 160.211C91.6585 158.382 91.0566 149.109 91.499 147.686C91.9415 146.262 89.8948 124.918 89.8948 124.918L89.5607 116.254L77.4373 111.189L82.8549 99.5792C83.5851 97.9508 84.2144 96.2766 84.7391 94.5666C85.6781 91.5528 90.0543 88.5916 90.0543 88.5916C90.0543 88.5916 94.5389 85.6334 96.3087 85.7448C98.0784 85.8562 100.405 83.1271 100.405 83.1271C102.124 78.6311 104.017 80.6672 104.017 80.6672C104.017 80.8807 103.836 80.9766 103.932 81.3324C105.257 86.1192 113.335 101.863 113.482 102.138L114.479 126.787L115.475 157.98L116.471 192.042Z" fill="white"/>
<path opacity="0.1" d="M113.145 102.841C111.818 102.271 104.787 94.0189 104.787 94.0189V92.1407C104.531 91.5218 103.011 91.8993 101.777 92.3325L102.307 80.9241L102.909 81.4377C104.227 86.2214 112.992 102.565 113.145 102.841Z" fill="black"/>
<path d="M113.479 102.157C112.149 101.587 105.118 93.335 105.118 93.335V91.4568C104.862 90.8379 103.343 91.2154 102.109 91.6486L102.641 80.2401L103.243 80.7538C104.565 85.5375 113.332 101.884 113.479 102.157Z" fill="white"/>
<path opacity="0.1" d="M93.1604 143.313C93.326 143.313 101.741 142.404 101.741 142.404C101.741 142.404 106.837 152.704 106.503 155.211C106.169 157.717 105.564 159.936 103.514 159.543C101.464 159.15 92.4832 159.852 92.4832 159.852L93.1604 143.313Z" fill="black"/>
<path d="M92.8263 142.63C92.9918 142.63 101.407 141.72 101.407 141.72C101.407 141.72 106.5 152.024 106.169 154.527C105.838 157.03 105.227 159.252 103.18 158.859C101.133 158.466 92.1491 159.169 92.1491 159.169L92.8263 142.63Z" fill="white"/>
<path d="M99.168 137.793C99.168 137.793 106.891 142.06 107.057 143.363C107.222 144.666 103.126 142.794 102.241 142.568C101.659 142.424 101.066 142.328 100.468 142.283L94.566 142.447L99.168 137.793Z" fill="#CF6F80"/>
<path opacity="0.1" d="M110.99 103.373C111.439 103.373 111.803 102.999 111.803 102.537C111.803 102.076 111.439 101.702 110.99 101.702C110.542 101.702 110.178 102.076 110.178 102.537C110.178 102.999 110.542 103.373 110.99 103.373Z" fill="black"/>
<path d="M110.99 103.033C111.439 103.033 111.803 102.659 111.803 102.197C111.803 101.736 111.439 101.362 110.99 101.362C110.542 101.362 110.178 101.736 110.178 102.197C110.178 102.659 110.542 103.033 110.99 103.033Z" fill="#3F3D56"/>
<path opacity="0.1" d="M112.486 139.538C112.935 139.538 113.299 139.164 113.299 138.703C113.299 138.241 112.935 137.867 112.486 137.867C112.037 137.867 111.674 138.241 111.674 138.703C111.674 139.164 112.037 139.538 112.486 139.538Z" fill="black"/>
<path d="M112.486 139.195C112.935 139.195 113.299 138.821 113.299 138.36C113.299 137.898 112.935 137.524 112.486 137.524C112.037 137.524 111.674 137.898 111.674 138.36C111.674 138.821 112.037 139.195 112.486 139.195Z" fill="#3F3D56"/>
<path opacity="0.1" d="M111.8 121.456C112.249 121.456 112.613 121.082 112.613 120.62C112.613 120.159 112.249 119.785 111.8 119.785C111.351 119.785 110.987 120.159 110.987 120.62C110.987 121.082 111.351 121.456 111.8 121.456Z" fill="black"/>
<path d="M111.8 121.115C112.249 121.115 112.613 120.741 112.613 120.28C112.613 119.819 112.249 119.444 111.8 119.444C111.351 119.444 110.987 119.819 110.987 120.28C110.987 120.741 111.351 121.115 111.8 121.115Z" fill="#3F3D56"/>
<path d="M130.533 142.11C130.533 142.11 131.087 142.964 130.533 143.363C129.979 143.762 130.587 144.728 130.587 144.728C130.587 144.728 129.206 145.56 129.814 146.309C130.422 147.058 130.036 150.44 130.036 150.44L128.375 153.268C128.375 153.268 128.474 155.09 128.48 157.553C128.48 161.396 128.261 166.799 127.045 169.262L127.213 189.471C127.213 189.471 121.395 191.655 116.525 190.99L115.803 158.562C115.803 158.562 116.856 140.173 117.245 136.645C117.472 134.814 117.564 132.968 117.522 131.122C117.522 131.122 117.356 125.602 116.799 123.04C116.799 123.04 116.197 111.941 116.137 108.868C116.11 107.398 116.185 103.11 116.27 99.0316C116.363 94.5727 116.468 90.3676 116.468 90.3676L115.37 81.4314C115.37 81.4314 116.468 81.3169 116.799 81.7718C116.948 81.9142 117.109 82.0417 117.281 82.1524C119.177 83.4705 125.877 87.524 125.877 87.524C125.877 87.524 129.585 89.0402 130.473 91.2124C131.361 93.3845 131.978 94.9255 132.408 95.5443C132.838 96.1632 133.073 99.0718 133.073 99.0718C133.073 99.0718 134.349 104.425 135.346 105.331C136.342 106.238 137.07 112.006 137.07 112.006L128.267 119.123C128.267 119.123 127.493 130.961 127.328 131.419C127.162 131.877 130.533 142.11 130.533 142.11Z" fill="white"/>
<path d="M130.867 142.11C130.867 142.11 131.418 142.964 130.867 143.363C130.316 143.762 130.918 144.728 130.918 144.728C130.918 144.728 129.546 145.569 130.148 146.318C130.75 147.067 130.37 150.449 130.37 150.449L128.709 153.277C128.709 153.277 128.808 155.1 128.817 157.563C128.817 161.406 128.598 166.808 127.382 169.271L127.547 189.48C127.547 189.48 121.72 191.664 116.856 190.999L116.137 158.571C116.137 158.571 117.19 140.182 117.579 136.655C117.806 134.823 117.898 132.977 117.853 131.131C117.853 131.131 117.687 125.611 117.133 123.049C117.133 123.049 116.531 111.95 116.468 108.878C116.441 107.408 116.519 103.119 116.601 99.0409C116.694 94.5821 116.799 90.377 116.799 90.377L115.349 81.3201C115.349 81.3201 116.799 81.3201 117.133 81.7811C117.28 81.9252 117.442 82.0528 117.615 82.1617C119.511 83.4799 126.214 87.5333 126.214 87.5333C126.214 87.5333 129.919 89.0495 130.807 91.2217C131.695 93.3939 132.312 94.9348 132.745 95.5537C133.178 96.1725 133.407 99.0811 133.407 99.0811C133.407 99.0811 134.683 104.434 135.68 105.341C136.676 106.247 137.395 112.003 137.395 112.003L128.592 119.12C128.592 119.12 127.818 130.958 127.649 131.416C127.481 131.874 130.867 142.11 130.867 142.11Z" fill="white"/>
<path opacity="0.1" d="M120.324 93.004L121.118 95.3865L116.935 99.7185C117.028 95.2628 117.133 91.0546 117.133 91.0546L115.683 81.9977C115.683 81.9977 117.133 81.9977 117.467 82.4587C117.614 82.6024 117.775 82.729 117.949 82.8362L121.507 93.3877L120.324 93.004Z" fill="black"/>
<path d="M119.99 92.3201L120.787 94.7027L116.604 99.0347C116.697 94.5758 116.802 90.3707 116.802 90.3707L115.349 81.3137C115.349 81.3137 116.802 81.3137 117.133 81.7748C117.281 81.918 117.442 82.0455 117.615 82.1554L121.175 92.7038L119.99 92.3201Z" fill="white"/>
<path opacity="0.1" d="M119.99 68.7449C119.992 69.8599 119.821 70.9682 119.484 72.0279C119.427 72.037 119.369 72.0343 119.313 72.02C119.257 72.0056 119.205 71.9799 119.159 71.9443C119.081 69.1595 117.747 66.5449 116.107 64.3201C115.646 63.6484 115.088 63.0535 114.452 62.5564C113.808 62.0595 113.008 61.8267 112.206 61.9035C111.303 62.0303 110.506 62.6616 109.594 62.742C108.39 62.8441 107.312 61.987 106.118 61.9437C105.632 61.9485 105.153 62.0597 104.712 62.2699C104.271 62.4801 103.879 62.7845 103.562 63.1628C102.935 63.9263 102.468 64.8157 102.193 65.7744C101.72 67.2282 101.462 68.747 101.428 70.2796C101.413 71.146 101.332 72.2321 100.549 72.5477C100.608 71.9106 100.538 71.2677 100.343 70.66C100.147 70.0523 99.8313 69.4928 99.4148 69.0172L99.3967 68.9986C99.3967 68.912 99.3967 68.8315 99.3967 68.7449C99.3733 67.3394 99.6224 65.9431 100.129 64.6376C100.636 63.3321 101.391 62.1434 102.35 61.1409C103.308 60.1385 104.452 59.3422 105.713 58.7988C106.974 58.2553 108.327 57.9753 109.695 57.9753C111.062 57.9753 112.416 58.2553 113.677 58.7988C114.938 59.3422 116.081 60.1385 117.039 61.1409C117.998 62.1434 118.753 63.3321 119.26 64.6376C119.767 65.9431 120.016 67.3394 119.993 68.7449H119.99Z" fill="black"/>
<path d="M113.958 51.9339C112.394 51.1775 110.615 51.0345 108.956 51.5316C108.122 51.7853 107.336 52.1969 106.491 52.4042C104.685 52.8529 102.578 52.3671 101.028 53.4532C100.167 54.072 99.6495 55.0498 99.1679 55.9997L97.964 58.3576C97.3079 59.6479 96.6457 60.9599 96.3718 62.3801C96.0979 63.8004 96.2635 65.3908 97.1393 66.5326C97.7774 67.365 98.7194 67.8879 99.4117 68.6708C99.8264 69.147 100.141 69.7061 100.336 70.313C100.53 70.92 100.601 71.5618 100.543 72.1982C101.329 71.8888 101.404 70.7996 101.422 69.9332C101.456 68.4006 101.713 66.8818 102.187 65.428C102.461 64.469 102.928 63.5795 103.556 62.8164C103.874 62.4384 104.266 62.1342 104.706 61.924C105.147 61.7138 105.626 61.6024 106.111 61.5973C107.315 61.6406 108.396 62.4946 109.588 62.3925C110.491 62.3151 111.291 61.6808 112.2 61.557C113.002 61.4791 113.803 61.712 114.446 62.2099C115.082 62.7063 115.639 63.3013 116.098 63.9737C117.741 66.1985 119.075 68.8069 119.153 71.598C119.493 71.8548 119.984 71.5206 120.152 71.1245C120.321 70.7285 120.327 70.2643 120.54 69.8868C120.787 69.4505 121.26 69.2185 121.63 68.8905C122.569 68.0581 122.804 66.6564 122.768 65.3847C122.732 64.1129 122.491 62.8226 122.725 61.5725C122.867 60.8051 123.186 60.0873 123.361 59.3292C123.535 58.5711 123.556 57.7202 123.144 57.0673C122.542 56.108 121.275 55.9193 120.17 55.8296C118.915 55.7182 117.792 55.8605 116.992 54.7744C116.616 54.2076 116.193 53.6755 115.728 53.184C115.568 53.0231 113.958 52.0019 113.958 51.9339Z" fill="#512E4E"/>
<path opacity="0.1" d="M81.2447 117.185L78.0995 111.207L77.1033 120.431C77.1033 120.431 77.6571 124.528 77.5457 125.156C77.4343 125.784 79.8151 131.416 79.8151 131.416C79.8151 131.416 87.6797 145.817 90.8911 146.559L101.741 138.588L98.864 134.832C98.864 134.832 97.8678 134.433 97.618 134.832C97.618 134.832 92.2756 125.382 91.7218 124.698C91.168 124.014 91.2764 122.65 91.2764 122.65C91.2764 122.65 90.4457 121.74 90.7226 120.886C90.9995 120.032 89.1183 117.071 89.1183 117.071L90.8339 115.422L81.2447 117.185Z" fill="black"/>
<path d="M78.265 110.527L77.4343 111.207L76.438 120.431C76.438 120.431 76.9919 124.528 76.8805 125.156C76.7691 125.785 79.1529 131.416 79.1529 131.416C79.1529 131.416 87.0144 145.817 90.2259 146.559L101.079 138.589L98.1988 134.832C98.1988 134.832 97.2026 134.433 96.9527 134.832C96.9527 134.832 91.6104 125.382 91.0566 124.698C90.5028 124.015 90.6141 122.65 90.6141 122.65C90.6141 122.65 89.7834 121.74 90.0603 120.886C90.3372 120.032 88.4531 117.071 88.4531 117.071L90.1687 115.422L78.265 110.527Z" fill="white"/>
<path opacity="0.1" d="M129.814 146.662C130.415 147.413 130.036 150.789 130.036 150.789L128.375 153.617C128.375 153.617 128.474 155.443 128.48 157.903L125.687 158.8C125.435 158.881 125.167 158.899 124.907 158.852C124.646 158.805 124.4 158.695 124.19 158.531C123.979 158.366 123.81 158.152 123.696 157.907C123.582 157.662 123.527 157.392 123.535 157.12L124.017 141.151L130.533 143.713C129.979 144.109 130.587 145.08 130.587 145.08C130.587 145.08 129.206 145.91 129.814 146.662Z" fill="black"/>
<path d="M130.148 146.318C130.75 147.07 130.37 150.449 130.37 150.449L128.709 153.277C128.709 153.277 128.808 155.1 128.817 157.563L125.973 158.475C125.726 158.554 125.464 158.571 125.209 158.525C124.954 158.479 124.713 158.371 124.507 158.21C124.301 158.049 124.136 157.84 124.024 157.6C123.912 157.359 123.858 157.095 123.866 156.829L124.351 140.81L130.87 143.372C130.313 143.768 130.921 144.737 130.921 144.737C130.921 144.737 129.546 145.569 130.148 146.318Z" fill="white"/>
<path d="M132.306 138.706C132.306 138.706 131.863 141.612 130.756 141.782C129.648 141.952 129.151 146.482 128.047 146.321C126.942 146.16 127.674 142.11 127.713 141.324C127.752 140.538 126.509 137.283 127.439 136.543C128.369 135.804 131.312 136.543 131.312 136.543L132.306 138.706Z" fill="#CF6F80"/>
<path opacity="0.1" d="M134.662 116.331L136.751 111.999C136.751 111.999 137.582 115.301 137.582 117.065C137.582 118.828 138.744 119.002 138.744 119.002C138.744 119.002 140.017 120.549 139.346 121.675C138.674 122.801 138.403 125.605 138.403 125.605C138.403 125.605 138.623 130.955 137.627 131.694C136.631 132.434 136.423 134.201 136.423 134.201C136.423 134.201 134.593 137.558 134.65 138.356C134.707 139.155 132.104 144.56 132.104 144.56C132.104 144.56 133.377 137.843 125.958 134.94C125.958 134.94 125.901 132.66 126.455 132.035C127.008 131.41 127.872 131.125 127.331 127.966C126.789 124.807 127.174 121.032 127.174 120.273C127.174 119.515 128.835 114.787 128.835 114.787L134.662 116.331Z" fill="black"/>
<path d="M135.565 111.381L137.389 112C137.389 112 138.223 115.301 138.223 117.065C138.223 118.829 139.385 119.002 139.385 119.002C139.385 119.002 140.658 120.549 139.987 121.675C139.315 122.802 139.048 125.605 139.048 125.605C139.048 125.605 139.267 130.955 138.271 131.695C137.275 132.434 137.052 134.201 137.052 134.201C137.052 134.201 135.225 137.558 135.282 138.357C135.34 139.155 132.733 144.561 132.733 144.561C132.733 144.561 134.009 137.843 126.587 134.94C126.587 134.94 126.533 132.66 127.087 132.035C127.641 131.41 128.504 131.125 127.963 127.966C127.421 124.807 127.806 121.032 127.806 120.274C127.806 119.516 129.467 114.788 129.467 114.788L135.565 111.381Z" fill="white"/>
<path opacity="0.1" d="M95.2793 223.662C95.2793 223.662 98.1868 221.784 100.095 223.149C102.003 224.513 95.2793 223.662 95.2793 223.662Z" fill="black"/>
<path opacity="0.1" d="M117.871 217.854C117.871 217.854 120.444 217.514 122.605 219.906C124.766 222.298 117.871 217.854 117.871 217.854Z" fill="black"/>
<g opacity="0.1">
<path opacity="0.1" d="M121.636 68.2127C121.266 68.5407 120.79 68.7759 120.543 69.2122C120.333 69.5866 120.327 70.0476 120.158 70.4499C119.99 70.8521 119.499 71.1801 119.159 70.9264C119.081 68.1415 117.744 65.5269 116.104 63.299C115.645 62.6267 115.088 62.0317 114.452 61.5353C113.807 61.0374 113.006 60.8046 112.203 60.8824C111.3 61.0093 110.506 61.6405 109.594 61.7178C108.39 61.8231 107.309 60.9659 106.115 60.9226C105.629 60.9276 105.15 61.0392 104.71 61.25C104.27 61.4608 103.878 61.7659 103.562 62.1449C102.934 62.9067 102.467 63.7952 102.193 64.7533C101.72 66.2072 101.462 67.7259 101.428 69.2586C101.41 70.1219 101.332 71.1987 100.555 71.5205C100.574 71.7491 100.574 71.9788 100.555 72.2074C101.338 71.898 101.416 70.8088 101.434 69.9424C101.468 68.4097 101.726 66.891 102.199 65.4371C102.474 64.4781 102.94 63.5886 103.568 62.8256C103.885 62.4477 104.277 62.1435 104.717 61.9333C105.157 61.723 105.635 61.6116 106.121 61.6065C107.324 61.6498 108.408 62.5038 109.6 62.4017C110.503 62.3243 111.303 61.69 112.209 61.5662C113.012 61.4884 113.813 61.7212 114.458 62.2191C115.094 62.7155 115.651 63.3105 116.11 63.9828C117.75 66.2076 119.087 68.8161 119.165 71.6071C119.505 71.8639 119.996 71.5298 120.164 71.1337C120.333 70.7376 120.339 70.2735 120.549 69.896C120.796 69.4597 121.272 69.2276 121.642 68.8996C122.581 68.0673 122.816 66.6656 122.78 65.3938C122.78 65.3536 122.78 65.3134 122.78 65.2762C122.723 66.3778 122.437 67.501 121.636 68.2127Z" fill="black"/>
<path opacity="0.1" d="M99.4178 67.993C98.7255 67.2101 97.7805 66.6872 97.1454 65.8579C96.6106 65.1238 96.3052 64.2401 96.2695 63.3237C96.1748 64.4689 96.4859 65.6107 97.1454 66.5387C97.7805 67.371 98.7255 67.894 99.4178 68.6768C100.082 69.4426 100.481 70.4132 100.552 71.4369C100.599 70.8139 100.522 70.1877 100.327 69.5959C100.132 69.0042 99.8227 68.4589 99.4178 67.993Z" fill="black"/>
<path opacity="0.1" d="M123.367 58.6514C123.189 59.4095 122.873 60.1304 122.729 60.8947C122.643 61.4055 122.612 61.9242 122.635 62.4419C122.645 62.147 122.676 61.8533 122.729 61.5631C122.873 60.7957 123.189 60.0778 123.367 59.3197C123.47 58.9016 123.504 58.4684 123.466 58.0387C123.447 58.2451 123.414 58.4499 123.367 58.6514Z" fill="black"/>
</g>
<path opacity="0.1" d="M41.049 236.243C57.246 236.243 70.3763 234.075 70.3763 231.401C70.3763 228.726 57.246 226.558 41.049 226.558C24.852 226.558 11.7217 228.726 11.7217 231.401C11.7217 234.075 24.852 236.243 41.049 236.243Z" fill="#587EEC"/>
<path d="M41.9941 138.635H40.107V182.317H41.9941V138.635Z" fill="#535461"/>
<path d="M53.8526 182.184L53.7352 184.152L53.5667 186.936L53.4974 188.094L53.3319 190.879L53.2597 192.036L53.0911 194.821L51.1889 226.404C51.1063 227.763 50.523 229.038 49.5579 229.97C48.5928 230.903 47.3184 231.422 45.9941 231.423H36.1039C34.7799 231.422 33.5058 230.903 32.5412 229.97C31.5766 229.038 30.994 227.762 30.912 226.404L29.0189 194.799L28.8503 192.014L28.7811 190.857L28.6126 188.072L28.5434 186.915L28.3748 184.13L28.2544 182.162C28.2335 181.783 28.2881 181.404 28.4148 181.048C28.5416 180.691 28.7378 180.366 28.9914 180.09C29.2451 179.814 29.5508 179.595 29.8899 179.445C30.2289 179.296 30.5942 179.219 30.9632 179.219H51.1919C51.5596 179.223 51.9226 179.303 52.2588 179.456C52.5949 179.61 52.8969 179.832 53.1462 180.11C53.3956 180.387 53.5869 180.715 53.7083 181.071C53.8298 181.428 53.8789 181.807 53.8526 182.184Z" fill="#3F3D56"/>
<path d="M53.7353 184.152L53.5667 186.927H28.5313L28.3628 184.152H53.7353Z" fill="#9D9CB5"/>
<path d="M53.4976 188.084L53.332 190.863H28.7692L28.6006 188.084H53.4976Z" fill="#9D9CB5"/>
<path d="M53.2597 192.023L53.0942 194.799H29.0069L28.8383 192.023H53.2597Z" fill="#9D9CB5"/>
<path d="M25.4824 155.007C36.4711 163.182 41.058 175.967 41.058 175.967C41.058 175.967 27.815 175.5 16.8233 167.325C5.83154 159.15 1.25366 146.368 1.25366 146.368C1.25366 146.368 14.4907 146.832 25.4824 155.007Z" fill="#587EEC"/>
<path d="M1.24469 146.368C1.24469 146.368 14.9934 154.211 19.4027 160.706C23.812 167.201 41.0581 175.967 41.0581 175.967" stroke="#535461" stroke-width="2" stroke-miterlimit="10"/>
<path d="M32.5765 138.539C38.5569 142.986 41.058 149.945 41.058 149.945C41.058 149.945 33.8496 149.691 27.8661 145.244C21.8827 140.798 19.3876 133.836 19.3876 133.836C19.3876 133.836 26.593 134.089 32.5765 138.539Z" fill="#587EEC"/>
<path d="M19.3876 133.836C19.3876 133.836 26.8699 138.106 29.2687 141.639C31.6675 145.173 41.058 149.945 41.058 149.945" stroke="#535461" stroke-width="2" stroke-miterlimit="10"/>
<path d="M49.7413 149.592C42.87 157.355 41.4163 167.501 41.4163 167.501C41.4163 167.501 51.1047 165.057 57.9701 157.29C64.8354 149.524 66.2951 139.381 66.2951 139.381C66.2951 139.381 56.6126 141.828 49.7413 149.592Z" fill="#587EEC"/>
<path d="M66.3011 139.384C66.3011 139.384 57.3501 147.342 55.0747 152.825C52.7993 158.308 41.4163 167.501 41.4163 167.501" stroke="#535461" stroke-width="2" stroke-miterlimit="10"/>
<path d="M301.979 146.859C301.979 146.859 297.01 121.443 298.912 118.281C298.912 118.281 298.981 115.341 298.867 111.594C298.867 111.452 298.867 111.309 298.867 111.164C299.202 111.393 299.551 111.6 299.912 111.783C301.664 112.708 303.676 112.976 305.6 112.538L304.095 110.814C303.734 110.403 303.358 109.957 303.279 109.413C303.201 108.868 303.418 108.382 303.605 107.896C305.034 104.183 305.109 99.5141 302.355 96.6797C300.029 94.2972 299.463 91.2215 296.938 89.0462C295.093 87.4527 294.079 85.1165 293.121 82.8577C292.312 80.9485 291.496 79.0239 291.033 77.0002C290.671 75.4191 290.527 73.7822 290.03 72.2382C289.534 70.6942 288.604 69.1934 287.15 68.5034C286.632 68.259 286.057 68.1197 285.585 67.7948C284.965 67.3647 284.592 66.6654 284.143 66.0528C281.865 62.9585 274.235 64.781 270.623 66.0373C269.641 66.3537 268.732 66.8716 267.951 67.5597L267.984 67.504C268.011 67.4576 268.044 67.4111 268.074 67.3647C267.679 67.6934 267.337 68.0851 267.063 68.5251C266.536 69.3822 266.316 70.3816 265.877 71.3099C265.347 72.4084 262.401 75.4748 263.668 76.7094C263.756 76.7923 263.858 76.8592 263.969 76.9074C264.444 77.111 264.968 77.1648 265.474 77.0621L265.419 77.1952C264.987 78.2845 264.765 79.4501 264.766 80.6267C264.766 85.7106 268.845 89.8321 273.88 89.8321C274.826 89.8331 275.768 89.6838 276.67 89.3897C276.691 89.5072 276.709 89.6248 276.73 89.7424C276.73 89.7888 276.745 89.8352 276.751 89.8817L276.592 90.1106C276.584 90.0965 276.575 90.0831 276.565 90.0704L271.839 96.8592C271.117 97.3821 266.957 100.476 266.723 102.797C266.476 105.337 266.229 108.311 266.229 108.311L266.196 108.948C265.989 109.126 265.748 109.255 265.488 109.327C265.228 109.399 264.956 109.413 264.691 109.366C263.216 109.119 263.216 114.936 263.216 114.936C263.216 114.936 262.235 115.864 261.561 115.06C260.887 114.255 259.105 116.981 259.105 116.981L247.939 117.476L247.683 117.492L247.081 115.576C247.016 115.374 246.876 115.207 246.692 115.11C246.508 115.013 246.294 114.995 246.097 115.06C246.05 115.075 246.005 115.095 245.961 115.118L245.919 115.143L245.841 115.199L245.802 115.236C245.78 115.256 245.76 115.278 245.741 115.301L245.705 115.344L245.687 115.363C245.618 115.462 245.572 115.576 245.553 115.696C245.534 115.817 245.543 115.94 245.579 116.056L246.097 117.699C243.942 118.145 241.738 119.401 243.535 122.86L234.428 121.131L237.374 123.674L252.586 126.901C252.384 127.273 252.516 127.811 253.145 128.569C255.854 131.84 260.79 132.728 262.777 132.957C263.301 134.163 263.957 135.305 264.73 136.361L264.559 139.619C264.559 139.619 259.529 164.453 258.608 165.713C259.073 165.171 259.499 164.595 259.881 163.989C258.422 169.092 256.381 176.075 255.845 177.121C254.984 178.792 254.187 185.553 255.168 185.986C255.469 186.119 256.33 186.054 257.558 185.958V186.518L257.504 207.742C257.504 207.742 257.75 220.76 257.073 222C256.396 223.241 256.215 225.843 256.215 225.843C256.215 225.843 253.507 230.977 251.361 233.041C251.346 233.057 251.33 233.071 251.313 233.084L251.246 232.601C251.246 232.601 248.667 235.949 242.96 235.761C242.96 235.761 239.526 238.056 244.619 238.18C249.711 238.304 256.215 237.995 256.215 237.995C256.215 237.995 260.757 230.878 264.562 231.806V237.199H265.726V231.719C266.267 231.354 266.729 230.879 267.085 230.324C267.442 229.77 267.685 229.146 267.8 228.492C267.9 227.818 267.827 227.128 267.588 226.492C267.35 225.855 266.954 225.294 266.44 224.863C266.209 224.648 266.023 224.386 265.896 224.095C265.768 223.803 265.7 223.487 265.696 223.167L265.654 223.204C265.654 223.096 265.627 222.984 265.615 222.87C265.281 220.085 264.863 214.339 266.34 210.087C268.366 204.258 268.98 196.139 267.505 191.305C267.029 189.76 266.638 188.189 266.334 186.599C266.298 186.398 266.265 186.206 266.235 186.026C267.243 186.167 268.241 186.373 269.224 186.645C272.64 187.614 280.113 187.793 286.494 187.741C286.509 187.92 286.527 188.109 286.548 188.298C286.662 189.61 286.9 190.907 287.258 192.172C288.059 194.647 288.426 205.561 288.426 205.561C288.426 205.561 289.459 214.534 288.896 218.185C288.595 220.215 288.294 222.254 288.122 224.302V224.343C288.122 224.343 286.431 229.294 285.194 231.982C285.164 232.051 285.13 232.119 285.1 232.184C284.771 232.214 284.446 232.288 284.134 232.403C284.134 232.403 282.476 235.807 280.823 236.37C279.171 236.933 279.719 238.787 283.46 238.106C287.201 237.425 292.851 236.868 292.851 236.868L293.094 233.396L294.244 231.917L293.943 235.38L295.168 235.132L295.006 230.921L296.887 228.501C296.887 228.501 299.159 226.422 295.782 222.331V222.421C295.746 222.362 295.713 222.3 295.674 222.242V222.223C295.114 221.332 294.668 219.67 295.484 216.722C296.959 211.393 297.817 206.557 297.817 206.557C297.817 206.557 301.109 193.601 297.152 187.471H297.326C296.92 186.609 296.634 185.692 296.474 184.749C296.454 184.637 296.436 184.523 296.42 184.405C299.349 184.232 302.223 183.687 304.568 182.511C304.559 182.499 303.147 151.754 301.979 146.859ZM264.799 125.416V125.478L264.197 125.509L264.799 125.416ZM262.735 125.71C262.636 125.733 262.543 125.778 262.464 125.843C262.205 126.22 262.042 126.657 261.991 127.115L261.052 126.898C261.052 126.898 260.393 126.753 259.445 126.589L258.996 126.125C260.23 126.02 261.513 125.865 262.735 125.71Z" fill="url(#paint1_linear_6_207)"/>
<path d="M293.805 230.965L293.447 235.349L294.647 235.101L294.467 230.346L293.805 230.965Z" fill="#1D2366"/>
<path d="M266.406 210.146C264.959 214.385 265.368 220.107 265.693 222.885C265.814 223.913 265.925 224.538 265.925 224.538C265.925 224.538 263.761 229.606 263.58 229.798C263.4 229.99 257.212 233.873 257.212 233.873L252.887 236.469C252.887 236.469 248.498 234.492 250.602 233.811C251.032 233.634 251.419 233.362 251.737 233.016C253.844 230.958 256.489 225.843 256.489 225.843C256.489 225.843 256.67 223.247 257.332 222.013C257.994 220.778 257.753 207.804 257.753 207.804L257.805 186.655V183.898L266.036 183.96C266.088 184.896 266.207 185.826 266.391 186.744C266.687 188.329 267.07 189.895 267.538 191.435C268.989 196.259 268.387 204.338 266.406 210.146Z" fill="#FFB0B1"/>
<path opacity="0.1" d="M265.925 224.538C265.925 224.538 263.761 229.606 263.58 229.798C263.4 229.99 257.212 233.873 257.212 233.873L252.887 236.469C252.887 236.469 248.498 234.492 250.602 233.811C251.032 233.634 251.419 233.363 251.737 233.016L251.923 234.368L253.365 234.307L265.705 222.892C265.814 223.913 265.925 224.538 265.925 224.538Z" fill="black"/>
<path d="M265.775 223.179L253.365 234.671L251.924 234.733L251.623 232.567C251.623 232.567 249.1 235.903 243.496 235.717C243.496 235.717 240.131 238.004 245.118 238.128C250.106 238.252 256.474 237.942 256.474 237.942C256.474 237.942 260.923 230.825 264.646 231.754V237.128H265.79V231.704C266.321 231.336 266.775 230.861 267.124 230.308C267.472 229.755 267.709 229.135 267.818 228.486C267.917 227.817 267.847 227.133 267.615 226.5C267.382 225.867 266.995 225.307 266.491 224.872C266.266 224.655 266.086 224.393 265.963 224.102C265.84 223.811 265.776 223.497 265.775 223.179Z" fill="#1D2366"/>
<path d="M294.948 216.756C294.148 219.695 294.584 221.351 295.132 222.239V222.257C295.835 223.354 296.323 224.58 296.571 225.868L296.619 226.147L290.972 234.609L287.908 235.847C287.908 235.847 282.981 234.117 283.881 233.622C284.107 233.502 284.459 232.858 284.863 231.97C286.066 229.294 287.728 224.355 287.728 224.355V224.315C287.902 222.276 288.179 220.243 288.486 218.219C289.037 214.577 288.026 205.638 288.026 205.638C288.026 205.638 287.665 194.768 286.882 192.296C286.529 191.039 286.294 189.749 286.181 188.446C286.018 186.899 285.982 185.624 285.982 185.624C285.982 185.624 289.227 180.983 295.174 185.996C295.65 186.395 296.068 186.862 296.417 187.382C300.525 193.391 297.218 206.628 297.218 206.628C297.218 206.628 296.39 211.443 294.948 216.756Z" fill="#FFB0B1"/>
<path opacity="0.1" d="M296.628 226.147L290.981 234.609L287.918 235.847C287.918 235.847 282.991 234.117 283.89 233.622C284.116 233.502 284.468 232.858 284.872 231.97C286.957 231.952 288.038 233.994 288.038 233.994L290.68 233.561C290.68 233.561 294.166 226.518 294.948 226.088C295.731 225.658 295.069 222.873 295.069 222.873V222.164C295.09 222.189 295.108 222.217 295.132 222.242V222.26C295.835 223.357 296.323 224.583 296.571 225.871L296.628 226.147Z" fill="black"/>
<path d="M288.218 234.176C288.218 234.176 286.714 231.336 283.83 232.385C283.83 232.385 282.208 235.788 280.586 236.339C278.963 236.89 279.505 238.746 283.171 238.069C286.837 237.391 292.363 236.831 292.363 236.831L292.604 233.369L296.33 228.489C296.33 228.489 298.551 226.419 295.246 222.344V223.053C295.246 223.053 295.908 225.837 295.126 226.267C294.343 226.698 290.87 233.743 290.87 233.743L288.218 234.176Z" fill="#1D2366"/>
<path opacity="0.1" d="M266.045 183.954C266.097 184.89 266.216 185.82 266.401 186.738C263.012 186.228 259.866 186.482 257.805 186.649V183.892L266.045 183.954Z" fill="black"/>
<path opacity="0.1" d="M296.751 188.152C296.751 188.152 291.936 188.394 286.193 188.443C286.03 186.896 285.994 185.621 285.994 185.621C285.994 185.621 289.239 180.98 295.186 185.993C295.662 186.392 296.08 186.859 296.429 187.379C296.522 187.643 296.63 187.901 296.751 188.152Z" fill="black"/>
<path d="M296.751 187.595C296.751 187.595 275.659 188.644 269.23 186.791C262.801 184.937 256.429 186.543 255.469 186.113C254.509 185.683 255.288 178.947 256.131 177.279C256.974 175.611 261.597 158.744 261.597 158.744L266.045 134.9L270.732 133.573L271.063 133.477L279.228 131.162L285.212 129.464C285.212 129.464 297.109 177.217 296.089 180.738C295.719 182.087 295.659 183.505 295.914 184.882C296.07 185.822 296.352 186.735 296.751 187.595Z" fill="#1D2366"/>
<path d="M250.539 118.593C250.539 118.593 246.325 123.235 249.516 125.822C252.706 128.409 254.804 126.069 254.804 126.069L250.539 118.593Z" fill="#C7DAF5"/>
<path opacity="0.1" d="M250.539 118.593C250.539 118.593 246.325 123.235 249.516 125.822C252.706 128.409 254.804 126.069 254.804 126.069L250.539 118.593Z" fill="black"/>
<path d="M284.583 88.078C284.583 88.078 284.089 88.5607 283.346 89.2724C282.286 90.2904 280.718 91.7787 279.328 93.0257C277.401 94.7492 275.812 96.0147 276.381 94.9348C276.95 93.8549 276.842 91.9736 276.559 90.213C276.538 90.0954 276.519 89.9779 276.498 89.8634C276.264 88.5703 275.954 87.2932 275.568 86.0389C275.568 86.0389 278.68 81.905 280.402 80.2744C281.043 79.6555 281.492 79.4018 281.519 79.8319C281.549 80.4105 281.97 81.6884 282.494 83.0437C282.509 83.087 282.524 83.1272 282.542 83.1705C282.891 84.0988 283.285 85.0518 283.632 85.8749C284.161 87.1374 284.583 88.078 284.583 88.078Z" fill="#FFB0B1"/>
<path opacity="0.1" d="M282.542 83.1704C282.25 84.7876 281.54 86.2944 280.487 87.5332C279.435 88.7721 278.078 89.6976 276.559 90.213C276.319 88.8005 275.988 87.406 275.568 86.0388C275.568 86.0388 281.428 78.2567 281.519 79.8317C281.54 80.4289 281.997 81.7532 282.542 83.1704Z" fill="black"/>
<path opacity="0.1" d="M275.975 92.2923L276.733 91.1938C276.733 91.1938 277.236 94.3438 279.084 92.9545C280.932 91.5652 281.022 103.41 281.022 103.41L279.039 133.898L264.706 133.016L265.112 118.284L266.735 110.858L270.747 100.062L273.134 96.4943L275.975 92.2923Z" fill="black"/>
<path d="M281.022 103.599L279.216 131.165L279.027 134.086L271.036 133.594L270.735 133.576L264.715 133.205L265.121 118.47L266.744 111.044L270.756 100.248L273.142 96.68L275.984 92.4625L276.742 91.3672C276.742 91.3672 277.245 94.5171 279.093 93.1278L279.132 93.1C280.938 91.9241 281.022 103.599 281.022 103.599Z" fill="#1D2366"/>
<path d="M266.945 108.463C266.945 108.463 266.226 110.01 264.781 109.759C263.337 109.509 263.34 115.329 263.34 115.329C263.34 115.329 262.379 116.257 261.717 115.453C261.055 114.648 259.309 117.368 259.309 117.368L248.372 117.863C248.372 117.863 253.239 120.15 252.285 127.069C252.285 127.069 268.808 126.017 269.35 124.411C269.892 122.805 266.945 108.463 266.945 108.463Z" fill="white"/>
<path opacity="0.03" d="M266.945 108.463C266.945 108.463 266.226 110.01 264.781 109.759C263.337 109.509 263.34 115.329 263.34 115.329C263.34 115.329 262.379 116.257 261.717 115.453C261.055 114.648 259.309 117.368 259.309 117.368L248.372 117.863C248.372 117.863 253.239 120.15 252.285 127.069C252.285 127.069 268.808 126.017 269.35 124.411C269.892 122.805 266.945 108.463 266.945 108.463Z" fill="black"/>
<path d="M235.159 121.499L238.042 124.03L261.778 129.157L258.834 126.069L235.159 121.499Z" fill="white"/>
<path d="M276.02 93.267C275.625 93.8859 274.497 97.0544 273.555 99.8207C272.769 102.126 272.113 104.153 272.113 104.153C272.113 104.153 270.581 114.407 269.799 116.26C269.016 118.114 269.44 125.342 269.44 125.342L266.524 143.193C266.524 143.193 265.203 152.398 263.162 157.897C261.148 163.309 258.906 165.846 258.837 165.926C259.74 164.67 264.661 139.935 264.661 139.935L266.286 108.738C266.286 108.738 266.524 105.774 266.765 103.24C267.005 100.706 271.881 97.2463 271.881 97.2463L276.583 90.3739C277.055 91.0237 276.739 92.1562 276.02 93.267Z" fill="white"/>
<path d="M263.761 133.359C263.761 133.359 256.838 133.05 253.486 128.91C250.133 124.77 261.236 127.257 261.236 127.257L264.122 127.938L263.761 133.359Z" fill="#FFB0B1"/>
<path opacity="0.1" d="M296.089 180.742C295.719 182.09 295.659 183.509 295.915 184.885C288.363 185.436 280.285 183.338 280.285 183.338C278.78 184.761 274.816 186.859 274.816 186.859L272.655 159.32C271.273 155.607 270.732 136.153 270.732 136.153C270.732 136.153 270.855 135.135 271.033 133.61C271.033 133.573 271.033 133.533 271.048 133.495C271.586 129.235 272.655 121.236 273.179 120.156C273.901 118.671 270.957 114.719 270.957 114.719L272.297 102.977L272.459 101.56C275.282 100.263 277.446 96.1229 277.446 96.1229L279.108 93.1308C280.914 91.9395 281.007 103.614 281.007 103.614L279.201 131.181L285.185 129.482C285.185 129.482 297.109 177.22 296.089 180.742Z" fill="black"/>
<path d="M303.839 182.645C295.608 186.847 280.646 182.954 280.646 182.954C279.141 184.377 275.177 186.475 275.177 186.475L273.013 158.936C271.635 155.223 271.093 135.77 271.093 135.77C271.093 135.77 272.832 121.255 273.555 119.772C273.765 119.339 273.663 118.696 273.413 118.002C272.185 114.703 271.733 111.153 272.095 107.64L272.673 102.593L272.832 101.179C275.659 99.8795 277.823 95.7394 277.823 95.7394L279.328 93.0288L282.097 88.0347L283.409 85.6707L283.632 85.878L285.332 87.4622C285.332 87.4622 286.054 88.0811 287.138 89.0094C289.495 91.0516 293.567 94.6471 295.668 96.8471C297.516 98.7841 298.1 106.319 298.268 111.99C298.38 115.725 298.313 118.652 298.313 118.652C296.45 121.805 301.323 147.119 301.323 147.119C302.458 152.011 303.839 182.645 303.839 182.645Z" fill="white"/>
<path opacity="0.03" d="M288.038 95.6775C288.038 95.6775 282.389 106.733 283.045 110.935C283.701 115.137 285.567 119.893 284.667 121.004C284.358 121.425 283.958 121.766 283.499 122.002C283.04 122.238 282.534 122.361 282.021 122.362C281.118 122.424 278.711 124.154 278.711 124.34C278.711 124.525 276.486 124.525 274.497 125.392C272.507 126.258 269.57 126.75 269.57 126.75C269.57 126.75 263.851 126.564 263.319 127.121C262.786 127.678 262.238 131.011 263.379 133.669C264.519 136.327 265.787 138.31 266.744 138.672C267.701 139.034 273.775 136.942 278.702 136.447C283.629 135.952 288.977 131.939 288.977 131.939C288.977 131.939 294.867 129.773 295.899 126.131C296.932 122.489 294.638 102.472 294.638 102.472C294.638 102.472 292.905 93.1433 288.038 95.6775Z" fill="black"/>
<path opacity="0.03" d="M287.316 94.7491C287.316 94.7491 281.666 105.808 282.328 110.007C282.99 114.206 284.85 118.965 283.948 120.079C283.639 120.5 283.24 120.842 282.782 121.078C282.323 121.314 281.818 121.437 281.305 121.437C280.402 121.499 277.994 123.229 277.994 123.414C277.994 123.6 275.77 123.6 273.78 124.463C271.791 125.327 268.853 125.822 268.853 125.822C268.853 125.822 263.135 125.636 262.605 126.193C262.075 126.75 261.522 130.086 262.665 132.74C263.809 135.395 265.073 137.382 266.03 137.744C266.987 138.106 273.061 136.014 277.988 135.522C282.915 135.03 288.264 131.011 288.264 131.011C288.264 131.011 294.151 128.845 295.171 125.206C296.191 121.567 293.91 101.544 293.91 101.544C293.91 101.544 292.182 92.2179 287.316 94.7491Z" fill="black"/>
<path d="M287.86 95.1205C287.86 95.1205 282.211 106.179 282.873 110.378C283.535 114.577 285.395 119.336 284.495 120.447C284.187 120.869 283.788 121.212 283.329 121.448C282.87 121.685 282.363 121.808 281.85 121.809C280.947 121.87 278.539 123.6 278.539 123.783C278.539 123.965 276.318 123.968 274.325 124.835C272.333 125.701 269.398 126.193 269.398 126.193C269.398 126.193 263.68 126.007 263.147 126.564C262.614 127.121 262.066 130.457 263.207 133.112C264.348 135.767 265.615 137.753 266.572 138.115C267.529 138.477 273.603 136.386 278.53 135.89C283.457 135.395 288.805 131.382 288.805 131.382C288.805 131.382 294.696 129.216 295.728 125.574C296.76 121.932 294.482 101.915 294.482 101.915C294.482 101.915 292.724 92.6018 287.86 95.1205Z" fill="white"/>
<path opacity="0.1" d="M287.737 124.782C287.737 124.782 283.222 123.854 284.793 125.401C286.364 126.948 286.355 128.303 288.279 128.241C290.202 128.179 287.737 124.782 287.737 124.782Z" fill="black"/>
<path opacity="0.1" d="M295.367 158.07C295.367 158.07 293.326 159.49 297.23 162.764C301.134 166.038 295.367 158.07 295.367 158.07Z" fill="black"/>
<path opacity="0.1" d="M291.472 169.745C291.472 169.93 290.75 176.552 293.452 178.207C296.155 179.863 291.472 169.745 291.472 169.745Z" fill="black"/>
<path d="M248.559 117.848C246.379 117.925 241.672 118.609 244.113 123.291C246.271 127.434 249.898 124.664 251.938 122.563C251.441 120.605 250.231 118.917 248.559 117.848Z" fill="#FFB0B1"/>
<path d="M251.966 122.527L252.056 122.43L251.966 122.527Z" fill="#FFB0B1"/>
<path opacity="0.1" d="M287.138 89.198C284.826 90.8225 282.888 92.1932 282.509 92.4779C281.474 93.2669 279.499 97.899 278.226 100.263C277.212 102.166 273.916 102.655 272.673 102.776L272.833 101.361C275.659 100.062 277.823 95.9218 277.823 95.9218L283.409 85.8531L285.332 87.6509C285.332 87.6509 286.054 88.2697 287.138 89.198Z" fill="black"/>
<path d="M287.138 89.0122C284.826 90.6367 282.888 92.0075 282.509 92.2952C281.474 93.0812 279.499 97.7134 278.226 100.077C277.212 101.98 273.916 102.469 272.673 102.59L272.833 101.176C275.659 99.8763 277.823 95.7361 277.823 95.7361L283.409 85.6672L285.332 87.4588C285.332 87.4588 286.054 88.0715 287.138 89.0122Z" fill="#DCE7FF"/>
<path d="M282.69 81.1283C282.691 82.9858 282.143 84.7997 281.118 86.3298C279.909 88.1388 278.108 89.442 276.043 90.0029C273.979 90.5638 271.787 90.3453 269.866 89.3869C267.945 88.4286 266.421 86.794 265.572 84.7797C264.723 82.7654 264.604 80.5048 265.237 78.4082C265.87 76.3116 267.214 74.5178 269.023 73.3523C270.833 72.1868 272.989 71.7269 275.101 72.056C277.212 72.385 279.139 73.4813 280.531 75.1458C281.923 76.8104 282.689 78.9329 282.69 81.1283Z" fill="#FFB0B1"/>
<path opacity="0.1" d="M298.268 111.993C297.046 111.22 296.05 110.121 295.388 108.812C294.885 107.791 294.551 106.612 293.693 105.888C292.92 105.238 291.887 105.081 290.924 104.79C287.758 103.827 285.103 100.857 285.004 97.4657C284.956 95.8691 285.44 94.2756 285.221 92.6944C285.096 91.7996 284.75 90.9526 284.215 90.2345C283.95 89.8911 283.659 89.5694 283.346 89.2722C282.924 88.8638 282.482 88.4677 282.097 88.0345C281.854 87.7663 281.642 87.4704 281.465 87.1527C281.321 86.8927 281.205 86.6178 281.118 86.3327C280.516 84.439 281.064 82.1926 280.402 80.2773L280.366 80.1721C280.116 79.4914 279.607 78.8106 278.9 78.758C278.193 78.7054 277.588 79.3088 276.914 79.578C275.502 80.1412 273.979 79.1819 272.802 78.2042C271.626 77.2264 270.298 76.1094 268.802 76.326C267.812 76.4714 267.03 77.1645 266.118 77.5234C265.912 77.6054 265.699 77.6685 265.483 77.7122C266.254 75.7335 267.672 74.0928 269.493 73.0721C271.313 72.0514 273.423 71.7144 275.459 72.119C277.495 72.5236 279.33 73.6444 280.65 75.2891C281.969 76.9337 282.691 78.9994 282.689 81.1313C282.69 81.7751 282.625 82.4171 282.494 83.0466C282.509 83.09 282.524 83.1302 282.542 83.1735C282.891 84.1018 283.285 85.0548 283.632 85.8779L285.332 87.4621C285.332 87.4621 286.054 88.081 287.138 89.0092C289.495 91.0514 293.567 94.6469 295.668 96.8469C297.516 98.7901 298.094 106.321 298.268 111.993Z" fill="black"/>
<path d="M266.012 71.8703C266.443 70.9698 266.656 69.9611 267.171 69.1071C267.927 67.8694 269.245 67.0772 270.599 66.5976C274.136 65.3445 281.609 63.525 283.842 66.5976C284.282 67.2165 284.646 67.9034 285.254 68.3304C285.717 68.6553 286.277 68.7946 286.786 69.039C288.209 69.7259 289.118 71.2236 289.603 72.7521C290.088 74.2807 290.232 75.9207 290.587 77.4956C291.042 79.5162 291.839 81.4315 292.634 83.3345C293.57 85.5809 294.563 87.9109 296.369 89.4983C298.834 91.6643 299.379 94.7307 301.666 97.1071C304.375 99.9291 304.288 104.586 302.891 108.284C302.708 108.769 302.5 109.277 302.572 109.794C302.644 110.31 303.018 110.781 303.37 111.192L304.851 112.91C301.347 113.779 297.383 111.898 295.752 108.596C295.249 107.575 294.915 106.399 294.054 105.672C293.284 105.022 292.249 104.868 291.288 104.577C288.122 103.611 285.468 100.638 285.368 97.2463C285.32 95.6528 285.805 94.0592 285.585 92.4812C285.463 91.5803 285.115 90.7274 284.577 90.0058C283.749 88.8949 282.5 88.1492 281.826 86.9115C280.685 84.8414 281.552 82.1525 280.73 79.9308C280.477 79.2501 279.972 78.5693 279.264 78.5167C278.557 78.4641 277.952 79.0675 277.275 79.3367C275.866 79.8999 274.343 78.9438 273.167 77.9629C271.99 76.982 270.662 75.8681 269.164 76.0877C268.173 76.2301 267.394 76.9232 266.482 77.2852C265.808 77.5513 264.441 77.7896 263.851 77.2048C262.605 76.0259 265.492 72.9718 266.012 71.8703Z" fill="#591D4B"/>
<path opacity="0.1" d="M296.589 107.575C296.083 106.554 295.752 105.378 294.891 104.654C294.121 104.004 293.085 103.846 292.122 103.555C288.959 102.593 286.304 99.6194 286.202 96.2281C286.154 94.6346 286.638 93.0379 286.422 91.4599C286.296 90.5648 285.948 89.7178 285.413 88.9999C284.583 87.8891 283.334 87.1434 282.662 85.9057C281.522 83.8387 282.389 81.1498 281.564 78.9251C281.314 78.2474 280.805 77.5667 280.101 77.511C279.397 77.4553 278.786 78.0649 278.112 78.3341C276.703 78.8972 275.177 77.938 274.003 76.9602C272.829 75.9824 271.496 74.8654 270 75.082C269.01 75.2274 268.228 75.9205 267.319 76.2795C266.644 76.5456 265.275 76.7869 264.685 76.2021C263.445 74.9644 266.331 71.9166 266.849 70.8212C267.279 69.9177 267.493 68.9121 268.011 68.0581C268.038 68.0116 268.068 67.9652 268.098 67.9188C267.711 68.2486 267.377 68.6392 267.108 69.0761C266.593 69.9301 266.38 70.9326 265.949 71.8392C265.428 72.9346 262.542 75.9917 263.785 77.2201C264.387 77.808 265.741 77.5667 266.416 77.3006C267.319 76.9385 268.107 76.2454 269.097 76.1031C270.602 75.8834 271.927 77.0004 273.1 77.9782C274.274 78.956 275.809 79.9152 277.212 79.3521C277.886 79.0829 278.476 78.4764 279.198 78.5321C279.92 78.5878 280.402 79.2654 280.664 79.9462C281.486 82.1678 280.619 84.8567 281.759 86.9268C282.434 88.1428 283.683 88.904 284.51 90.021C285.049 90.7427 285.396 91.5956 285.519 92.4964C285.738 94.0745 285.254 95.668 285.302 97.2616C285.401 100.665 288.056 103.626 291.222 104.592C292.176 104.883 293.218 105.037 293.988 105.687C294.852 106.414 295.192 107.59 295.686 108.611C297.317 111.913 301.281 113.794 304.784 112.925L304.086 112.114C301.049 112.16 297.976 110.384 296.589 107.575Z" fill="black"/>
<path opacity="0.1" d="M275.839 93.4526C275.445 94.0714 274.316 97.24 273.374 100.006C272.492 99.6536 271.692 97.404 271.692 97.404L276.393 90.5284C276.875 91.2092 276.559 92.3386 275.839 93.4526Z" fill="black"/>
<path d="M276.02 93.2668C275.626 93.8857 274.497 97.0543 273.555 99.8206C272.673 99.4709 271.872 97.2183 271.872 97.2183L276.574 90.3458C277.055 91.0235 276.739 92.156 276.02 93.2668Z" fill="#DCE7FF"/>
<path d="M248.685 124.878L246.078 116.427C246.048 116.329 246.036 116.224 246.044 116.121C246.053 116.017 246.081 115.916 246.128 115.824C246.174 115.732 246.238 115.65 246.315 115.583C246.392 115.516 246.482 115.465 246.578 115.434C246.772 115.372 246.982 115.391 247.162 115.487C247.343 115.583 247.479 115.749 247.541 115.948L250.148 124.389L249.889 126.156L248.685 124.878Z" fill="#BE8B87"/>
<path opacity="0.1" d="M246.325 115.685C246.52 115.622 246.731 115.64 246.912 115.737C247.093 115.833 247.229 115.999 247.292 116.199L249.898 124.64L249.702 125.964L249.892 126.168L250.151 124.401L247.529 115.96C247.467 115.761 247.331 115.596 247.151 115.5C246.97 115.403 246.76 115.384 246.566 115.447C246.403 115.501 246.262 115.61 246.166 115.756C246.217 115.728 246.27 115.704 246.325 115.685Z" fill="white"/>
<path d="M248.685 124.878L250.148 124.401L249.934 125.85L249.889 126.168L249.461 125.71L248.685 124.878Z" fill="#EFC8C4"/>
<path d="M249.461 125.71C249.487 125.677 249.519 125.65 249.555 125.63C249.576 125.616 249.601 125.609 249.626 125.609C249.651 125.609 249.675 125.616 249.696 125.63C249.717 125.655 249.734 125.683 249.747 125.713C249.767 125.748 249.794 125.777 249.827 125.799C249.859 125.821 249.896 125.835 249.934 125.84L249.889 126.15L249.461 125.71Z" fill="#727A9C"/>
<path d="M246.063 119.429C246.063 119.429 251.291 119.398 250.06 121.685C248.829 123.971 246.906 124.247 246.906 124.247L246.063 119.429Z" fill="#FFB0B1"/>
<path d="M213.549 16.8079H213.323C204.342 16.8079 196.399 21.6937 191.83 28.9033C187.261 21.6937 179.319 16.8079 170.337 16.8079H170.112C163.371 16.8739 156.929 19.6719 152.184 24.5939C147.439 29.5158 144.776 36.1639 144.772 43.0936C144.772 51.6987 148.438 63.9086 155.586 73.9556C169.206 93.0998 191.83 109.849 191.83 109.849C191.83 109.849 214.455 93.1029 228.071 73.9556C235.222 63.9086 238.885 51.6987 238.885 43.0936C238.881 36.1645 236.218 29.5168 231.474 24.5949C226.73 19.6731 220.288 16.8747 213.549 16.8079ZM210.319 75.4285C209.296 75.4245 208.299 75.1026 207.457 74.5051C206.615 73.9076 205.969 73.0624 205.603 72.0805H200.233C199.88 72.0783 199.536 71.9625 199.249 71.7495C198.963 71.5365 198.748 71.2368 198.635 70.8923L196.986 65.7837L191.767 84.5318C191.665 84.8927 191.453 85.21 191.161 85.436C190.869 85.6619 190.513 85.7844 190.148 85.785H190.042C189.661 85.766 189.298 85.6131 189.013 85.3518C188.728 85.0905 188.539 84.7366 188.477 84.3492L183.099 51.0922L179.168 70.7717C179.078 71.1455 178.869 71.4775 178.573 71.7148C178.278 71.952 177.914 72.0808 177.54 72.0805H169.976C169.749 72.0904 169.523 72.053 169.311 71.9706C169.098 71.8882 168.905 71.7625 168.741 71.6011C168.577 71.4396 168.447 71.2458 168.357 71.0312C168.268 70.8166 168.223 70.5857 168.223 70.3524C168.223 70.1191 168.268 69.8882 168.357 69.6736C168.447 69.459 168.577 69.2652 168.741 69.1037C168.905 68.9423 169.098 68.8166 169.311 68.7342C169.523 68.6518 169.749 68.6144 169.976 68.6242H176.215L181.784 42.1653C181.875 41.7741 182.096 41.4277 182.408 41.1853C182.72 40.9429 183.105 40.8196 183.496 40.8364C183.887 40.8532 184.26 41.0091 184.552 41.2774C184.843 41.5458 185.035 41.9099 185.094 42.3076L190.587 76.233L195.264 59.4591C195.362 59.1058 195.568 58.7944 195.851 58.5713C196.135 58.3482 196.481 58.2255 196.838 58.2214H196.872C197.225 58.2215 197.57 58.3364 197.856 58.5498C198.143 58.7631 198.356 59.064 198.467 59.4096L201.449 68.6335H205.537C205.827 67.7259 206.356 66.9184 207.065 66.3002C207.774 65.6821 208.635 65.2773 209.553 65.1305C210.472 64.9837 211.412 65.1007 212.27 65.4685C213.128 65.8362 213.87 66.4405 214.415 67.2147C214.96 67.9888 215.286 68.9027 215.358 69.8554C215.429 70.8081 215.243 71.7627 214.821 72.6137C214.398 73.4647 213.755 74.1791 212.962 74.678C212.169 75.1768 211.258 75.4409 210.328 75.4409L210.319 75.4285Z" fill="#EC5863"/>
</g>
<defs>
<linearGradient id="paint0_linear_6_207" x1="108.348" y1="240.662" x2="108.348" y2="50.2599" gradientUnits="userSpaceOnUse">
<stop stop-color="#808080" stop-opacity="0.25"/>
<stop offset="0.54" stop-color="#808080" stop-opacity="0.12"/>
<stop offset="1" stop-color="#808080" stop-opacity="0.1"/>
</linearGradient>
<linearGradient id="paint1_linear_6_207" x1="67184.1" y1="143662" x2="67184.1" y2="45926.8" gradientUnits="userSpaceOnUse">
<stop stop-color="#808080" stop-opacity="0.25"/>
<stop offset="0.54" stop-color="#808080" stop-opacity="0.12"/>
<stop offset="1" stop-color="#808080" stop-opacity="0.1"/>
</linearGradient>
</defs>
</svg>
